<?xml version="1.0" standalone="no"?>
<!DOCTYPE svg PUBLIC "-//W3C//DTD SVG 1.1//EN" "http://www.w3.org/Graphics/SVG/1.1/DTD/svg11.dtd" >
<svg xmlns="http://www.w3.org/2000/svg" xmlns:xlink="http://www.w3.org/1999/xlink" version="1.1">
<metadata></metadata>
<defs>
<font id="prettywisemedium" horiz-adv-x="1261" >
<font-face units-per-em="2048" ascent="1638" descent="-410" />
<missing-glyph horiz-adv-x="569" />
<glyph horiz-adv-x="0" />
<glyph horiz-adv-x="682" />
<glyph unicode=" "  horiz-adv-x="569" />
<glyph unicode="&#x09;" horiz-adv-x="569" />
<glyph unicode="&#xa0;" horiz-adv-x="569" />
<glyph unicode="!" horiz-adv-x="366" d="M63 86q0 50 34.5 84.5t84.5 34.5q51 0 86 -34.5t35 -84.5q0 -51 -35 -86t-86 -35q-50 0 -84.5 35t-34.5 86zM70 1337q0 59 33.5 93t78.5 34q46 0 80.5 -33.5t34.5 -93.5q0 -86 -14.5 -189.5t-31.5 -193t-31.5 -248t-14.5 -341.5h-47q0 183 -14 341.5t-30 248t-30 193 t-14 189.5z" />
<glyph unicode="&#x22;" horiz-adv-x="753" d="M63 1008q63 60 94.5 116.5t33.5 103t-6 83.5t-20.5 78.5t-12.5 68.5h210q0 -146 -68 -266.5t-216 -198.5zM393 1008q63 60 94 116.5t32.5 103t-6 83.5t-20 78.5t-12.5 68.5h209q0 -146 -68 -266.5t-216 -198.5z" />
<glyph unicode="#" horiz-adv-x="1325" d="M63 535v53h388l61 157h-373v52h391l164 420h54l-164 -420h254l163 420h54l-164 -420h371v-52h-390l-61 -157h375v-53h-395l-166 -426h-54l166 426h-254l-166 -426h-53l166 426h-367zM504 588h254l61 157h-254z" />
<glyph unicode="$" horiz-adv-x="1265" d="M63 1155q4 101 84.5 174.5t197.5 107t251 33.5h18v105h50v-107q74 -5 151 -22.5t119.5 -30t95 -9.5t103.5 32v-250h-11q-42 0 -83.5 21t-79.5 52.5t-78.5 64.5t-97 61t-119.5 38v-518h1l1 -1h1l1 -1h1l1 -1h1l1 -1h1l1 -1h1l1 -1l2 -1q215 -104 306 -168 q203 -141 216 -314v-8q4 -96 -39.5 -180t-119.5 -140t-174 -89t-203 -36v-100h-50v100q-79 2 -173.5 17.5t-154 29t-117.5 13t-93 -26.5v250h10q54 0 107 -23.5t99.5 -57.5t93.5 -69t106.5 -62t121.5 -32v668l-79 39.5t-80.5 40t-76 39.5t-74.5 42.5t-66 43t-60.5 47 t-47.5 50t-38.5 55.5t-21.5 59.5t-7 66.5zM283 1241q0 -47 24.5 -89.5t75.5 -81.5t101.5 -69t129.5 -69v498h-16q-77 0 -145.5 -18t-119 -62.5t-50.5 -108.5zM664 4q156 7 249.5 92t87.5 201q-4 56 -31 106.5t-76 93.5t-102.5 77.5t-127.5 72.5v-643z" />
<glyph unicode="%" horiz-adv-x="1601" d="M84 1122q0 375 344 375t344 -375q0 -377 -344 -377t-344 377zM199 1122q0 -104 15 -174t46.5 -108.5t71 -54t96.5 -15.5t96.5 15.5t71 54t46.5 108.5t15 174t-15 172t-46.5 104.5t-70.5 50t-97 13.5t-97 -13.5t-70.5 -50t-46.5 -104.5t-15 -172zM362 -137l848 1710h47 l-847 -1710h-48zM870 332q0 375 344 375q345 0 345 -375q0 -379 -345 -379q-344 0 -344 379zM985 332q0 -104 15 -174t46.5 -108.5t71 -54t96.5 -15.5t97 15.5t71 54t46.5 108.5t15.5 174t-15 172t-47 104.5t-71 50t-97 13.5t-97 -13.5t-70.5 -50t-46.5 -104.5t-15 -172z " />
<glyph unicode="&#x26;" horiz-adv-x="1460" d="M63 346q0 94 40.5 180.5t132 161t223.5 111.5l-31 39q-56 70 -81 146.5t-19.5 144.5t37 130t84.5 107t128 71.5t162 26.5q165 0 258 -67.5t93 -167.5q0 -40 -14 -69.5t-41 -51t-55.5 -38t-68 -39.5t-67.5 -46l-23 23q50 45 70 116.5t9 137t-58.5 113.5t-120.5 48 q-57 0 -106 -26.5t-77.5 -74.5t-36.5 -108t17 -134t82 -146l522 -658q142 59 142 181q0 43 -20.5 85.5t-50 77.5t-58.5 70t-49.5 78t-20.5 88v31h229q-3 -45 12 -91t35 -79.5t37 -82t17 -97.5q0 -84 -60 -164t-184 -131l190 -242h-249l-232 291q-22 -25 -52.5 -73.5t-58 -88 t-68 -79t-100.5 -62t-137 -21.5q-87 0 -160 31t-121 84t-74 121t-26 143zM244.5 375q7.5 -74 39.5 -133.5t89.5 -97.5t130.5 -38q40 0 73 8t56 18.5t51 33.5t45.5 40.5t51 53t57.5 59.5l-349 441l-36 -15q-77 -32 -128.5 -94t-69.5 -132t-10.5 -144z" />
<glyph unicode="'" horiz-adv-x="425" d="M63 1008q63 60 94.5 116.5t33.5 103t-6 83.5t-20.5 78.5t-12.5 68.5h210q0 -146 -68 -266.5t-216 -198.5z" />
<glyph unicode="(" horiz-adv-x="737" d="M63 666q0 142 18 267.5t61.5 243.5t110 202t170 135t234.5 51v-47q-50 0 -97.5 -25.5t-95 -88.5t-82.5 -157.5t-57 -244t-22 -336.5q0 -188 22.5 -339.5t59 -249t85.5 -162.5t100 -92.5t104 -27.5v-47q-136 0 -242.5 52t-174.5 138.5t-113 207t-63 248.5t-18 272z" />
<glyph unicode=")" horiz-adv-x="737" d="M63 -205q53 0 104 27.5t100 92.5t85.5 162.5t59 249t22.5 339.5q0 187 -22 336.5t-57 244t-82.5 157.5t-95 88.5t-97.5 25.5v47q131 0 234.5 -51t170 -135t110 -202t61.5 -243.5t18 -267.5q0 -144 -18 -272t-63 -248.5t-113 -207t-174.5 -138.5t-242.5 -52v47z" />
<glyph unicode="*" horiz-adv-x="628" d="M63 1176v30h220l-160 160l22 23l154 -154v207h31v-201l147 148l23 -23l-160 -160h225v-30h-207l142 -142l-23 -22l-147 147v-219h-31v225l-154 -153l-22 22l141 142h-201z" />
<glyph unicode="+" horiz-adv-x="878" d="M63 610v47h353v353h47v-353h352v-47h-352v-352h-47v352h-353z" />
<glyph unicode="," horiz-adv-x="425" d="M63 -209q63 60 94.5 116.5t33.5 103t-6 84t-20.5 79t-12.5 68.5h210q0 -146 -68 -266.5t-216 -198.5z" />
<glyph unicode="-" horiz-adv-x="577" d="M63 596v49h451v-49h-451z" />
<glyph unicode="." horiz-adv-x="405" d="M100 86q0 52 35 86.5t86 34.5t86 -34.5t35 -86.5q0 -51 -35 -86t-86 -35t-86 35t-35 86z" />
<glyph unicode="/" horiz-adv-x="716" d="M63 -295l535 1876h53l-532 -1876h-56z" />
<glyph unicode="0" horiz-adv-x="1501" d="M63 721q0 749 689 749q686 0 686 -749q0 -756 -686 -756q-689 0 -689 756zM291 721q0 -167 21 -290t58 -202.5t96 -127t127.5 -66.5t158.5 -19t158 19t126.5 66.5t95.5 127t57.5 202.5t20.5 290q0 166 -20.5 286.5t-57 196t-96 120t-126 61t-158.5 16.5t-159 -16.5 t-126.5 -61t-96.5 -120t-58 -196t-21 -286.5z" />
<glyph unicode="1" horiz-adv-x="575" d="M39 1174v55l342 209h104v-1438h-227v1311z" />
<glyph unicode="2" horiz-adv-x="1361" d="M63 0v90q0 97 28 182.5t67.5 149t111 124.5t129.5 99t154 83t153 67.5t156 59.5q73 27 108.5 41t92.5 38.5t85 42.5t59.5 42.5t44 50t12.5 54.5q0 68 -46 112.5t-124.5 62.5t-173.5 18t-203 -17q-77 -8 -162.5 -34t-147 -52.5t-135 -47.5t-131.5 -21v250q68 -16 159 -8.5 t156 23t173 31t211 15.5q101 0 182 -23t131.5 -59.5t84 -85t47 -95t13.5 -93.5q0 -91 -40 -168.5t-108 -134.5t-156.5 -106t-185.5 -90t-194.5 -81t-186 -84t-156.5 -93t-108 -114.5t-40 -142.5v-35h309q104 0 212 19.5t193 47t162.5 54.5t147 44t119.5 13v-227 q-72 24 -185.5 28.5t-213 -3t-230.5 -17t-205 -10.5h-369z" />
<glyph unicode="3" horiz-adv-x="1284" d="M63 0v227q61 0 122.5 -21.5t116 -52.5t111 -62.5t127.5 -53t144 -21.5q166 0 263 88.5t97 217.5q0 68 -30 136.5t-88.5 133.5t-156.5 120t-224 89l432 440h-803v197h991v-72l-411 -432q159 -42 266.5 -120t154 -167t46.5 -188q0 -92 -41.5 -180t-113 -156.5t-176 -110 t-222.5 -41.5q-82 0 -183 12.5t-168.5 24.5t-137.5 12t-116 -20z" />
<glyph unicode="4" horiz-adv-x="1331" d="M63 401v82l959 955h96v-942h150v-95h-150v-401h-227v401h-828zM139 496h752v747z" />
<glyph unicode="5" horiz-adv-x="1347" d="M63 8v232h11q55 0 109 -23t102.5 -55.5t103.5 -65t135 -55.5t174 -23q174 0 294 110.5t120 287.5q0 70 -33 139t-99 129.5t-165.5 99t-233.5 47t-302 -27.5l-146 -31l135 666h1002l4 -328h-19q0 74 -49.5 109.5t-161.5 35.5h-755l-94 -360q179 59 280 79.5t211 22.5 q267 0 431.5 -132.5t164.5 -334.5q0 -138 -49.5 -246.5t-134.5 -175t-193 -101t-231 -34.5q-84 0 -169 9.5t-143 20.5t-112.5 19t-98 5.5t-77.5 -19.5h-11z" />
<glyph unicode="6" horiz-adv-x="1468" d="M63 700q0 156 48 286.5t131 219.5t193.5 150.5t236 88.5t257.5 25.5t259 -32.5v-170q-93 54 -184 87.5t-180 43t-168 -6t-146 -65.5t-115.5 -130t-76 -204.5t-27.5 -283.5q0 -165 40.5 -300.5t108.5 -221.5t153 -132.5t177 -46.5q81 0 150.5 29t129 91.5t94 177 t34.5 269.5q0 101 -22 184t-58.5 137.5t-84.5 91.5t-98 53t-102 16q-59 0 -97.5 -19t-57.5 -53t-29.5 -76.5t-19.5 -94t-21.5 -101t-41 -102.5t-73.5 -93l-84 217q33 11 62 38.5t51 62.5t45.5 74.5t52 76.5t63 67.5t86.5 49t115 18.5q104 0 199 -32.5t172.5 -96t123.5 -169 t46 -240.5q0 -128 -38.5 -234.5t-102 -178t-147.5 -121.5t-172 -72.5t-177 -22.5q-214 0 -374.5 94t-245.5 262.5t-85 388.5z" />
<glyph unicode="7" horiz-adv-x="1167" d="M63 1067v371h1041v-176q-46 -17 -94.5 -45.5t-108.5 -81t-113.5 -119.5t-106 -168t-90 -220t-60.5 -281.5t-23 -346.5h-240q0 158 26 301t68.5 254.5t105 212.5t126 174.5t142 140.5t143.5 111t139 86h-709q-95 0 -142 -52.5t-69 -160.5h-35z" />
<glyph unicode="8" horiz-adv-x="1402" d="M63 381q0 77 30.5 140.5t78.5 105.5t113.5 73.5t129.5 48t134 25.5q-174 0 -281.5 88t-107.5 244q0 78 29.5 142t92.5 115t172.5 79t258.5 28q276 0 414.5 -101.5t138.5 -262.5q0 -76 -37.5 -141t-96.5 -105.5t-126 -63t-129 -22.5q69 -9 131 -25.5t124 -48t106.5 -73.5 t72.5 -105.5t28 -140.5q0 -203 -158 -309.5t-468 -106.5q-311 0 -480.5 108t-169.5 308zM291 375q0 -19 2.5 -41.5t12.5 -59t27 -70t49.5 -70t75 -62.5t108.5 -43t147 -17q74 0 135.5 17t102 43.5t71.5 62t47.5 69.5t26.5 70.5t13 59.5t3 41q0 40 -2.5 72t-12.5 71.5 t-26.5 69.5t-46.5 60.5t-71 50t-102.5 32t-137.5 12.5q-82 0 -147 -12.5t-108.5 -32t-75.5 -50t-49 -60t-27 -70t-12.5 -71.5t-2.5 -72zM377 1114q0 -64 17.5 -118.5t55 -100.5t104.5 -72t159 -26q71 0 127 17.5t92.5 47t60 71t33.5 86t10 95.5q0 22 -1.5 43t-9 53.5 t-20.5 59.5t-37 56.5t-57 50t-84 33.5t-114 13q-70 0 -125 -13t-89.5 -31t-59.5 -48t-36.5 -53t-18 -58.5t-7 -52.5t-0.5 -45v-8z" />
<glyph unicode="9" horiz-adv-x="1468" d="M63 840q0 128 38.5 234.5t102 178t147 121t171 72t176.5 22.5q215 0 376 -94t246 -262.5t85 -388.5q0 -109 -21.5 -204.5t-61 -170t-95.5 -136.5t-123.5 -106.5t-147 -77t-164.5 -51t-177 -26.5t-183.5 -5t-185.5 15v203q90 -45 180.5 -73.5t183 -37t175 6t155 61.5 t125 122.5t83 196t30.5 275.5q0 165 -41 300.5t-109 221t-153.5 132t-178.5 46.5q-63 0 -119.5 -17t-109.5 -58.5t-91.5 -105t-61.5 -162.5t-23 -224q0 -101 22 -184t58 -137t84 -91t98 -53t102 -16q68 0 110.5 27.5t59 71t30.5 101t23.5 112t39 110t77.5 90.5l76 -181 q-37 -16 -70 -53.5t-55 -80.5t-53.5 -90.5t-65.5 -85.5t-92 -62.5t-131 -24.5q-83 0 -160 20t-147 63t-121.5 105t-82 152.5t-30.5 198.5z" />
<glyph unicode=":" horiz-adv-x="368" d="M100 86q0 52 35 86.5t86 34.5t86 -34.5t35 -86.5q0 -51 -35 -86t-86 -35t-86 35t-35 86zM100 719q0 52 35 86.5t86 34.5t86 -34.5t35 -86.5q0 -51 -35 -86t-86 -35t-86 35t-35 86z" />
<glyph unicode=";" horiz-adv-x="479" d="M96 -209q63 60 94 116.5t32.5 103t-6 84t-20 79t-12.5 68.5h209q0 -146 -68 -266.5t-216 -198.5zM135 719q0 52 35 86.5t86 34.5t86 -34.5t35 -86.5q0 -51 -35 -86t-86 -35t-86 35t-35 86z" />
<glyph unicode="&#x3c;" horiz-adv-x="802" d="M63 655v9l676 442v-47l-606 -402l606 -405v-47z" />
<glyph unicode="=" horiz-adv-x="878" d="M63 502v47h752v-47h-752zM63 709v47h752v-47h-752z" />
<glyph unicode="&#x3e;" horiz-adv-x="802" d="M63 205v47l609 405l-609 402v47l676 -442v-9z" />
<glyph unicode="?" horiz-adv-x="1169" d="M63 1174q0 93 76.5 163t192 103t248.5 33q80 0 156 -12.5t143.5 -39.5t117.5 -65t79.5 -93t29.5 -120q0 -78 -34 -144t-88.5 -112t-119.5 -87t-128.5 -79.5t-115 -78.5t-80.5 -94t-22 -118h-47q-18 65 -10 114.5t40 100.5t73.5 91t91 87.5t92 90t76 97.5t43.5 111 q32 119 -41.5 209t-227.5 90q-153 0 -254.5 -91.5t-101.5 -231.5q0 -62 31.5 -142.5t33.5 -89.5l-41 -14q-9 33 -35 62t-55.5 52t-57.5 49.5t-46.5 67t-18.5 91.5zM420 86q0 52 35 86.5t86 34.5t86 -34.5t35 -86.5q0 -51 -35 -86t-86 -35t-86 35t-35 86z" />
<glyph unicode="@" horiz-adv-x="1923" d="M63 659q0 183 67 345.5t188 283.5t303 191.5t399 70.5q236 0 420.5 -81t287.5 -228t103 -336q0 -167 -84 -315t-220 -235t-284 -87q-90 0 -145.5 43t-55.5 123q0 20 11 66h-11q-120 -170 -276 -170q-94 0 -148.5 64.5t-54.5 168.5q0 80 31.5 173t85.5 175.5t138 137.5 t177 55q80 0 167 -24.5t104 -26.5q82 -15 137 4q-151 -355 -201 -594q-33 -150 72 -150q35 0 76 23t83 71.5t77 114.5t58.5 162t26.5 205q4 138 -40.5 253.5t-123 192.5t-186 119.5t-229.5 42.5q-140 0 -265.5 -56t-222.5 -159t-158 -260t-71 -348q-7 -158 43 -297.5 t139.5 -234.5t209.5 -150t251 -55q84 0 175 24t171.5 58.5t162 69.5t176.5 59t185 24v-199q-87 12 -208 0.5t-216 -31t-218 -37.5t-214 -18q-252 0 -455 96.5t-320.5 273.5t-117.5 402zM767.5 501.5q22.5 -69.5 82.5 -69.5q65 0 132 62t105 170l127 342q-9 2 -33.5 9 t-37.5 10t-33 6t-37 3q-46 0 -94 -25t-91 -71t-75.5 -118t-44.5 -158q-23 -91 -0.5 -160.5z" />
<glyph unicode="A" horiz-adv-x="1265" d="M-43 0l557 1438h168l612 -1438h-252q0 137 -20 273.5t-70 334.5h-553l-231 -608h-211zM418 655h524q-16 72 -39 131l-229 545z" />
<glyph unicode="B" horiz-adv-x="1236" d="M70 0v1438h594q109 0 194 -30.5t134.5 -82t74.5 -114t25 -132.5q0 -116 -63.5 -211.5t-166.5 -122.5v-10q159 -17 243.5 -109.5t84.5 -234.5q0 -69 -29 -136t-85 -125t-151 -94t-214 -36h-641zM297 47h289q90 0 163 30t119 79.5t70.5 110t24.5 124.5q0 140 -91.5 230 t-240.5 90h-334v-664zM297 760h303q89 0 155 46t97 114.5t31 148.5q0 83 -33.5 154.5t-107.5 119.5t-177 48h-268v-631z" />
<glyph unicode="C" horiz-adv-x="1345" d="M59 733q0 145 39.5 267t107.5 208t160.5 145.5t197.5 88t218 28.5q76 0 159.5 -14.5t136.5 -28t111 -13.5t103 24v-287q-55 0 -103.5 28t-85.5 67.5t-75.5 79t-91.5 67.5t-115 28q-167 0 -293 -93t-188 -253q-55 -140 -54 -310q0 -25 1 -50q5 -146 35.5 -264t77.5 -196.5 t110 -131t131.5 -75.5t144.5 -23q55 0 111 24.5t105.5 64.5t92.5 81.5t90.5 85t82.5 65.5l12 -219q-38 -15 -117 -52t-126 -56t-125 -36.5t-158 -17.5q-100 0 -198 30t-188 93t-158.5 152t-109.5 216.5t-41 276.5z" />
<glyph unicode="D" horiz-adv-x="1341" d="M70 0v1438h579q295 0 464 -175.5t169 -517.5q0 -154 -38 -281t-102 -211.5t-150.5 -142.5t-180.5 -84t-195 -26h-546zM297 20l109 27h13q113 0 203 17q94 18 177.5 65.5t138 126t86 201.5t31.5 288q0 185 -39.5 311t-122.5 199.5t-198 104.5q-108 29 -259 29h-20l-119 20 v-1389z" />
<glyph unicode="E" horiz-adv-x="1212" d="M70 0v1438h227q150 0 351 -12t311 -12t169 24v-246h-10q-54 0 -112 19.5t-116 47.5t-124 56.5t-161.5 49.5t-203.5 24l-104 2v-557h317q48 0 81.5 2.5t67.5 11.5t57 25t41.5 43.5t29.5 66.5h20v-354h-20q-9 37 -22.5 63.5t-34.5 43.5t-40.5 27t-52.5 14.5t-58 5.5t-69 1 h-317v-737q98 3 194.5 23t172 47t145.5 53.5t142 44.5t136 18q47 0 72 -2v-231q-102 33 -249 34h-16q-142 0 -326 -16q-194 -17 -271 -18h-227z" />
<glyph unicode="F" horiz-adv-x="1114" d="M70 0v1438h227q100 0 221 -10q120 -10 198 -18q48 -5 102 -5q34 0 70 2q94 5 173 31v-252h-10q-46 0 -105 20.5t-124 49.5t-139.5 59t-176.5 52t-209 24v-557h133q218 0 323 27.5t119 103.5h21v-318h-21q-14 86 -114 111.5t-328 25.5h-133v-784h-227z" />
<glyph unicode="G" horiz-adv-x="1449" d="M59 715q0 352 194 553.5t511 201.5q80 0 176.5 -16.5t161.5 -31.5q60 -14 129 -14h9q74 1 130 30v-293h-14q-46 0 -90 16q-52 19 -91 50t-84 68t-86 69t-97 53.5t-115 21.5q-144 0 -260 -96.5t-181 -261.5t-65 -365q0 -151 43 -277.5t116.5 -210t171 -129.5t207.5 -46 q69 0 140 12.5t107 23.5t91 31v363q0 94 -20.5 153t-73.5 93v39h305v-693q-88 -3 -187 -27t-206 -45.5t-223 -21.5q-105 0 -204.5 28t-190 88.5t-158 147t-107 212t-39.5 274.5z" />
<glyph unicode="H" horiz-adv-x="1292" d="M70 0v1438h227v-619h698v619h228v-1438h-228v774h-698v-774h-227z" />
<glyph unicode="I" horiz-adv-x="366" d="M70 0v1438h227v-1438h-227z" />
<glyph unicode="J" horiz-adv-x="1060" d="M-12 0v227h10q56 0 111 -23t99.5 -55.5t88.5 -64.5t94.5 -55t100.5 -23q110 0 187 101.5t77 267.5v1063h227v-998q0 -128 -40 -222.5t-110.5 -147.5t-155 -78t-185.5 -25q-66 0 -147 11.5t-133.5 22t-119.5 13.5h-19q-54 0 -85 -14z" />
<glyph unicode="K" horiz-adv-x="1251" d="M70 0v1438h227v-934l514 549q53 57 78.5 126t41 143.5t36.5 115.5h268l-485 -512h120l439 -926h-228l-403 852l-381 -401v-451h-227z" />
<glyph unicode="L" horiz-adv-x="1026" d="M70 0v1438h227v-1391h143q80 0 156 20t132 48.5t105 56.5t96 48t85 20v-240h-944z" />
<glyph unicode="M" horiz-adv-x="1593" d="M25 2q43 109 82 270t45 265l47 901h184l426 -1323l436 1323h170l141 -1438h-227l-117 1188l-393 -1188h-194l-387 1212l-39 -675v-43q0 -279 73 -494z" />
<glyph unicode="N" horiz-adv-x="1304" d="M78 0q45 199 63.5 375.5t18.5 498.5v476l-56 88h238l848 -1301v383q0 161 -10 301.5t-29.5 257.5t-36 190.5t-41.5 170.5l250 -2q-41 -150 -63.5 -350t-22.5 -531v-557h-190l-838 1272v-463q0 -71 3.5 -140t7.5 -120.5t13.5 -114t15 -97.5t19 -95t19 -81.5t21.5 -84 t20 -76.5h-250z" />
<glyph unicode="O" horiz-adv-x="1480" d="M59 711q0 107 24.5 212t79 204.5t132 175t192.5 121.5t252 46t252.5 -46t193.5 -121.5t132.5 -175t79 -204.5t24.5 -212q0 -151 -45.5 -285t-130 -236.5t-215.5 -162.5t-291 -60t-290.5 60t-214.5 162.5t-129.5 236.5t-45.5 285zM287 711q0 -92 16 -186.5t52 -187 t87.5 -164t128.5 -115.5t168 -44q97 0 176.5 44.5t130 115t85 164t49 186.5t14.5 187q0 90 -14.5 183.5t-49 190t-85 170.5t-130 121t-176.5 47q-103 0 -184 -47.5t-130 -120.5t-81.5 -170.5t-44.5 -189t-12 -184.5z" />
<glyph unicode="P" horiz-adv-x="1118" d="M70 0v1438h501q128 0 229 -34.5t164.5 -95t96.5 -140.5t33 -173q0 -197 -129.5 -334t-317.5 -137q-100 0 -189.5 40.5t-152.5 119.5h-8v-684h-227zM297 745q111 -129 254 -129q77 0 140.5 31.5t104 84t62 118.5t21.5 137q0 77 -25.5 147.5t-74 128.5t-130 93t-184.5 35 h-168v-646z" />
<glyph unicode="Q" horiz-adv-x="1480" d="M59 711q0 107 24.5 212t79 204.5t132 175t192.5 121.5t252 46t252.5 -46t193.5 -121.5t132.5 -175t79 -204.5t24.5 -212q0 -185 -64 -340.5t-193.5 -262t-305.5 -131.5q52 -13 115.5 -47.5t124 -59t125.5 -24.5q70 0 153 29v-235q-60 -13 -102 -13q-70 0 -124.5 19 t-89.5 48.5t-63 66t-53 73t-51.5 66t-65 48.5t-88.5 19q-160 0 -290.5 60t-214.5 162.5t-129.5 236.5t-45.5 285zM287 711q0 -92 16 -186.5t52 -187t87.5 -164t128.5 -115.5t168 -44q97 0 176.5 44.5t130 115t85 164t49 186.5t14.5 187q0 90 -14.5 183.5t-49 190t-85 170.5 t-130 121t-176.5 47q-103 0 -184 -47.5t-130 -120.5t-81.5 -170.5t-44.5 -189t-12 -184.5z" />
<glyph unicode="R" horiz-adv-x="1220" d="M70 0v1438h643q104 0 187.5 -35.5t135 -94.5t78.5 -132t27 -152q0 -90 -35 -170.5t-108.5 -140t-174.5 -76.5q11 -47 53 -107t94.5 -120t105.5 -124t94 -139.5t51 -146.5h-256q-11 72 -53.5 158.5t-89 155t-91.5 151.5t-59 147h-375v-612h-227zM297 662h303q101 0 176 55 t110.5 137.5t35.5 177.5q0 68 -20.5 131.5t-60 114.5t-104 82t-145.5 31h-295v-729z" />
<glyph unicode="S" horiz-adv-x="1228" d="M45 1155q3 101 83 174.5t196.5 107t250.5 33.5q77 0 150 -12t119 -25t92 -23q28 -6 55 -5q17 0 33 2q42 6 88 31v-250h-10q-46 0 -91 25t-86 60.5t-87.5 71t-114 60.5t-145.5 25q-76 0 -144.5 -18t-119 -62.5t-50.5 -108.5t49.5 -122t129 -104.5t176 -93t194 -98.5 t178.5 -109t134 -135.5t57 -168.5q0 -9 1 -18q0 -122 -76 -218q-81 -104 -209.5 -156.5t-274.5 -52.5q-85 0 -183.5 15.5t-161.5 29.5q-61 14 -120 15q-2 -1 -4 -1q-61 0 -97 -26v250h11q56 0 111 -25t103 -61t97.5 -72t113 -61t130.5 -25q165 0 265 86q93 80 94 189 q0 9 -1 18q-4 63 -39.5 119.5t-91.5 101t-127 86t-148 79t-154 75.5t-145.5 80.5t-121.5 88.5q-52 47 -82 105q-28 55 -27 115v8z" />
<glyph unicode="T" horiz-adv-x="1148" d="M-82 1229l23 209h1237l24 -209h-26q-32 0 -71.5 25.5t-73.5 55.5t-90 55.5t-116 25.5h-151v-1391h-228v1391h-151q-61 0 -108.5 -16.5t-76 -40.5t-53 -48t-52.5 -40.5t-60 -16.5h-27z" />
<glyph unicode="U" horiz-adv-x="1308" d="M70 604v834h229v-1012q0 -109 29 -191t80 -128.5t111.5 -68.5t131.5 -22q70 0 130 22t110 68.5t79 128.5t29 191v1012h228v-834q0 -155 -43.5 -277.5t-121 -200t-182 -117.5t-229.5 -40t-230 40t-184 117.5t-123 200t-44 277.5z" />
<glyph unicode="V" horiz-adv-x="1073" d="M-84 1438h227l457 -1383h4l227 666q43 125 60 251q13 99 13 167v33q-4 76 -13.5 159.5t-9.5 106.5h247l-204 -600l-289 -838h-244z" />
<glyph unicode="W" horiz-adv-x="1755" d="M-111 1438h228l458 -1389l277 803l-195 586h228l456 -1383h5l229 666q43 125 59 251q13 100 13 168q0 16 -1 32q-4 76 -13 159.5t-9 106.5h246l-205 -600l-289 -838h-243l-256 776l-269 -776h-243z" />
<glyph unicode="X" horiz-adv-x="1134" d="M-135 0l606 684l-557 754h227l482 -647l151 163q41 46 74.5 89.5t56 77t40 69.5t27 59t17.5 54.5t10.5 47t6.5 46t6 41.5h258l-623 -684l559 -754h-227l-481 647l-148 -164q-60 -67 -102.5 -135.5t-67.5 -140t-34.5 -107t-22.5 -100.5h-258z" />
<glyph unicode="Y" horiz-adv-x="923" d="M-147 1438h227l440 -756l131 213q54 88 85.5 176.5t39.5 137.5t13 129t8 100h227l-485 -803v-635h-228v635z" />
<glyph unicode="Z" horiz-adv-x="1368" d="M25 0l1003 1391h-88q-114 0 -242.5 -30.5t-225 -67t-217.5 -67t-222 -30.5v242q96 -34 225 -42q52 -3 101 -4q71 0 133 7q106 11 241.5 25t214.5 14h357l-996 -1391h148q113 0 235 28.5t212 62.5t209 62.5t226 28.5v-229q-95 30 -219 36q-50 3 -97 3q-69 1 -127 -5 q-100 -10 -230 -22t-209 -12h-432z" />
<glyph unicode="[" horiz-adv-x="591" d="M63 -289v1866h465v-43h-237v-1780h237v-43h-465z" />
<glyph unicode="\" horiz-adv-x="716" d="M63 1581h56l532 -1876h-53z" />
<glyph unicode="]" horiz-adv-x="591" d="M63 -246h238v1780h-238v43h465v-1866h-465v43z" />
<glyph unicode="^" horiz-adv-x="1028" d="M63 707l451 675h8l443 -675h-47l-400 608l-407 -608h-48z" />
<glyph unicode="_" horiz-adv-x="905" d="M63 -14h779v-47h-779v47z" />
<glyph unicode="a" horiz-adv-x="1191" d="M70 311q0 46 12.5 89t30 77t50.5 70.5t60.5 61t75.5 57.5t78.5 52t85.5 52q56 35 79.5 49.5t72.5 47.5t74.5 56t59.5 56t56 67t37 72q-50 60 -129 60q-52 0 -102.5 -25t-92.5 -60.5t-84.5 -71t-93 -60.5t-102.5 -25v229q42 -10 73 -10q72 0 211 31t228 31 q59 0 111.5 -10.5t101 -35t83.5 -62t55.5 -95.5t20.5 -131v-883h-227v193q-67 -102 -177.5 -165t-228.5 -63q-110 0 -204 39t-154.5 119.5t-60.5 187.5zM297 344q0 -145 74.5 -225t185.5 -80q95 0 187.5 57t150.5 160v692q0 81 -33 142l2 -9q-23 -52 -54.5 -97t-79.5 -90.5 t-74 -67t-87 -70.5q-55 -43 -84.5 -67.5t-71.5 -67.5t-63 -79t-37 -88t-16 -110z" />
<glyph unicode="b" horiz-adv-x="1257" d="M100 0v1438h228v-586h6q85 184 190 274.5t238 90.5q122 0 223 -70.5t163 -206t62 -311.5q0 -192 -60 -341t-179.5 -236t-282.5 -87q-60 0 -126 16.5t-113 36t-102 36t-95 16.5q-41 0 -71 -15.5t-62 -54.5h-19zM328 129q179 -102 315 -102q168 0 254 154t86 448 q0 239 -73 366t-210 127q-105 0 -201.5 -101.5t-170.5 -297.5v-594z" />
<glyph unicode="c" horiz-adv-x="1116" d="M47 616q0 133 32.5 238.5t84.5 171.5t123.5 109.5t144 61t150.5 17.5q61 0 115.5 -12t94 -28t78 -31t86.5 -23q27 -5 56 -5q22 0 45 3v-215h-29q-35 0 -64 14.5t-50 38t-41 51.5t-43 56t-50 51.5t-68 38t-91 14.5q-46 0 -93.5 -21.5t-93 -67.5t-80.5 -110t-55 -158 q-18 -85 -18 -182v-20q4 -253 116 -421.5t271 -168.5q54 0 102 28t83.5 68.5t68.5 80.5t72 68t81 28v-225q-12 2 -24 2q-44 0 -99 -20q-70 -24 -155 -52.5t-164 -28.5q-112 0 -217 46t-187.5 127.5t-132 205.5t-49.5 270z" />
<glyph unicode="d" horiz-adv-x="1230" d="M47 569q0 156 44.5 281t122 204.5t180 122t220.5 42.5q149 0 306 -66v285h227v-1438l-225 2v317h-7q-58 -173 -167 -261.5t-238 -88.5q-70 0 -137 25.5t-126 77t-103.5 122t-70.5 168t-26 207.5zM274 580q0 -117 26 -209t70 -148t98.5 -85t115.5 -29q120 0 218 101 t120 275l-2 615q-108 57 -228 57q-181 0 -299.5 -149.5t-118.5 -427.5z" />
<glyph unicode="e" horiz-adv-x="1269" d="M47 625q0 143 51 257t141 186.5t211.5 110.5t264.5 38q236 0 364.5 -96.5t128.5 -233.5q0 -86 -39.5 -155t-106.5 -112t-148 -66.5t-169 -25.5h-1h-1h-1h-1h-1h-1h-1h-1h-1h-1h-1h-2q-154 -5 -207 -20q-79 -23 -118 -100l-8 -17l-37 84q8 24 21.5 41t34.5 27t41 15.5 t53.5 7.5t58 2t69 -0.5t73.5 -0.5q60 2 107 20t77 47t49 70.5t27 86t8 96.5q0 57 -13.5 104.5t-44 88.5t-86 64t-132.5 23q-121 0 -219.5 -71t-155 -197t-56.5 -281q0 -116 30 -217t78 -170t109 -118.5t123 -73t119 -23.5q54 0 102.5 21.5t82 53t69.5 69t66 69t72 53 t87 21.5v-227q-35 7 -63 7q-18 0 -32 -3q-38 -7 -90.5 -25.5t-97.5 -38.5t-115 -35.5t-144 -15.5q-96 0 -186 25.5t-169.5 80t-139 131t-94 185.5t-34.5 238z" />
<glyph unicode="f" horiz-adv-x="634" d="M-16 1137v47h219q-62 56 -101.5 120t-53.5 123q-8 37 -8 72q0 21 3 41q8 55 36 95.5t78 64.5t115 24q44 0 92 -16t85 -32.5t78 -27.5q21 -6 43 -6q21 0 44 5q45 11 93 49h18v-248h-16q-8 -1 -16 -1q-46 0 -89 19q-50 23 -89.5 57.5t-77.5 70t-83 60.5t-90 25 q-85 0 -95 -79q-1 -10 -1 -20q0 -83 74 -198q72 -112 184 -198h262v-47h-258v-1137h-227v1137h-219z" />
<glyph unicode="g" horiz-adv-x="1249" d="M35 -172h10q43 0 90.5 -20.5t89 -51.5t93.5 -67.5t101.5 -67.5t115 -51.5t133.5 -20.5q133 0 219 72t86 168q0 50 -26 86t-68.5 53.5t-98.5 27.5q-48 9 -99 9q-7 0 -15 -1q-59 -1 -117 -3q-38 -3 -73 -3q-105 0 -185 25q-107 33 -107 101q0 62 69 100.5t165 38.5 q-170 52 -270.5 177t-100.5 302q0 121 41 219.5t113 161.5t167 97t205 34q126 0 236 -40h8q41 0 77 18q41 20 70 51.5t53 74.5t38 82t24 79l158 -117q-23 -39 -53 -72.5t-73 -66.5t-102 -51q-56 -17 -119 -17h-7q153 -60 242 -179.5t89 -279.5q0 -239 -148.5 -373.5 t-408.5 -134.5q-69 0 -159 17q-73 -1 -113.5 -28t-40.5 -62q0 -37 36.5 -64.5t115.5 -40.5q31 -5 68 -5q60 0 138 13q99 17 179 17q58 0 106 -9q112 -22 165.5 -74t53.5 -128q0 -82 -52.5 -146.5t-136.5 -101t-176 -54.5t-184 -18q-75 0 -166.5 19t-155.5 38t-147 29 q-30 4 -57 4q-48 0 -86 -12h-10v246zM274 707q15 -142 84 -251t163.5 -163.5t195.5 -54.5q150 0 225 127q55 95 55 224q0 44 -6 91q-15 143 -85 254t-166 167t-197 56q-99 0 -166.5 -61.5t-93.5 -163.5q-16 -61 -16 -130q0 -46 7 -95z" />
<glyph unicode="h" horiz-adv-x="1320" d="M100 0v1438h228v-547q62 81 144.5 148t170.5 111q87 46 175 58q32 5 63 5q52 -1 98 -15q73 -22 125.5 -94.5t69.5 -190.5l131 -913h-228l-123 874q-16 108 -67 164t-121 58h-6q-67 0 -142 -32q-79 -32 -155 -96.5t-135 -144.5v-823h-228z" />
<glyph unicode="i" horiz-adv-x="432" d="M100 1540q0 52 36 88.5t87 36.5q53 0 89 -36.5t36 -88.5t-36 -88.5t-89 -36.5q-51 0 -87 36.5t-36 88.5zM111 0v1184h227v-1184h-227z" />
<glyph unicode="j" horiz-adv-x="456" d="M-530 -238q39 7 79 7q31 0 63 -5q72 -9 120 -26t114.5 -33t126.5 -16q79 0 116.5 47t37.5 164v1284h227v-1217q0 -183 -100 -263q-81 -64 -212 -64q-31 0 -65 4q-75 8 -142 8q-210 0 -347 -74h-18v184zM109 1540q0 56 38 94.5t93 38.5q56 0 94.5 -38.5t38.5 -94.5 q0 -55 -38.5 -93t-94.5 -38t-93.5 37.5t-37.5 93.5z" />
<glyph unicode="k" horiz-adv-x="1095" d="M100 0v1438h228v-813l209 178q81 69 130.5 122t72.5 98.5t29.5 79t6.5 81.5h264l-436 -373h166l307 -811h-239l-287 764l-223 -191v-573h-228z" />
<glyph unicode="l" horiz-adv-x="411" d="M100 0v1438h228v-1438h-228z" />
<glyph unicode="m" horiz-adv-x="2113" d="M100 0v1184h228v-363q109 192 262 295t297 103t226.5 -92.5t82.5 -270.5q107 176 254.5 269.5t286.5 93.5q134 0 220.5 -86t86.5 -240v-893h-227v922q0 99 -49 149.5t-128 50.5q-110 0 -236.5 -95t-207.5 -255v-772h-227v872q0 122 -51 184t-132 62q-111 0 -240.5 -103.5 t-217.5 -275.5v-739h-228z" />
<glyph unicode="n" horiz-adv-x="1343" d="M100 0v1184h228v-289q93 135 244.5 224t291.5 89q118 0 201.5 -72.5t108.5 -222.5l153 -913h-227l-142 852q-22 126 -80.5 186t-140.5 60q-100 0 -213.5 -79t-195.5 -198v-821h-228z" />
<glyph unicode="o" d="M47 590q0 293 158.5 460t425.5 167q266 0 423.5 -164.5t157.5 -452.5q0 -307 -155.5 -471t-425.5 -164t-427 162.5t-157 462.5zM258 723q0 -123 31.5 -247.5t86 -227.5t138 -167.5t178.5 -64.5q97 0 170 63.5t108.5 163t35.5 218.5q0 161 -54.5 320.5t-159.5 270.5 t-233 111q-99 0 -169 -63t-101 -160t-31 -217z" />
<glyph unicode="p" d="M100 -346v1530h228v-273q90 152 209.5 226.5t244.5 74.5q87 0 165.5 -38.5t138.5 -108.5t94 -177q34 -103 34 -226v-7q-2 -128 -34.5 -239t-87.5 -191.5t-127.5 -138.5t-155 -86.5t-168.5 -28.5q-178 0 -313 117v-434h-228zM328 162q125 -107 260 -107q167 0 283 149.5 t116 399.5q0 236 -84.5 366t-212.5 130q-93 0 -188 -70t-174 -207v-661z" />
<glyph unicode="q" horiz-adv-x="1267" d="M47 596q0 163 42 287t113 194.5t155.5 105t179.5 34.5q56 0 123 -19.5t119 -43t115 -43t110 -19.5q110 0 157 92h10l-2 -1530h-227v522q-92 -97 -206 -154t-226 -57q-132 0 -237.5 79.5t-165.5 224t-60 327.5zM274 596q0 -265 95 -404t241 -139q83 0 170 46t162 134v809 q-51 6 -106 30.5t-107.5 45.5t-103.5 21q-52 0 -99.5 -15t-94.5 -53.5t-81 -98t-55 -156t-21 -220.5z" />
<glyph unicode="r" horiz-adv-x="1005" d="M100 0v1184h228v-363q134 396 407 396q60 0 141.5 -16.5t131.5 -16.5v-228q-36 0 -72 15t-67 37t-62.5 44t-70.5 38t-79 18q-57 0 -108 -31t-84.5 -74.5t-63 -105t-45 -107t-28.5 -94.5v-696h-228z" />
<glyph unicode="s" horiz-adv-x="1105" d="M49 0v233q65 0 129.5 -23t119 -56t109 -66.5t120 -56.5t130.5 -23q62 0 118.5 22.5t97 73.5t40.5 121q0 59 -47 110t-122 90t-166 76.5t-182 79t-166 88.5t-122 113.5t-47 145.5q0 73 34 128.5t82.5 85t114 47.5t115 23t99.5 5q92 0 239.5 -27t204.5 -27q52 0 90 13v-228 h-18q-39 0 -77 17t-68 42.5t-70 55.5t-80.5 55.5t-102 42.5t-132.5 17q-28 0 -60 -4t-70 -15.5t-68 -29t-50.5 -47.5t-20.5 -68q0 -54 47 -101.5t121.5 -85.5t165 -76t181 -81t165 -93t121.5 -120.5t47 -153.5q0 -85 -33.5 -151.5t-91 -106.5t-128 -60t-150.5 -20 q-116 0 -257.5 30t-199.5 30q-77 0 -162 -25z" />
<glyph unicode="t" horiz-adv-x="854" d="M8 1151v33q157 0 231 107.5t85 320.5h32l2 -428h287v-47h-287v-889q0 -111 36 -175.5t100 -64.5q45 0 83 30t67 73.5t58 86.5t68.5 73t85.5 30v-233q-15 3 -31 3q-27 0 -59 -9q-48 -14 -88 -36t-101.5 -41.5t-123.5 -19.5q-108 0 -182.5 49t-107 125.5t-32.5 173.5v731 q0 55 -26.5 77t-96.5 30z" />
<glyph unicode="u" horiz-adv-x="1196" d="M78 324v860h227v-908q0 -138 67 -199t173 -61t219 45q87 35 121 35h6v1086h227v-1182h-41q-59 76 -129 76q-49 0 -143 -41q-57 -22 -89.5 -33.5t-95.5 -24t-124 -12.5q-185 0 -301.5 98t-116.5 261z" />
<glyph unicode="v" horiz-adv-x="1062" d="M-45 1184h227l416 -1071l215 559l18 512h232l-457 -1184h-196z" />
<glyph unicode="w" horiz-adv-x="1867" d="M-45 1184h225l379 -973l225 584q50 129 57 236q1 18 1 34q0 81 -29 121h215l395 -1016l224 578q44 116 58 242q6 53 6 97q0 58 -11 97h168l-459 -1184h-149l-365 950l-367 -950h-116z" />
<glyph unicode="x" horiz-adv-x="1167" d="M-78 0l574 565l-498 619h246l413 -520l103 104q83 85 133 144.5t73 106.5t29 72.5t11 73.5q0 4 0.5 6.5t1 6t0.5 6.5h229l-555 -551l504 -633h-236l-432 537l-121 -121q-73 -73 -120 -128t-73 -91t-38 -73.5t-14 -59t-2 -64.5h-228z" />
<glyph unicode="y" horiz-adv-x="1032" d="M-178 -164q54 0 107 -20.5t98 -51t88.5 -61.5t96 -57.5t103.5 -34.5q16 -2 32 -2q84 0 141 47q67 54 76 156q1 12 1 25q0 94 -55 220l-514 1127h227l457 -1004l135 387q37 102 51 224q8 80 8 151q0 37 -2 70q-7 100 -28 172h239l-376 -1075q23 -87 23 -162 q0 -71 -20 -131q-43 -123 -148 -191q-96 -62 -214 -62q-12 0 -24 1q-54 2 -128.5 19t-128.5 31.5t-125 20.5q-17 1 -32 1q-51 0 -88 -15v215z" />
<glyph unicode="z" horiz-adv-x="1089" d="M23 0l808 1135h-245q-73 0 -136 -19.5t-107.5 -47.5t-86 -56.5t-91 -48t-102.5 -19.5v240q78 -26 164.5 -26t205 13t198.5 13h461l-807 -1133h262q87 1 158 21t117 47.5t86 55t84 46.5t91 19v-240q-79 24 -163 26h-18q-78 0 -186 -12q-120 -12 -184 -14h-509z" />
<glyph unicode="{" horiz-adv-x="808" d="M63 664q40 20 54 67t14 131q0 156 35 279t93 201t138.5 129.5t166 72.5t181.5 21v-47q-24 0 -54.5 -6t-71.5 -23.5t-80.5 -43.5t-78.5 -70t-68.5 -99.5t-47.5 -136t-18 -174.5q0 -246 -80 -301q80 -55 80 -293q0 -94 18 -175t47.5 -137t68.5 -101t78.5 -72t80.5 -45 t72 -24.5t54 -6.5v-48q-96 0 -181.5 21t-166 72.5t-138.5 129.5t-93 201t-35 279q0 84 -14 131.5t-54 67.5z" />
<glyph unicode="|" horiz-adv-x="176" d="M63 -135v1710h48v-1710h-48z" />
<glyph unicode="}" horiz-adv-x="808" d="M63 -190q23 0 54 6.5t72 24.5t81 45t79.5 72t69 101t48 137t18.5 175q0 239 78 293q-78 54 -78 301q0 94 -18.5 174.5t-48 136t-69 99.5t-79 70t-81 43.5t-72 23.5t-54.5 6v47q97 0 182.5 -21t166 -72.5t138.5 -129.5t93 -201t35 -279q0 -85 13.5 -131.5t53.5 -66.5 q-40 -20 -53.5 -67t-13.5 -132q0 -156 -35 -279t-93 -201t-138.5 -129.5t-166 -72.5t-182.5 -21v48z" />
<glyph unicode="~" horiz-adv-x="1120" d="M63 518q0 150 70 241t168 91q44 0 107.5 -27.5t128.5 -66.5t129.5 -78t128 -66.5t106.5 -27.5q107 0 107 174h49q0 -70 -11.5 -129.5t-37 -109.5t-72 -76.5t-109.5 -22.5q-59 4 -131 33.5t-137.5 68.5t-128.5 77.5t-121 64.5t-98 26q-100 0 -100 -172h-48z" />
<glyph unicode="&#xa1;" horiz-adv-x="366" d="M63 1188q0 51 34.5 86t84.5 35q51 0 86 -35t35 -86q0 -50 -35 -84.5t-86 -34.5q-50 0 -84.5 34.5t-34.5 84.5zM70 -63q0 86 14 189.5t30 193t30 248t14 341.5h47q0 -183 14.5 -341.5t31.5 -248t31.5 -193t14.5 -189.5q0 -60 -34.5 -93.5t-80.5 -33.5q-45 0 -78.5 34 t-33.5 93z" />
<glyph unicode="&#xa2;" horiz-adv-x="1198" d="M63 616q0 133 34 238.5t89 171.5t130 109.5t150 61t155 17.5q38 0 96 -8l63 267h47l-65 -277q34 -10 91.5 -36t106.5 -37t113 -5v-215h-31q-39 0 -70.5 18.5t-55 48t-45.5 61.5t-53.5 64t-67.5 50l-246 -1020q102 -82 219 -82q233 0 373 274l39 -14q-49 -112 -129 -189 t-169.5 -112t-187.5 -35q-83 0 -176 27l-78 -322h-49l82 338q-164 69 -264.5 227.5t-100.5 378.5zM291 614q4 -144 50.5 -260.5t121.5 -193.5l242 999q-27 8 -68 8q-34 0 -70 -10.5t-77.5 -33.5t-77 -66t-64.5 -101t-44.5 -146.5t-12.5 -195.5z" />
<glyph unicode="&#xa3;" horiz-adv-x="1271" d="M63 596v47h181v145q0 169 110 320t293 240.5t387 89.5v-228q-41 14 -81 25.5t-97 22t-106 12t-100 -10t-86.5 -38t-58 -77.5t-22.5 -124v-377h275v-47h-275v-317q0 -66 -20.5 -131t-67.5 -101h320q80 0 147 18.5t111 45t81.5 53t76 45t77.5 18.5v-227h-1069q59 76 82 144 t23 165v287h-181z" />
<glyph unicode="&#xa4;" horiz-adv-x="976" d="M63 252l113 127q-106 115 -106 276q0 160 104 277l-111 125l35 30l109 -122q123 102 276 102q162 0 281 -109l115 129l34 -30l-116 -131q98 -116 98 -271q0 -150 -98 -272l116 -131l-34 -31l-115 129q-121 -108 -281 -108q-157 0 -274 104l-111 -125zM143 655 q0 -139 100.5 -239.5t239.5 -100.5t239.5 100.5t100.5 239.5t-100.5 239.5t-239.5 100.5t-239.5 -100.5t-100.5 -239.5z" />
<glyph unicode="&#xa5;" horiz-adv-x="1298" d="M63 1438h228l440 -756l131 213q54 88 85.5 176.5t39.5 137.5t13 129t8 100h227l-471 -781h264v-43h-278v-161h278v-43h-278v-410h-228v410h-246v43h246v161h-246v43h234z" />
<glyph unicode="&#xa6;" horiz-adv-x="176" d="M63 -127v700h48v-700h-48zM63 872v703h48v-703h-48z" />
<glyph unicode="&#xa7;" horiz-adv-x="1148" d="M63 -10q76 17 128.5 9.5t113.5 -34.5t109 -56t113.5 -54t127.5 -29q66 -5 127 17t103.5 75.5t42.5 126.5q0 60 -47 108.5t-122 82t-166 64t-182 62t-166 67t-122 87t-47 115.5q0 219 241 284q-113 41 -177 100.5t-64 151.5q0 57 17.5 103.5t46 77.5t68.5 54.5t79.5 36.5 t85 21t79.5 10.5t68 2.5q77 0 162.5 -12.5t139 -25t122 -19.5t111.5 5v-227h-19q-33 0 -64.5 18t-57 44.5t-63.5 57.5t-80 57.5t-111.5 44.5t-153.5 18q-36 0 -77.5 -7.5t-86.5 -24t-74.5 -51t-29.5 -81.5q0 -43 29 -77t78 -57t112.5 -43t134 -38.5t140.5 -39t133.5 -48.5 t112.5 -63t78 -87.5t29 -116.5q0 -112 -51.5 -188t-142.5 -115q194 -101 194 -266q0 -75 -24 -136t-65 -102t-97.5 -67.5t-120.5 -36.5t-135 -6q-71 2 -153 17.5t-136.5 28.5t-132.5 12.5t-158 -25.5v174zM238 735q0 -48 33.5 -86t98 -66.5t129 -49t158 -48.5t152.5 -51 q119 61 119 182q0 35 -15.5 64t-47 51.5t-66 39.5t-87 33t-95.5 27.5t-105.5 27.5t-103.5 28q-72 -16 -121 -53t-49 -99z" />
<glyph unicode="&#xa9;" horiz-adv-x="1593" d="M63 719q0 151 55 287t151 235.5t233.5 158t294.5 58.5q209 0 378 -99.5t262 -268t93 -371.5t-93 -371.5t-262 -268t-378 -99.5q-157 0 -294.5 58.5t-233.5 158t-151 235.5t-55 287zM111 719q0 -190 87 -348t245 -251t354 -93q197 0 355 93t244.5 251t86.5 348t-86.5 348 t-244.5 251t-355 93q-196 0 -354 -93t-245 -251t-87 -348zM463 735q0 106 32.5 184.5t86.5 120t113.5 61t125.5 19.5q59 0 107 -18.5t90 -33.5t94 -9v-139h-18q-30 0 -54 17.5t-41.5 42.5t-37 50t-53 42.5t-77.5 17.5q-27 0 -55 -9t-60 -34t-56 -63t-39 -103t-13 -148 q6 -163 89 -265.5t192 -102.5q149 0 237 178l27 -11q-49 -106 -132.5 -160.5t-180.5 -54.5q-158 0 -267.5 115t-109.5 303z" />
<glyph unicode="&#xaa;" horiz-adv-x="655" d="M37 961q0 30 7.5 57t26.5 51.5t34 41t47.5 39.5t49 34t56.5 35q56 34 89 56.5t70.5 61t53.5 78.5q-30 33 -74 33q-35 0 -70.5 -21t-61.5 -46.5t-62.5 -46.5t-71.5 -21v127q28 -4 41 -4q40 0 118.5 17t129.5 17q90 0 149.5 -45t59.5 -143v-496h-129v109q-37 -58 -99 -93.5 t-129 -35.5q-96 0 -165.5 52.5t-69.5 142.5zM164 979q0 -81 42 -125.5t105 -44.5q53 0 104.5 31.5t84.5 89.5v389q0 42 -17 76q-17 -39 -49 -76.5t-52 -55t-65 -53.5q-39 -30 -59 -47.5t-46 -47t-37 -63t-11 -73.5z" />
<glyph unicode="&#xab;" horiz-adv-x="1179" d="M63 655v9l676 442v-47l-606 -402l606 -405v-47zM440 655v9l676 442v-47l-606 -402l606 -405v-47z" />
<glyph unicode="&#xad;" horiz-adv-x="577" d="M63 596v49h451v-49h-451z" />
<glyph unicode="&#xae;" horiz-adv-x="1058" d="M63 991q0 196 132.5 331.5t332.5 135.5q133 0 240.5 -63t167 -169.5t59.5 -234.5q0 -195 -133 -330t-334 -135q-200 0 -332.5 135.5t-132.5 329.5zM109 991q0 -113 54 -209t151 -153.5t214 -57.5q118 -1 216 56.5t152.5 154t53.5 209.5q0 174 -121.5 298t-300.5 124 q-178 0 -298.5 -124t-120.5 -298zM344 750v499h221q71 0 109.5 -42t38.5 -101q0 -49 -28 -87t-81 -48q6 -24 38 -61.5t62.5 -79.5t36.5 -80h-84q-6 39 -50.5 110t-51.5 103h-135v-213h-76zM420 979h108q54 0 83.5 38.5t29.5 90.5t-30.5 88.5t-86.5 36.5h-104v-254z" />
<glyph unicode="&#xb0;" horiz-adv-x="634" d="M63 1229q0 117 75.5 182.5t178.5 65.5t178.5 -65.5t75.5 -182.5q0 -118 -75.5 -184t-178.5 -66t-178.5 66t-75.5 184zM109 1229q0 -98 61.5 -152.5t144.5 -54.5q86 0 148.5 55t62.5 152t-62 151t-147 54t-146.5 -54t-61.5 -151z" />
<glyph unicode="&#xb1;" horiz-adv-x="878" d="M63 102v48h752v-48h-752zM63 610v47h353v353h47v-353h352v-47h-352v-352h-47v352h-353z" />
<glyph unicode="&#xb2;" horiz-adv-x="743" d="M63 717v45q0 68 26 125t68 95t96 70.5t110.5 53.5t110.5 42.5t96 38.5t68 40.5t26 50.5q0 46 -40.5 70.5t-101.5 26t-133 -6.5q-57 -6 -150.5 -42t-136.5 -36v125q70 -9 106 -2t108 20t135 13t110 -17t71.5 -44.5t36 -57t11.5 -59.5q0 -58 -32.5 -105.5t-84 -79t-114 -59 t-125 -53.5t-114 -54t-84 -68t-32.5 -89v-19h154q80 0 165 24t149.5 46t101.5 20v-112q-35 11 -91 13t-106.5 -1.5t-115.5 -8.5t-103 -5h-185z" />
<glyph unicode="&#xb3;" horiz-adv-x="704" d="M63 719v115q37 0 77 -16.5t70.5 -37t75 -37t89.5 -16.5q83 0 131.5 44.5t48.5 107.5q0 73 -63.5 139.5t-188.5 101.5l217 219h-401v99h495v-35l-204 -217q117 -32 174 -96.5t57 -141.5q0 -96 -78 -169.5t-196 -73.5q-42 0 -92.5 6.5t-84.5 12.5t-69 6t-58 -11z" />
<glyph unicode="&#xb6;" horiz-adv-x="1122" d="M63 1049q0 76 26.5 145t77 124.5t132 88.5t182.5 33h578v-58h-141v-1566h-87v1566h-129v-1566h-84v821q-111 0 -204 23.5t-157 63t-108.5 92.5t-65 112t-20.5 121z" />
<glyph unicode="&#xb7;" horiz-adv-x="368" d="M100 530q0 51 35 86t86 35t86 -35t35 -86t-35 -85.5t-86 -34.5t-86 34.5t-35 85.5z" />
<glyph unicode="&#xb9;" horiz-adv-x="350" d="M51 1303v28l172 105h51v-719h-112v655z" />
<glyph unicode="&#xba;" horiz-adv-x="706" d="M27 1118q0 166 88.5 260.5t238.5 94.5q151 0 240.5 -93t89.5 -256q0 -172 -88.5 -265t-241.5 -93q-152 0 -239.5 91.5t-87.5 260.5zM145 1194q0 -93 29.5 -183t87 -152t127.5 -62q83 0 130.5 72.5t47.5 177.5q0 91 -30.5 181t-90 152t-131.5 62q-83 0 -126.5 -71.5 t-43.5 -176.5z" />
<glyph unicode="&#xbb;" horiz-adv-x="1179" d="M63 205v47l609 405l-609 402v47l676 -442v-9zM440 205v47l609 405l-609 402v47l676 -442v-9z" />
<glyph unicode="&#xbc;" horiz-adv-x="1310" d="M51 1303v28l172 105h51v-719h-112v655zM104 0l848 1438h47l-847 -1438h-48zM668 14v115q46 0 96 -26.5t104.5 -53t110.5 -26.5q83 0 131.5 44t48.5 107q0 73 -63.5 140t-186.5 102l215 219h-401v98h496v-35l-205 -217q117 -32 175 -96t58 -141q0 -96 -79 -170t-197 -74 q-41 0 -91.5 6.5t-84 12.5t-69 6t-58.5 -11z" />
<glyph unicode="&#xbd;" horiz-adv-x="1351" d="M51 1303v28l172 105h51v-719h-112v655zM104 0l848 1438h47l-847 -1438h-48zM672 2v45q0 68 26 125t68 95t96 70.5t110 53.5t110 42.5t96 38.5t68 40.5t26 50.5q0 46 -40.5 70.5t-101.5 26t-133 -6.5q-57 -6 -150 -42t-138 -36v125q70 -9 106 -2t108 20t136 13 q63 0 109.5 -17t71.5 -44.5t36.5 -57t11.5 -59.5q0 -58 -32.5 -105.5t-84.5 -79t-114.5 -59t-125 -53.5t-114.5 -54t-84.5 -68t-32.5 -89v-18h156q79 0 164 24t150 46t102 20v-113q-36 11 -92.5 13t-106.5 -1.5t-115 -8.5t-102 -5h-184z" />
<glyph unicode="&#xbe;" horiz-adv-x="1400" d="M63 719v115q37 0 77 -16.5t70.5 -37t75 -37t89.5 -16.5q83 0 131.5 44.5t48.5 107.5q0 73 -63.5 139.5t-188.5 101.5l217 219h-401v99h495v-35l-204 -217q117 -32 174 -96.5t57 -141.5q0 -96 -78 -169.5t-196 -73.5q-42 0 -92.5 6.5t-84.5 12.5t-69 6t-58 -11zM367 0 l847 1438h50l-848 -1438h-49zM735 201v41l479 477h48v-471h75v-47h-75v-201h-113v201h-414zM772 248h377v375z" />
<glyph unicode="&#xbf;" horiz-adv-x="1169" d="M63 94q0 78 34 144t88.5 112t119.5 87t128.5 79.5t115 78.5t80.5 94t22 118h49q18 -51 11.5 -101t-28.5 -89.5t-57 -81.5t-74.5 -77.5t-82 -77t-77.5 -80t-61.5 -87.5t-35.5 -98q-34 -119 39.5 -209t228.5 -90q152 0 254.5 91.5t102.5 231.5q0 61 -32.5 140.5t-35.5 91.5 l41 14q9 -33 35 -62t55.5 -52t57.5 -49.5t46.5 -67t18.5 -91.5q0 -93 -76 -163t-191.5 -103t-248.5 -33q-101 0 -193.5 20.5t-168 60t-120.5 104t-45 145.5zM508 1151q0 51 35 86t86 35t86 -35t35 -86q0 -52 -35 -86.5t-86 -34.5t-86 34.5t-35 86.5z" />
<glyph unicode="&#xc0;" horiz-adv-x="1265" d="M-43 0l557 1438h168l612 -1438h-252q0 137 -20 273.5t-70 334.5h-553l-231 -608h-211zM395 1991h189q3 -40 30 -81.5t65.5 -77.5t79 -69.5t78.5 -72t56 -72.5l-35 -16q-31 38 -91.5 74t-121.5 65t-119 62.5t-94.5 81t-36.5 106.5zM418 655h524q-16 72 -39 131l-229 545z " />
<glyph unicode="&#xc1;" horiz-adv-x="1265" d="M-43 0l557 1438h168l612 -1438h-252q0 137 -20 273.5t-70 334.5h-553l-231 -608h-211zM279 1618q18 34 56 72.5t78.5 72t79 69.5t65.5 77.5t30 81.5h188q0 -59 -36.5 -106.5t-94.5 -81t-119 -62.5t-121.5 -65t-91.5 -74zM418 655h524q-16 72 -39 131l-229 545z" />
<glyph unicode="&#xc2;" horiz-adv-x="1265" d="M-43 0l557 1438h168l612 -1438h-252q0 137 -20 273.5t-70 334.5h-553l-231 -608h-211zM272 1618q0 44 31 84t76.5 71.5t92 62.5t84.5 71t48 84h49q10 -44 49 -84t87.5 -71t96 -62.5t79.5 -71.5t32 -84h-194q0 50 -28 102.5t-77.5 119t-68.5 99.5q-17 -30 -64.5 -98.5 t-72.5 -120.5t-25 -102h-195zM418 655h524q-16 72 -39 131l-229 545z" />
<glyph unicode="&#xc3;" horiz-adv-x="1265" d="M-43 0l557 1438h168l612 -1438h-252q0 137 -20 273.5t-70 334.5h-553l-231 -608h-211zM295 1733q0 54 15.5 95t41 63.5t52 33t53.5 10.5q55 0 140.5 -32.5t165.5 -64.5t120 -32q32 0 46.5 18.5t14.5 67.5h25q0 -104 -41.5 -150t-106.5 -46q-53 0 -138.5 32t-166 64.5 t-121.5 32.5q-78 0 -78 -94zM418 655h524q-16 72 -39 131l-229 545z" />
<glyph unicode="&#xc4;" horiz-adv-x="1265" d="M-43 0l557 1438h168l612 -1438h-252q0 137 -20 273.5t-70 334.5h-553l-231 -608h-211zM416 1772q0 33 24 56t58 23t58 -23t24 -56q0 -35 -24 -58.5t-58 -23.5t-58 23.5t-24 58.5zM418 655h524q-16 72 -39 131l-229 545zM690 1772q0 33 24 56t58 23t57 -22.5t23 -56.5 q0 -35 -23 -58.5t-57 -23.5t-58 23.5t-24 58.5z" />
<glyph unicode="&#xc5;" horiz-adv-x="1265" d="M-43 0l557 1438h168l612 -1438h-252q0 137 -20 273.5t-70 334.5h-553l-231 -608h-211zM418 655h524q-16 72 -39 131l-229 545zM449 1790q0 74 51.5 125t124.5 51t124.5 -51t51.5 -125t-51.5 -125t-124.5 -51t-124.5 51t-51.5 125zM535 1790q0 -38 26 -64t64 -26t64 26 t26 64t-26 64t-64 26t-64 -26t-26 -64z" />
<glyph unicode="&#xc6;" horiz-adv-x="1918" d="M-43 0l637 1438h410q151 0 352 -12t310.5 -12t168.5 24v-246h-10q-54 0 -112 19.5t-116 48t-124.5 57t-161.5 49.5t-203 23l-104 2v-557h319q48 0 80.5 2.5t66.5 11.5t56.5 25t42 43.5t30.5 66.5h21v-354h-21q-10 37 -23.5 63.5t-34.5 43.5t-40.5 27t-52 14.5t-57.5 5.5 t-68 1h-319v-737q106 3 205 24t175 49t148.5 56t155.5 47t167 19h11v-242q-88 32 -207.5 39t-217.5 -2t-230 -22t-207 -15h-228v600h-321l-265 -600h-233zM475 647h301v688z" />
<glyph unicode="&#xc7;" horiz-adv-x="1345" d="M59 733q0 145 39.5 267t107.5 208t160.5 145.5t197.5 88t218 28.5q76 0 159.5 -14.5t136.5 -28t111 -13.5t103 24v-287q-55 0 -103.5 28t-85.5 67.5t-75.5 79t-91.5 67.5t-115 28q-167 0 -292.5 -93t-188 -253t-53.5 -360q5 -146 35.5 -264t77.5 -196.5t110 -131 t131.5 -75.5t144.5 -23q55 0 111 24.5t105.5 64.5t92.5 81.5t90.5 85t82.5 65.5l12 -219q-38 -15 -117 -52t-126 -56t-125 -36.5t-158 -17.5q-42 0 -86 6l-23 -71h88q78 0 121 -36.5t43 -101.5q0 -43 -13 -77.5t-31.5 -58t-53.5 -43t-64 -30.5t-78.5 -21t-82.5 -15t-89 -12 q-8 -1 -13 -1.5t-12.5 -1.5t-13.5 -2v23q61 11 102.5 20.5t87.5 27.5t73 39.5t45 55.5t18 78q0 56 -25 89.5t-73 33.5h-90l34 113q-88 18 -168.5 58t-152 105t-124.5 149.5t-83.5 198t-30.5 242.5z" />
<glyph unicode="&#xc8;" horiz-adv-x="1212" d="M70 0v1438h227q150 0 351 -12t311 -12t169 24v-246h-10q-54 0 -112 19.5t-116 47.5t-124 56.5t-161.5 49.5t-203.5 24l-104 2v-557h317q48 0 81.5 2.5t67.5 11.5t57 25t41.5 43.5t29.5 66.5h20v-354h-20q-9 37 -22.5 63.5t-34.5 43.5t-40.5 27t-52.5 14.5t-58 5.5t-69 1 h-317v-737q98 3 194.5 23t172 47t145.5 53.5t142 44.5t136 18q47 0 72 -2v-231q-102 33 -249 34t-341.5 -16t-271.5 -18h-227zM369 1991h188q3 -40 30 -81.5t65.5 -77.5t79 -69.5t78.5 -72t56 -72.5l-35 -16q-31 38 -91.5 74t-121.5 65t-119 62.5t-94 81t-36 106.5z" />
<glyph unicode="&#xc9;" horiz-adv-x="1212" d="M70 0v1438h227q150 0 351 -12t311 -12t169 24v-246h-10q-54 0 -112 19.5t-116 47.5t-124 56.5t-161.5 49.5t-203.5 24l-104 2v-557h317q48 0 81.5 2.5t67.5 11.5t57 25t41.5 43.5t29.5 66.5h20v-354h-20q-9 37 -22.5 63.5t-34.5 43.5t-40.5 27t-52.5 14.5t-58 5.5t-69 1 h-317v-737q98 3 194.5 23t172 47t145.5 53.5t142 44.5t136 18q47 0 72 -2v-231q-102 33 -249 34t-341.5 -16t-271.5 -18h-227zM252 1618q18 34 56 72.5t78.5 72t79 69.5t65.5 77.5t30 81.5h189q0 -59 -36.5 -106.5t-94.5 -81t-119 -62.5t-121.5 -65t-91.5 -74z" />
<glyph unicode="&#xca;" horiz-adv-x="1212" d="M70 0v1438h227q150 0 351 -12t311 -12t169 24v-246h-10q-54 0 -112 19.5t-116 47.5t-124 56.5t-161.5 49.5t-203.5 24l-104 2v-557h317q48 0 81.5 2.5t67.5 11.5t57 25t41.5 43.5t29.5 66.5h20v-354h-20q-9 37 -22.5 63.5t-34.5 43.5t-40.5 27t-52.5 14.5t-58 5.5t-69 1 h-317v-737q98 3 194.5 23t172 47t145.5 53.5t142 44.5t136 18q47 0 72 -2v-231q-102 33 -249 34t-341.5 -16t-271.5 -18h-227zM244 1618q0 37 22 72t56 60.5t74.5 54t77 54t65 60.5t36.5 72h50q10 -44 49 -84t87.5 -71t96 -62.5t79.5 -71.5t32 -84h-195q0 50 -28 102.5 t-77.5 119t-68.5 99.5q-17 -30 -64.5 -98.5t-72.5 -120.5t-25 -102h-194z" />
<glyph unicode="&#xcb;" horiz-adv-x="1212" d="M70 0v1438h227q150 0 351 -12t311 -12t169 24v-246h-10q-54 0 -112 19.5t-116 47.5t-124 56.5t-161.5 49.5t-203.5 24l-104 2v-557h317q48 0 81.5 2.5t67.5 11.5t57 25t41.5 43.5t29.5 66.5h20v-354h-20q-9 37 -22.5 63.5t-34.5 43.5t-40.5 27t-52.5 14.5t-58 5.5t-69 1 h-317v-737q98 3 194.5 23t172 47t145.5 53.5t142 44.5t136 18q47 0 72 -2v-231q-102 33 -249 34t-341.5 -16t-271.5 -18h-227zM387 1772q0 33 24 56t58 23t58 -23t24 -56q0 -35 -24 -58.5t-58 -23.5t-58 23.5t-24 58.5zM662 1772q0 34 23.5 56.5t57.5 22.5t57 -22.5 t23 -56.5q0 -35 -23 -58.5t-57 -23.5t-57.5 23.5t-23.5 58.5z" />
<glyph unicode="&#xcc;" horiz-adv-x="366" d="M-55 1991h188q3 -40 30 -81.5t65.5 -77.5t79 -69.5t78.5 -72t56 -72.5l-34 -16q-31 38 -91.5 74t-121.5 65t-119 62.5t-94.5 81t-36.5 106.5zM70 0v1438h227v-1438h-227z" />
<glyph unicode="&#xcd;" horiz-adv-x="366" d="M-172 1618q18 34 56 72.5t78.5 72t79 69.5t65.5 77.5t30 81.5h189q0 -59 -36.5 -106.5t-94.5 -81t-119 -62.5t-121.5 -65t-91.5 -74zM70 0v1438h227v-1438h-227z" />
<glyph unicode="&#xce;" horiz-adv-x="366" d="M-178 1618q0 44 31 84t76.5 71.5t92 62.5t84.5 71t48 84h49q10 -44 49 -84t87.5 -71t96 -62.5t79.5 -71.5t32 -84h-195q0 50 -28 102.5t-77.5 119t-68.5 99.5q-17 -30 -64.5 -98.5t-72.5 -120.5t-25 -102h-194zM70 0v1438h227v-1438h-227z" />
<glyph unicode="&#xcf;" horiz-adv-x="366" d="M-35 1772q0 33 24 56t58 23t58 -23t24 -56q0 -35 -24 -58.5t-58 -23.5t-58 23.5t-24 58.5zM70 0v1438h227v-1438h-227zM240 1772q0 33 24 56t58 23t56.5 -22.5t22.5 -56.5q0 -35 -22.5 -58.5t-56.5 -23.5t-58 23.5t-24 58.5z" />
<glyph unicode="&#xd0;" horiz-adv-x="1341" d="M-61 694v49h131v695h579q295 0 464 -175.5t169 -517.5q0 -154 -38 -281t-102 -211.5t-150.5 -142.5t-180.5 -84t-195 -26h-546v694h-131zM297 20l109 27q121 -1 215.5 17t178 65.5t138 126t86 201.5t31.5 288q0 185 -39.5 311t-122.5 199.5t-198 104.5t-279 29l-119 20 v-666h133v-49h-133v-674z" />
<glyph unicode="&#xd1;" horiz-adv-x="1304" d="M78 0q45 199 63.5 375.5t18.5 498.5v476l-56 88h238l848 -1301v383q0 161 -10 301.5t-29.5 257.5t-36 190.5t-41.5 170.5l250 -2q-41 -150 -63.5 -350t-22.5 -531v-557h-190l-838 1272v-463q0 -71 3.5 -140t7.5 -120.5t13.5 -114t15 -97.5t19 -95t19 -81.5t21.5 -84 t20 -76.5h-250zM344 1733q0 54 15.5 95t41 63.5t52 33t53.5 10.5q55 0 140.5 -32.5t165.5 -64.5t120 -32q32 0 46.5 18.5t14.5 67.5h25q0 -104 -41.5 -150t-106.5 -46q-53 0 -138.5 32t-166 64.5t-121.5 32.5q-77 0 -77 -94z" />
<glyph unicode="&#xd2;" horiz-adv-x="1480" d="M59 711q0 107 24.5 212t79 204.5t132 175t192.5 121.5t252 46t252.5 -46t193.5 -121.5t132.5 -175t79 -204.5t24.5 -212q0 -151 -45.5 -285t-130 -236.5t-215.5 -162.5t-291 -60t-290.5 60t-214.5 162.5t-129.5 236.5t-45.5 285zM287 711q0 -92 16 -186.5t52 -187 t87.5 -164t128.5 -115.5t168 -44q97 0 176.5 44.5t130 115t85 164t49 186.5t14.5 187q0 90 -14.5 183.5t-49 190t-85 170.5t-130 121t-176.5 47q-103 0 -184 -47.5t-130 -120.5t-81.5 -170.5t-44.5 -189t-12 -184.5zM502 1991h188q3 -40 30 -81.5t65.5 -77.5t79 -69.5 t78.5 -72t56 -72.5l-34 -16q-31 38 -91.5 74t-121.5 65t-119 62.5t-94.5 81t-36.5 106.5z" />
<glyph unicode="&#xd3;" horiz-adv-x="1480" d="M59 711q0 107 24.5 212t79 204.5t132 175t192.5 121.5t252 46t252.5 -46t193.5 -121.5t132.5 -175t79 -204.5t24.5 -212q0 -151 -45.5 -285t-130 -236.5t-215.5 -162.5t-291 -60t-290.5 60t-214.5 162.5t-129.5 236.5t-45.5 285zM287 711q0 -92 16 -186.5t52 -187 t87.5 -164t128.5 -115.5t168 -44q97 0 176.5 44.5t130 115t85 164t49 186.5t14.5 187q0 90 -14.5 183.5t-49 190t-85 170.5t-130 121t-176.5 47q-103 0 -184 -47.5t-130 -120.5t-81.5 -170.5t-44.5 -189t-12 -184.5zM385 1618q18 34 56 72.5t78.5 72t79 69.5t65.5 77.5 t30 81.5h189q0 -59 -36.5 -106.5t-94.5 -81t-119 -62.5t-121.5 -65t-91.5 -74z" />
<glyph unicode="&#xd4;" horiz-adv-x="1480" d="M59 711q0 107 24.5 212t79 204.5t132 175t192.5 121.5t252 46t252.5 -46t193.5 -121.5t132.5 -175t79 -204.5t24.5 -212q0 -151 -45.5 -285t-130 -236.5t-215.5 -162.5t-291 -60t-290.5 60t-214.5 162.5t-129.5 236.5t-45.5 285zM287 711q0 -92 16 -186.5t52 -187 t87.5 -164t128.5 -115.5t168 -44q97 0 176.5 44.5t130 115t85 164t49 186.5t14.5 187q0 90 -14.5 183.5t-49 190t-85 170.5t-130 121t-176.5 47q-103 0 -184 -47.5t-130 -120.5t-81.5 -170.5t-44.5 -189t-12 -184.5zM379 1618q0 44 31 84t76.5 71.5t92 62.5t84.5 71t48 84 h49q10 -44 49 -84t87.5 -71t96 -62.5t79.5 -71.5t32 -84h-195q0 50 -28 102.5t-77.5 119t-68.5 99.5q-17 -30 -64.5 -98.5t-72.5 -120.5t-25 -102h-194z" />
<glyph unicode="&#xd5;" horiz-adv-x="1480" d="M59 711q0 107 24.5 212t79 204.5t132 175t192.5 121.5t252 46t252.5 -46t193.5 -121.5t132.5 -175t79 -204.5t24.5 -212q0 -151 -45.5 -285t-130 -236.5t-215.5 -162.5t-291 -60t-290.5 60t-214.5 162.5t-129.5 236.5t-45.5 285zM287 711q0 -92 16 -186.5t52 -187 t87.5 -164t128.5 -115.5t168 -44q97 0 176.5 44.5t130 115t85 164t49 186.5t14.5 187q0 90 -14.5 183.5t-49 190t-85 170.5t-130 121t-176.5 47q-103 0 -184 -47.5t-130 -120.5t-81.5 -170.5t-44.5 -189t-12 -184.5zM401 1733q0 54 15.5 95t41 63.5t52 33t53.5 10.5 q55 0 140.5 -32.5t165.5 -64.5t120 -32q32 0 47 18.5t15 67.5h24q0 -104 -41.5 -150t-105.5 -46q-53 0 -138.5 32t-166 64.5t-121.5 32.5q-78 0 -78 -94z" />
<glyph unicode="&#xd6;" horiz-adv-x="1480" d="M59 711q0 107 24.5 212t79 204.5t132 175t192.5 121.5t252 46t252.5 -46t193.5 -121.5t132.5 -175t79 -204.5t24.5 -212q0 -151 -45.5 -285t-130 -236.5t-215.5 -162.5t-291 -60t-290.5 60t-214.5 162.5t-129.5 236.5t-45.5 285zM287 711q0 -92 16 -186.5t52 -187 t87.5 -164t128.5 -115.5t168 -44q97 0 176.5 44.5t130 115t85 164t49 186.5t14.5 187q0 90 -14.5 183.5t-49 190t-85 170.5t-130 121t-176.5 47q-103 0 -184 -47.5t-130 -120.5t-81.5 -170.5t-44.5 -189t-12 -184.5zM522 1772q0 33 24 56t58 23t58 -23t24 -56 q0 -35 -24 -58.5t-58 -23.5t-58 23.5t-24 58.5zM797 1772q0 33 24 56t58 23t56.5 -22.5t22.5 -56.5q0 -35 -22.5 -58.5t-56.5 -23.5t-58 23.5t-24 58.5z" />
<glyph unicode="&#xd7;" horiz-adv-x="694" d="M63 401l250 250l-250 248l35 35l248 -250l250 250l33 -35l-248 -248l248 -250l-33 -32l-250 247l-248 -247z" />
<glyph unicode="&#xd8;" horiz-adv-x="1480" d="M59 711q0 107 24.5 212t79 204.5t132 175t192.5 121.5t252 46q106 0 201 -28l59 209h48l-64 -224q110 -41 196 -119.5t137.5 -176.5t78 -205t26.5 -215q0 -151 -45.5 -285t-130 -236.5t-215.5 -162.5t-291 -60q-85 0 -166 19l-57 -199h-47l59 211q-221 66 -345 262 t-124 451zM287 711q0 -121 26.5 -241t87.5 -230.5t148 -167.5l373 1302q-84 49 -183 49q-103 0 -184 -47.5t-130 -120.5t-81.5 -170.5t-44.5 -189t-12 -184.5zM590 47q74 -33 149 -33q97 0 176.5 44.5t130 115t85 164t49 186.5t14.5 187q0 114 -21.5 228.5t-76.5 228.5 t-135 178z" />
<glyph unicode="&#xd9;" horiz-adv-x="1308" d="M70 604v834h229v-1012q0 -109 29 -191t80 -128.5t111.5 -68.5t131.5 -22q70 0 130 22t110 68.5t79 128.5t29 191v1012h228v-834q0 -155 -43.5 -277.5t-121 -200t-182 -117.5t-229.5 -40t-230 40t-184 117.5t-123 200t-44 277.5zM416 1991h188q3 -40 30 -81.5t65.5 -77.5 t79 -69.5t78.5 -72t56 -72.5l-34 -16q-31 38 -91.5 74t-121.5 65t-119 62.5t-94.5 81t-36.5 106.5z" />
<glyph unicode="&#xda;" horiz-adv-x="1308" d="M70 604v834h229v-1012q0 -109 29 -191t80 -128.5t111.5 -68.5t131.5 -22q70 0 130 22t110 68.5t79 128.5t29 191v1012h228v-834q0 -155 -43.5 -277.5t-121 -200t-182 -117.5t-229.5 -40t-230 40t-184 117.5t-123 200t-44 277.5zM299 1618q18 34 56 72.5t78.5 72t79 69.5 t65.5 77.5t30 81.5h189q0 -59 -36.5 -106.5t-94.5 -81t-119 -62.5t-121.5 -65t-91.5 -74z" />
<glyph unicode="&#xdb;" horiz-adv-x="1308" d="M70 604v834h229v-1012q0 -109 29 -191t80 -128.5t111.5 -68.5t131.5 -22q70 0 130 22t110 68.5t79 128.5t29 191v1012h228v-834q0 -155 -43.5 -277.5t-121 -200t-182 -117.5t-229.5 -40t-230 40t-184 117.5t-123 200t-44 277.5zM293 1618q0 44 31 84t76.5 71.5t92 62.5 t84.5 71t48 84h49q10 -44 49 -84t87.5 -71t96 -62.5t79.5 -71.5t32 -84h-195q0 50 -28 102.5t-77.5 119t-68.5 99.5q-17 -30 -64.5 -98.5t-72.5 -120.5t-25 -102h-194z" />
<glyph unicode="&#xdc;" horiz-adv-x="1308" d="M70 604v834h229v-1012q0 -109 29 -191t80 -128.5t111.5 -68.5t131.5 -22q70 0 130 22t110 68.5t79 128.5t29 191v1012h228v-834q0 -155 -43.5 -277.5t-121 -200t-182 -117.5t-229.5 -40t-230 40t-184 117.5t-123 200t-44 277.5zM436 1772q0 33 24 56t58 23t58 -23t24 -56 q0 -35 -24 -58.5t-58 -23.5t-58 23.5t-24 58.5zM711 1772q0 33 24 56t58 23t56.5 -22.5t22.5 -56.5q0 -35 -22.5 -58.5t-56.5 -23.5t-58 23.5t-24 58.5z" />
<glyph unicode="&#xdd;" horiz-adv-x="923" d="M-147 1438h227l440 -756l131 213q54 88 85.5 176.5t39.5 137.5t13 129t8 100h227l-485 -803v-635h-228v635zM106 1618q18 34 56 72t78.5 72t79.5 70t66 77.5t30 81.5h188q0 -59 -36.5 -106.5t-94.5 -81t-119 -62.5t-121.5 -65t-91.5 -74z" />
<glyph unicode="&#xde;" horiz-adv-x="1136" d="M70 0v1438h227v-260h276q255 0 389 -116.5t134 -322.5q0 -93 -35 -173.5t-100 -141.5t-165 -96t-223 -35h-276v-293h-227zM297 340h207q99 -2 172 30.5t113.5 90.5t59.5 127.5t19 150.5q0 194 -82 292.5t-282 98.5h-207v-790z" />
<glyph unicode="&#xdf;" horiz-adv-x="1380" d="M41 0v891q0 122 37 225t97.5 173t139 119.5t161 72t163.5 22.5q167 0 251 -88t42 -237q-25 -82 -60 -152q162 -102 269.5 -220t152.5 -224.5t45 -210.5q0 -176 -120.5 -292t-307.5 -116q-150 0 -282 78t-221 227l38 33q68 -121 169.5 -183.5t203.5 -62.5q109 0 181.5 75 t72.5 192q0 127 -93 271.5t-292 283.5q91 149 121 208q65 116 65 199q0 75 -49.5 118.5t-130.5 43.5q-45 0 -93 -16t-96 -46.5t-90.5 -80t-75.5 -112t-52 -147t-19 -180.5v-864h-227z" />
<glyph unicode="&#xe0;" horiz-adv-x="1191" d="M70 311q0 46 12.5 89t30 77t50.5 70.5t60.5 61t75.5 57.5t78.5 52t85.5 52q56 35 79.5 49.5t72.5 47.5t74.5 56t59.5 56t56 67t37 72q-50 60 -129 60q-52 0 -102.5 -25t-92.5 -60.5t-84.5 -71t-93 -60.5t-102.5 -25v229q42 -10 73 -10q72 0 211 31t228 31 q59 0 111.5 -10.5t101 -35t83.5 -62t55.5 -95.5t20.5 -131v-883h-227v193q-67 -102 -177.5 -165t-228.5 -63q-110 0 -204 39t-154.5 119.5t-60.5 187.5zM297 344q0 -145 74.5 -225t185.5 -80q95 0 187.5 57t150.5 160v692q0 81 -33 142l2 -9q-23 -52 -54.5 -97t-79.5 -90.5 t-74 -67t-87 -70.5q-55 -43 -84.5 -67.5t-71.5 -67.5t-63 -79t-37 -88t-16 -110zM358 1737h189q3 -40 30 -81.5t65.5 -77.5t79 -69.5t78.5 -72t56 -72.5l-35 -16q-31 38 -91.5 74t-121.5 65t-119 62.5t-94.5 81t-36.5 106.5z" />
<glyph unicode="&#xe1;" horiz-adv-x="1191" d="M70 311q0 46 12.5 89t30 77t50.5 70.5t60.5 61t75.5 57.5t78.5 52t85.5 52q56 35 79.5 49.5t72.5 47.5t74.5 56t59.5 56t56 67t37 72q-50 60 -129 60q-52 0 -102.5 -25t-92.5 -60.5t-84.5 -71t-93 -60.5t-102.5 -25v229q42 -10 73 -10q72 0 211 31t228 31 q59 0 111.5 -10.5t101 -35t83.5 -62t55.5 -95.5t20.5 -131v-883h-227v193q-67 -102 -177.5 -165t-228.5 -63q-110 0 -204 39t-154.5 119.5t-60.5 187.5zM242 1364q18 34 56 72.5t78.5 72t79 69.5t65.5 77.5t30 81.5h188q0 -59 -36.5 -106.5t-94.5 -81t-119 -62.5t-121.5 -65 t-91.5 -74zM297 344q0 -145 74.5 -225t185.5 -80q95 0 187.5 57t150.5 160v692q0 81 -33 142l2 -9q-23 -52 -54.5 -97t-79.5 -90.5t-74 -67t-87 -70.5q-55 -43 -84.5 -67.5t-71.5 -67.5t-63 -79t-37 -88t-16 -110z" />
<glyph unicode="&#xe2;" horiz-adv-x="1191" d="M70 311q0 46 12.5 89t30 77t50.5 70.5t60.5 61t75.5 57.5t78.5 52t85.5 52q56 35 79.5 49.5t72.5 47.5t74.5 56t59.5 56t56 67t37 72q-50 60 -129 60q-52 0 -102.5 -25t-92.5 -60.5t-84.5 -71t-93 -60.5t-102.5 -25v229q42 -10 73 -10q72 0 211 31t228 31 q59 0 111.5 -10.5t101 -35t83.5 -62t55.5 -95.5t20.5 -131v-883h-227v193q-67 -102 -177.5 -165t-228.5 -63q-110 0 -204 39t-154.5 119.5t-60.5 187.5zM236 1364q0 37 22 72t56 60.5t74.5 54t77 54t65 60.5t36.5 72h49q10 -44 49 -84t88 -71t96.5 -62.5t79.5 -71.5t32 -84 h-195q0 50 -28 103t-77.5 120t-68.5 99q-17 -30 -64.5 -99t-72.5 -121t-25 -102h-194zM297 344q0 -145 74.5 -225t185.5 -80q95 0 187.5 57t150.5 160v692q0 81 -33 142l2 -9q-23 -52 -54.5 -97t-79.5 -90.5t-74 -67t-87 -70.5q-55 -43 -84.5 -67.5t-71.5 -67.5t-63 -79 t-37 -88t-16 -110z" />
<glyph unicode="&#xe3;" horiz-adv-x="1191" d="M70 311q0 46 12.5 89t30 77t50.5 70.5t60.5 61t75.5 57.5t78.5 52t85.5 52q56 35 79.5 49.5t72.5 47.5t74.5 56t59.5 56t56 67t37 72q-50 60 -129 60q-52 0 -102.5 -25t-92.5 -60.5t-84.5 -71t-93 -60.5t-102.5 -25v229q42 -10 73 -10q72 0 211 31t228 31 q59 0 111.5 -10.5t101 -35t83.5 -62t55.5 -95.5t20.5 -131v-883h-227v193q-67 -102 -177.5 -165t-228.5 -63q-110 0 -204 39t-154.5 119.5t-60.5 187.5zM258 1479q0 54 15.5 95t41 63.5t52 33t53.5 10.5q55 0 140.5 -32.5t165.5 -64.5t120 -32q32 0 46.5 18.5t14.5 67.5h25 q0 -104 -41.5 -150t-106.5 -46q-53 0 -138.5 32t-166 64.5t-121.5 32.5q-77 0 -77 -94zM297 344q0 -145 74.5 -225t185.5 -80q95 0 187.5 57t150.5 160v692q0 81 -33 142l2 -9q-23 -52 -54.5 -97t-79.5 -90.5t-74 -67t-87 -70.5q-55 -43 -84.5 -67.5t-71.5 -67.5t-63 -79 t-37 -88t-16 -110z" />
<glyph unicode="&#xe4;" horiz-adv-x="1191" d="M70 311q0 46 12.5 89t30 77t50.5 70.5t60.5 61t75.5 57.5t78.5 52t85.5 52q56 35 79.5 49.5t72.5 47.5t74.5 56t59.5 56t56 67t37 72q-50 60 -129 60q-52 0 -102.5 -25t-92.5 -60.5t-84.5 -71t-93 -60.5t-102.5 -25v229q42 -10 73 -10q72 0 211 31t228 31 q59 0 111.5 -10.5t101 -35t83.5 -62t55.5 -95.5t20.5 -131v-883h-227v193q-67 -102 -177.5 -165t-228.5 -63q-110 0 -204 39t-154.5 119.5t-60.5 187.5zM297 344q0 -145 74.5 -225t185.5 -80q95 0 187.5 57t150.5 160v692q0 81 -33 142l2 -9q-23 -52 -54.5 -97t-79.5 -90.5 t-74 -67t-87 -70.5q-55 -43 -84.5 -67.5t-71.5 -67.5t-63 -79t-37 -88t-16 -110zM379 1518q0 33 24 56t58 23t58 -23t24 -56q0 -35 -24 -58.5t-58 -23.5t-58 23.5t-24 58.5zM653 1518q0 33 24 56t58 23t57 -22.5t23 -56.5q0 -35 -23 -58.5t-57 -23.5t-58 23.5t-24 58.5z" />
<glyph unicode="&#xe5;" horiz-adv-x="1191" d="M70 311q0 46 12.5 89t30 77t50.5 70.5t60.5 61t75.5 57.5t78.5 52t85.5 52q56 35 79.5 49.5t72.5 47.5t74.5 56t59.5 56t56 67t37 72q-50 60 -129 60q-52 0 -102.5 -25t-92.5 -60.5t-84.5 -71t-93 -60.5t-102.5 -25v229q42 -10 73 -10q72 0 211 31t228 31 q59 0 111.5 -10.5t101 -35t83.5 -62t55.5 -95.5t20.5 -131v-883h-227v193q-67 -102 -177.5 -165t-228.5 -63q-110 0 -204 39t-154.5 119.5t-60.5 187.5zM297 344q0 -145 74.5 -225t185.5 -80q95 0 187.5 57t150.5 160v692q0 81 -33 142l2 -9q-23 -52 -54.5 -97t-79.5 -90.5 t-74 -67t-87 -70.5q-55 -43 -84.5 -67.5t-71.5 -67.5t-63 -79t-37 -88t-16 -110zM412 1536q0 74 51 125t125 51t125 -51t51 -125t-51 -125t-125 -51t-125 51t-51 125zM498 1536q0 -38 26 -64t64 -26t64 26t26 64t-26 64t-64 26t-64 -26t-26 -64z" />
<glyph unicode="&#xe6;" horiz-adv-x="2140" d="M70 311q0 83 35 152t94 120t131.5 97t151 92.5t148.5 96t129.5 118t88.5 148.5q-44 53 -135 53q-49 0 -89 -15t-66.5 -39.5t-49 -54t-42 -58.5t-40.5 -53.5t-50 -39.5t-65 -15v228q31 0 99.5 19t160.5 38t179 19q253 0 333 -156q185 156 480 156q236 0 364.5 -96.5 t128.5 -233.5q0 -114 -68.5 -200.5t-173.5 -126t-221 -32.5q-156 8 -230.5 -18t-115.5 -119l-37 84q18 54 68 77t120.5 21t162.5 -6q74 -4 128.5 21t83.5 73t42.5 103.5t13.5 122.5q0 57 -14 104.5t-44.5 88.5t-86 64t-132.5 23q-183 0 -306.5 -156.5t-123.5 -392.5 q0 -135 44.5 -250t116.5 -189t159 -115t176 -41q42 0 81 13t73 39t62.5 54t58.5 70.5t51.5 75.5t52 81t49.5 76l39 -180q-40 -51 -91 -96.5t-120.5 -89t-159 -69.5t-184.5 -26q-110 0 -219 39t-208 124.5t-153 205.5q-70 -180 -191 -277.5t-270 -97.5q-111 0 -205 39 t-154 119.5t-60 187.5zM297 344q0 -155 105 -227q92 -63 217 -33q135 31 225 153q56 76 82 173q-31 98 -31 208v357q0 75 -25 127q-31 -70 -80 -133t-101 -109.5t-109 -92t-106.5 -89.5t-89.5 -92t-63.5 -109.5t-23.5 -132.5z" />
<glyph unicode="&#xe7;" horiz-adv-x="1116" d="M47 616q0 133 32.5 238.5t84.5 171.5t123.5 109.5t144 61t150.5 17.5q61 0 115.5 -12t94 -28t78 -31t86.5 -23t101 -2v-215h-29q-35 0 -64 14.5t-50 38t-41 51.5t-43 56t-50 51.5t-68 38t-91 14.5q-46 0 -93.5 -21.5t-93 -67.5t-80.5 -110t-55 -157.5t-18 -202.5 q4 -253 116 -421.5t271 -168.5q54 0 102 28t83.5 68.5t68.5 80.5t72 68t81 28v-225q-53 7 -123 -17.5t-155 -53t-164 -28.5q-41 0 -84 6l-23 -73h88q78 0 121 -36.5t43 -101.5q0 -43 -13 -77.5t-31.5 -58t-53 -43t-64 -30.5t-78.5 -21t-82 -15t-89 -12q-26 -3 -39 -5v23 q61 11 102.5 20.5t87 27t72.5 39.5t45 56t18 78q0 56 -25 89.5t-73 33.5h-90l37 117q-93 23 -175 77t-144.5 133t-99 188t-36.5 234z" />
<glyph unicode="&#xe8;" horiz-adv-x="1269" d="M47 625q0 143 51 257t141 186.5t211.5 110.5t264.5 38q236 0 364.5 -96.5t128.5 -233.5q0 -86 -39.5 -155t-106.5 -112t-148 -66.5t-169 -25.5h-1h-1h-1h-1h-1h-1h-1h-1h-1h-1h-1h-2q-154 -5 -207 -20q-79 -23 -118 -100l-8 -17l-37 84q8 24 21.5 41t34.5 27t41 15.5 t53.5 7.5t58 2t69 -0.5t73.5 -0.5q60 2 107 20t77 47t49 70.5t27 86t8 96.5q0 57 -13.5 104.5t-44 88.5t-86 64t-132.5 23q-121 0 -219.5 -71t-155 -197t-56.5 -281q0 -116 30 -217t78 -170t109 -118.5t123 -73t119 -23.5q54 0 102.5 21.5t82 53t69.5 69t66 69t72 53 t87 21.5v-227q-57 11 -95 4t-90.5 -25.5t-97.5 -38.5t-115 -35.5t-144 -15.5q-96 0 -186 25.5t-169.5 80t-139 131t-94 185.5t-34.5 238zM397 1737h189q3 -40 30 -81.5t65.5 -77.5t79 -69.5t78.5 -72t56 -72.5l-35 -16q-31 38 -91.5 74t-121.5 65t-119 62.5t-94.5 81 t-36.5 106.5z" />
<glyph unicode="&#xe9;" horiz-adv-x="1269" d="M47 625q0 143 51 257t141 186.5t211.5 110.5t264.5 38q236 0 364.5 -96.5t128.5 -233.5q0 -86 -39.5 -155t-106.5 -112t-148 -66.5t-169 -25.5h-1h-1h-1h-1h-1h-1h-1h-1h-1h-1h-1h-2q-154 -5 -207 -20q-79 -23 -118 -100l-8 -17l-37 84q8 24 21.5 41t34.5 27t41 15.5 t53.5 7.5t58 2t69 -0.5t73.5 -0.5q60 2 107 20t77 47t49 70.5t27 86t8 96.5q0 57 -13.5 104.5t-44 88.5t-86 64t-132.5 23q-121 0 -219.5 -71t-155 -197t-56.5 -281q0 -116 30 -217t78 -170t109 -118.5t123 -73t119 -23.5q54 0 102.5 21.5t82 53t69.5 69t66 69t72 53 t87 21.5v-227q-57 11 -95 4t-90.5 -25.5t-97.5 -38.5t-115 -35.5t-144 -15.5q-96 0 -186 25.5t-169.5 80t-139 131t-94 185.5t-34.5 238zM279 1364q18 34 56 72.5t78.5 72t79 69.5t65.5 77.5t30 81.5h188q0 -59 -36.5 -106.5t-94.5 -81t-119 -62.5t-121.5 -65t-91.5 -74z " />
<glyph unicode="&#xea;" horiz-adv-x="1269" d="M47 625q0 143 51 257t141 186.5t211.5 110.5t264.5 38q236 0 364.5 -96.5t128.5 -233.5q0 -86 -39.5 -155t-106.5 -112t-148 -66.5t-169 -25.5h-1h-1h-1h-1h-1h-1h-1h-1h-1h-1h-1h-2q-154 -5 -207 -20q-79 -23 -118 -100l-8 -17l-37 84q8 24 21.5 41t34.5 27t41 15.5 t53.5 7.5t58 2t69 -0.5t73.5 -0.5q60 2 107 20t77 47t49 70.5t27 86t8 96.5q0 57 -13.5 104.5t-44 88.5t-86 64t-132.5 23q-121 0 -219.5 -71t-155 -197t-56.5 -281q0 -116 30 -217t78 -170t109 -118.5t123 -73t119 -23.5q54 0 102.5 21.5t82 53t69.5 69t66 69t72 53 t87 21.5v-227q-57 11 -95 4t-90.5 -25.5t-97.5 -38.5t-115 -35.5t-144 -15.5q-96 0 -186 25.5t-169.5 80t-139 131t-94 185.5t-34.5 238zM272 1364q0 44 31 84t76.5 71.5t92 62.5t84.5 71t48 84h49q10 -44 49 -84t87.5 -71t96 -62.5t79.5 -71.5t32 -84h-194q0 50 -28 103 t-77.5 120t-68.5 99q-17 -30 -64.5 -99t-72.5 -121t-25 -102h-195z" />
<glyph unicode="&#xeb;" horiz-adv-x="1269" d="M47 625q0 143 51 257t141 186.5t211.5 110.5t264.5 38q236 0 364.5 -96.5t128.5 -233.5q0 -86 -39.5 -155t-106.5 -112t-148 -66.5t-169 -25.5h-1h-1h-1h-1h-1h-1h-1h-1h-1h-1h-1h-2q-154 -5 -207 -20q-79 -23 -118 -100l-8 -17l-37 84q8 24 21.5 41t34.5 27t41 15.5 t53.5 7.5t58 2t69 -0.5t73.5 -0.5q60 2 107 20t77 47t49 70.5t27 86t8 96.5q0 57 -13.5 104.5t-44 88.5t-86 64t-132.5 23q-121 0 -219.5 -71t-155 -197t-56.5 -281q0 -116 30 -217t78 -170t109 -118.5t123 -73t119 -23.5q54 0 102.5 21.5t82 53t69.5 69t66 69t72 53 t87 21.5v-227q-57 11 -95 4t-90.5 -25.5t-97.5 -38.5t-115 -35.5t-144 -15.5q-96 0 -186 25.5t-169.5 80t-139 131t-94 185.5t-34.5 238zM416 1518q0 33 24 56t58 23t58 -23t24 -56q0 -35 -24 -58.5t-58 -23.5t-58 23.5t-24 58.5zM690 1518q0 33 24 56t58 23t57 -22.5 t23 -56.5q0 -35 -23 -58.5t-57 -23.5t-58 23.5t-24 58.5z" />
<glyph unicode="&#xec;" horiz-adv-x="411" d="M-27 1737h189q3 -40 30 -81.5t65.5 -77.5t79 -69.5t78.5 -72t56 -72.5l-35 -16q-31 38 -91.5 74t-121.5 65t-119 62.5t-94.5 81t-36.5 106.5zM100 0v1184h228v-1184h-228z" />
<glyph unicode="&#xed;" horiz-adv-x="411" d="M-143 1364q18 34 56 72.5t78.5 72t79 69.5t65.5 77.5t30 81.5h188q0 -59 -36.5 -106.5t-94.5 -81t-119 -62.5t-121.5 -65t-91.5 -74zM100 0v1184h228v-1184h-228z" />
<glyph unicode="&#xee;" horiz-adv-x="411" d="M-152 1364q0 44 31 84t76.5 71.5t92 62.5t84.5 71t48 84h49q10 -44 49 -84t87.5 -71t96 -62.5t79.5 -71.5t32 -84h-194q0 50 -28 103t-77.5 120t-68.5 99q-17 -30 -64.5 -99t-72.5 -121t-25 -102h-195zM100 0v1184h228v-1184h-228z" />
<glyph unicode="&#xef;" horiz-adv-x="411" d="M-8 1518q0 33 24 56t58 23t58 -23t24 -56q0 -35 -24 -58.5t-58 -23.5t-58 23.5t-24 58.5zM100 0v1184h228v-1184h-228zM266 1518q0 33 24 56t58 23t57 -22.5t23 -56.5q0 -35 -23 -58.5t-57 -23.5t-58 23.5t-24 58.5z" />
<glyph unicode="&#xf0;" horiz-adv-x="1300" d="M47 569q0 156 44.5 280.5t122.5 204.5t183 122.5t228 42.5q150 0 307 -68v-53q-137 67 -260 67q-193 0 -300 -156t-98 -440q9 -274 107.5 -416.5t257.5 -142.5q94 0 170 56.5t121.5 150t69.5 207t24 235.5q0 569 -332 891l-205 -127l-26 37l196 123q-108 94 -206 148 l14 32q131 -61 248 -145l198 125l27 -41l-184 -113q166 -127 280.5 -288t165.5 -321.5t51 -320.5q0 -147 -37.5 -272t-110.5 -222t-192 -152.5t-272 -55.5q-269 0 -430.5 164.5t-161.5 447.5z" />
<glyph unicode="&#xf1;" horiz-adv-x="1343" d="M100 0v1184h228v-289q93 135 244.5 224t291.5 89q118 0 201.5 -72.5t108.5 -222.5l153 -913h-227l-142 852q-22 126 -80.5 186t-140.5 60q-100 0 -213.5 -79t-195.5 -198v-821h-228zM334 1479q0 54 15.5 95t41 63.5t52 33t53.5 10.5q55 0 140.5 -32.5t165.5 -64.5 t120 -32q32 0 46.5 18.5t14.5 67.5h25q0 -104 -41.5 -150t-106.5 -46q-53 0 -138.5 32t-166 64.5t-121.5 32.5q-78 0 -78 -94z" />
<glyph unicode="&#xf2;" d="M47 590q0 293 158.5 460t425.5 167q266 0 423.5 -164.5t157.5 -452.5q0 -307 -155.5 -471t-425.5 -164t-427 162.5t-157 462.5zM258 723q0 -123 31.5 -247.5t86 -227.5t138 -167.5t178.5 -64.5q97 0 170 63.5t108.5 163t35.5 218.5q0 161 -54.5 320.5t-159.5 270.5 t-233 111q-99 0 -169 -63t-101 -160t-31 -217zM393 1737h189q3 -40 30 -81.5t65.5 -77.5t79 -69.5t78.5 -72t56 -72.5l-35 -16q-31 38 -91.5 74t-121.5 65t-119 62.5t-94.5 81t-36.5 106.5z" />
<glyph unicode="&#xf3;" d="M47 590q0 293 158.5 460t425.5 167q266 0 423.5 -164.5t157.5 -452.5q0 -307 -155.5 -471t-425.5 -164t-427 162.5t-157 462.5zM258 723q0 -123 31.5 -247.5t86 -227.5t138 -167.5t178.5 -64.5q97 0 170 63.5t108.5 163t35.5 218.5q0 161 -54.5 320.5t-159.5 270.5 t-233 111q-99 0 -169 -63t-101 -160t-31 -217zM276 1364q18 34 56 72t78.5 72t79.5 70t66 77.5t30 81.5h188q0 -59 -36.5 -106.5t-94.5 -81t-119 -62.5t-121.5 -65t-91.5 -74z" />
<glyph unicode="&#xf4;" d="M47 590q0 293 158.5 460t425.5 167q266 0 423.5 -164.5t157.5 -452.5q0 -307 -155.5 -471t-425.5 -164t-427 162.5t-157 462.5zM258 723q0 -123 31.5 -247.5t86 -227.5t138 -167.5t178.5 -64.5q97 0 170 63.5t108.5 163t35.5 218.5q0 161 -54.5 320.5t-159.5 270.5 t-233 111q-99 0 -169 -63t-101 -160t-31 -217zM268 1364q0 44 31 84t76.5 71.5t92 62.5t84.5 71t48 84h49q10 -44 49 -84t87.5 -71t96 -62.5t79.5 -71.5t32 -84h-194q0 50 -28 103t-77.5 120t-68.5 99q-17 -30 -64.5 -99t-72.5 -121t-25 -102h-195z" />
<glyph unicode="&#xf5;" d="M47 590q0 293 158.5 460t425.5 167q266 0 423.5 -164.5t157.5 -452.5q0 -307 -155.5 -471t-425.5 -164t-427 162.5t-157 462.5zM258 723q0 -123 31.5 -247.5t86 -227.5t138 -167.5t178.5 -64.5q97 0 170 63.5t108.5 163t35.5 218.5q0 161 -54.5 320.5t-159.5 270.5 t-233 111q-99 0 -169 -63t-101 -160t-31 -217zM293 1479q0 54 15.5 95t41 63.5t52 33t53.5 10.5q55 0 140.5 -32.5t165.5 -64.5t120 -32q32 0 46.5 18.5t14.5 67.5h25q0 -104 -41.5 -150t-106.5 -46q-53 0 -138.5 32t-166 64.5t-121.5 32.5q-78 0 -78 -94z" />
<glyph unicode="&#xf6;" d="M47 590q0 293 158.5 460t425.5 167q266 0 423.5 -164.5t157.5 -452.5q0 -307 -155.5 -471t-425.5 -164t-427 162.5t-157 462.5zM258 723q0 -123 31.5 -247.5t86 -227.5t138 -167.5t178.5 -64.5q97 0 170 63.5t108.5 163t35.5 218.5q0 161 -54.5 320.5t-159.5 270.5 t-233 111q-99 0 -169 -63t-101 -160t-31 -217zM412 1518q0 33 24 56t58 23t57.5 -22.5t23.5 -56.5q0 -35 -23.5 -58.5t-57.5 -23.5t-58 23.5t-24 58.5zM686 1518q0 33 24 56t58 23t57 -22.5t23 -56.5q0 -35 -23 -58.5t-57 -23.5t-58 23.5t-24 58.5z" />
<glyph unicode="&#xf7;" horiz-adv-x="878" d="M63 608v47h752v-47h-752zM328 315q0 52 35 86.5t86 34.5t85.5 -34.5t34.5 -86.5q0 -51 -34.5 -84.5t-85.5 -33.5t-86 33.5t-35 84.5zM328 963q0 51 35 85.5t86 34.5t85.5 -34.5t34.5 -85.5t-34.5 -86t-85.5 -35t-86 35t-35 86z" />
<glyph unicode="&#xf8;" d="M47 590q0 293 158.5 460t425.5 167q84 0 168 -19l92 326h47l-96 -338q174 -58 272 -210t98 -376q0 -307 -155.5 -471t-425.5 -164q-69 0 -133 12l-90 -317h-48l93 326q-191 48 -298.5 203t-107.5 401zM258 723q0 -177 62 -350t167 -269l277 975q-94 84 -205 84 q-99 0 -169 -63t-101 -160t-31 -217zM524 72q82 -56 168 -56q97 0 170 63.5t108.5 163t35.5 218.5q0 159 -55 320t-150 263z" />
<glyph unicode="&#xf9;" horiz-adv-x="1196" d="M78 324v860h227v-908q0 -138 67 -199t173 -61t219 45q96 39 127 35v1086h227v-1182h-41q-59 76 -129 76q-49 0 -143 -41q-57 -22 -89.5 -33.5t-95.5 -24t-124 -12.5q-185 0 -301.5 98t-116.5 261zM360 1737h189q3 -40 30 -81.5t65.5 -77.5t79 -69.5t78.5 -72t56 -72.5 l-35 -16q-31 38 -91.5 74t-121.5 65t-119 62.5t-94.5 81t-36.5 106.5z" />
<glyph unicode="&#xfa;" horiz-adv-x="1196" d="M78 324v860h227v-908q0 -138 67 -199t173 -61t219 45q96 39 127 35v1086h227v-1182h-41q-59 76 -129 76q-49 0 -143 -41q-57 -22 -89.5 -33.5t-95.5 -24t-124 -12.5q-185 0 -301.5 98t-116.5 261zM244 1364q18 34 56 72.5t78.5 72t79 69.5t65.5 77.5t30 81.5h188 q0 -59 -36 -106.5t-94 -81t-119 -62.5t-121.5 -65t-91.5 -74z" />
<glyph unicode="&#xfb;" horiz-adv-x="1196" d="M78 324v860h227v-908q0 -138 67 -199t173 -61t219 45q96 39 127 35v1086h227v-1182h-41q-59 76 -129 76q-49 0 -143 -41q-57 -22 -89.5 -33.5t-95.5 -24t-124 -12.5q-185 0 -301.5 98t-116.5 261zM238 1364q0 37 22 72t56 60.5t74.5 54t77 54t65 60.5t36.5 72h49 q10 -44 49 -84t88 -71t96.5 -62.5t79.5 -71.5t32 -84h-195q0 50 -28 103t-77.5 120t-68.5 99q-17 -30 -64.5 -99t-72.5 -121t-25 -102h-194z" />
<glyph unicode="&#xfc;" horiz-adv-x="1196" d="M78 324v860h227v-908q0 -138 67 -199t173 -61t219 45q96 39 127 35v1086h227v-1182h-41q-59 76 -129 76q-49 0 -143 -41q-57 -22 -89.5 -33.5t-95.5 -24t-124 -12.5q-185 0 -301.5 98t-116.5 261zM381 1518q0 33 24 56t58 23t58 -23t24 -56q0 -35 -24 -58.5t-58 -23.5 t-58 23.5t-24 58.5zM655 1518q0 33 24 56t58 23t57 -22.5t23 -56.5q0 -35 -23 -58.5t-57 -23.5t-58 23.5t-24 58.5z" />
<glyph unicode="&#xfd;" horiz-adv-x="1032" d="M-178 -164q54 0 107 -20.5t98 -51t88.5 -61.5t96 -57.5t103.5 -34.5q106 -10 173 44.5t75.5 156.5t-53.5 245l-514 1127h227l457 -1004l135 387q37 102 50.5 224t6.5 221.5t-28 171.5h239l-376 -1075q45 -169 2.5 -292.5t-148 -191.5t-237.5 -61q-54 2 -128.5 19 t-128.5 31.5t-125.5 20.5t-119.5 -14v215zM162 1364q18 34 56 72.5t78.5 72t79 69.5t65.5 77.5t30 81.5h188q0 -59 -36 -106.5t-94 -81t-119 -62.5t-121.5 -65t-91.5 -74z" />
<glyph unicode="&#xfe;" d="M100 -346v1784h228v-527q90 152 209.5 226.5t244.5 74.5q87 0 165.5 -38.5t138.5 -108.5t94.5 -176.5t33.5 -233.5q-2 -128 -34.5 -239t-87.5 -191.5t-127.5 -138.5t-155 -86.5t-168.5 -28.5q-178 0 -313 117v-434h-228zM328 162q125 -107 260 -107q167 0 283 149.5 t116 399.5q0 236 -84.5 366t-212.5 130q-93 0 -188 -70t-174 -207v-661z" />
<glyph unicode="&#xff;" horiz-adv-x="1032" d="M-178 -164q54 0 107 -20.5t98 -51t88.5 -61.5t96 -57.5t103.5 -34.5q106 -10 173 44.5t75.5 156.5t-53.5 245l-514 1127h227l457 -1004l135 387q37 102 50.5 224t6.5 221.5t-28 171.5h239l-376 -1075q45 -169 2.5 -292.5t-148 -191.5t-237.5 -61q-54 2 -128.5 19 t-128.5 31.5t-125.5 20.5t-119.5 -14v215zM297 1518q0 33 24 56t58 23t58 -23t24 -56q0 -35 -24 -58.5t-58 -23.5t-58 23.5t-24 58.5zM571 1518q0 33 24 56t58 23t57 -22.5t23 -56.5q0 -35 -23 -58.5t-57 -23.5t-58 23.5t-24 58.5z" />
<glyph unicode="&#x152;" horiz-adv-x="1982" d="M59 711q0 104 28.5 205.5t91 196.5t151.5 166.5t221 115t289 43.5h227q150 0 351 -12t311 -12t169 24v-246h-10q-54 0 -112 19.5t-116 48t-124.5 57t-161.5 49.5t-203 23l-104 2v-557h317q48 0 81.5 2.5t67.5 11.5t57 25t42.5 43.5t30.5 66.5h20v-354h-20 q-11 44 -31 73.5t-41 45.5t-58.5 24.5t-66.5 10t-82 1.5h-317v-737q106 3 204.5 24t175 49t149.5 56t156 47t167 19h10v-242q-88 32 -207.5 39t-217.5 -2t-230 -22t-207 -15h-227q-198 1 -350 57.5t-245 154.5t-139.5 224t-46.5 275zM287 711q0 -89 17 -174.5t58 -171 t102.5 -151.5t158 -110.5t217.5 -52.5v1335q-133 -5 -234.5 -51.5t-160.5 -113.5t-96 -159t-49.5 -175.5t-12.5 -175.5z" />
<glyph unicode="&#x153;" horiz-adv-x="2275" d="M47 596q0 303 148.5 462t427.5 159q154 0 289 -80.5t210 -216.5q74 143 226 220t348 77q236 0 364.5 -96.5t128.5 -233.5q0 -114 -68.5 -200.5t-173.5 -126t-221 -32.5q-156 8 -230.5 -18t-115.5 -119l-37 84q18 54 68 77t120.5 21t162.5 -6q75 -4 129.5 21t83.5 73 t42 103.5t13 122.5q0 57 -13.5 104.5t-43.5 88.5t-86 64t-133 23q-182 0 -305.5 -157t-123.5 -392q0 -135 44 -250t115.5 -189t159 -115t177.5 -41q49 0 94.5 19.5t79 47t72 75t62.5 83.5t61 95t57 89l39 -180q-40 -51 -91 -96.5t-120.5 -89t-159 -69.5t-184.5 -26 q-145 0 -292.5 79.5t-229.5 223.5q-64 -155 -194.5 -232t-303.5 -77q-126 0 -235 44.5t-189 124.5t-126 199.5t-46 262.5zM268.5 763q-0.5 -79 7.5 -159q15 -155 71 -288t147.5 -216.5t197.5 -83.5q74 0 132.5 32.5t93 87t56.5 126t24 150.5t-5 159q-16 155 -74.5 289 t-153 218.5t-202.5 84.5q-73 0 -130 -33t-90 -88.5t-53.5 -127.5t-21 -151z" />
<glyph unicode="&#x178;" horiz-adv-x="923" d="M-147 1438h227l440 -756l131 213q54 88 85.5 176.5t39.5 137.5t13 129t8 100h227l-485 -803v-635h-228v635zM244 1772q0 33 24 56t58 23t58 -23t24 -56q0 -35 -24 -58.5t-58 -23.5t-58 23.5t-24 58.5zM518 1772q0 33 24 56t58 23t57 -22.5t23 -56.5q0 -35 -23 -58.5 t-57 -23.5t-58 23.5t-24 58.5z" />
<glyph unicode="&#x2000;" horiz-adv-x="995" />
<glyph unicode="&#x2001;" horiz-adv-x="1991" />
<glyph unicode="&#x2002;" horiz-adv-x="995" />
<glyph unicode="&#x2003;" horiz-adv-x="1991" />
<glyph unicode="&#x2004;" horiz-adv-x="663" />
<glyph unicode="&#x2005;" horiz-adv-x="497" />
<glyph unicode="&#x2006;" horiz-adv-x="331" />
<glyph unicode="&#x2007;" horiz-adv-x="331" />
<glyph unicode="&#x2008;" horiz-adv-x="248" />
<glyph unicode="&#x2009;" horiz-adv-x="398" />
<glyph unicode="&#x200a;" horiz-adv-x="110" />
<glyph unicode="&#x2010;" horiz-adv-x="577" d="M63 596v49h451v-49h-451z" />
<glyph unicode="&#x2011;" horiz-adv-x="577" d="M63 596v49h451v-49h-451z" />
<glyph unicode="&#x2012;" horiz-adv-x="577" d="M63 596v49h451v-49h-451z" />
<glyph unicode="&#x2013;" horiz-adv-x="905" d="M63 596v49h779v-49h-779z" />
<glyph unicode="&#x2014;" horiz-adv-x="1056" d="M63 596v49h930v-49h-930z" />
<glyph unicode="&#x2018;" horiz-adv-x="258" d="M63 1147l82 401h48l-82 -401h-48z" />
<glyph unicode="&#x2019;" horiz-adv-x="258" d="M63 1147l82 401h48l-82 -401h-48z" />
<glyph unicode="&#x201a;" horiz-adv-x="258" d="M63 -233l82 401h48l-82 -401h-48z" />
<glyph unicode="&#x201c;" horiz-adv-x="401" d="M63 1147l82 401h48l-82 -401h-48zM207 1147l82 401h47l-82 -401h-47z" />
<glyph unicode="&#x201d;" horiz-adv-x="401" d="M63 1147l82 401h48l-82 -401h-48zM207 1147l82 401h47l-82 -401h-47z" />
<glyph unicode="&#x201e;" horiz-adv-x="389" d="M63 -233l82 401h48l-82 -401h-48zM197 -233l82 401h47l-82 -401h-47z" />
<glyph unicode="&#x2022;" horiz-adv-x="610" d="M137 524q0 101 69.5 171.5t170.5 70.5q102 0 171.5 -70t69.5 -172q0 -103 -69 -172t-172 -69q-101 0 -170.5 69.5t-69.5 171.5z" />
<glyph unicode="&#x2026;" horiz-adv-x="1110" d="M100 86q0 52 35 86.5t86 34.5t86 -34.5t35 -86.5q0 -51 -35 -86t-86 -35t-86 35t-35 86zM473 86q0 52 35 86.5t86 34.5t86 -34.5t35 -86.5q0 -51 -35 -86t-86 -35t-86 35t-35 86zM842 86q0 52 34 86.5t87 34.5q51 0 85.5 -34.5t34.5 -86.5q0 -51 -34.5 -86t-85.5 -35 q-52 0 -86.5 35t-34.5 86z" />
<glyph unicode="&#x202f;" horiz-adv-x="398" />
<glyph unicode="&#x2039;" horiz-adv-x="802" d="M63 655v9l676 442v-47l-606 -402l606 -405v-47z" />
<glyph unicode="&#x203a;" horiz-adv-x="802" d="M63 205v47l609 405l-609 402v47l676 -442v-9z" />
<glyph unicode="&#x205f;" horiz-adv-x="497" />
<glyph unicode="&#x20ac;" horiz-adv-x="1503" d="M63 565v47h144q-8 52 -8 121v37h-136v47h140q11 129 55.5 236.5t113 183.5t157 129.5t188 78.5t205.5 25q76 0 159.5 -14.5t136 -28t110.5 -13.5t104 24v-287q-55 0 -103.5 28t-85.5 67.5t-75.5 79t-91.5 67.5t-115 28q-153 0 -272 -78t-187 -214.5t-78 -311.5h391v-47 h-391q-1 -8 -1 -17t0.5 -20.5t0.5 -17.5q4 -70 10 -103h381v-47h-375q47 -247 195 -384.5t360 -137.5q121 0 229.5 59.5t186.5 173.5l29 -47q-84 -128 -227 -196t-308 -68q-111 0 -220.5 38.5t-205.5 110.5t-167.5 189t-98.5 262h-150z" />
<glyph unicode="&#x2122;" horiz-adv-x="1089" d="M63 1364l11 76h448l6 -74l4 74h68l154 -482l157 482h64l51 -522h-82l-43 430l-143 -430h-70l-141 440l-15 -246q-3 -105 27 -194h-90q17 38 30 95.5t15 98.5l14 252h-10q-13 0 -51.5 28.5t-73.5 28.5h-55v-503h-82v503h-55q-34 0 -56.5 -14.5t-38 -28.5t-32.5 -14h-11z " />
<glyph unicode="&#x25fc;" horiz-adv-x="1187" d="M0 0v1188h1188v-1188h-1188z" />
<glyph unicode="&#xfb01;" horiz-adv-x="1034" d="M-16 1137v47h219q-62 56 -101.5 120t-53 123t-5.5 113.5t36 95t78 64.5t115 24q73 0 145.5 -20t126.5 -42.5t111.5 -39t124 -9t140.5 47.5h18v-248h-16q-85 0 -161.5 27.5t-134.5 66.5t-113 78t-119 66.5t-130 27.5q-85 0 -95 -79q-10 -89 73 -218q72 -112 184 -198h524 v-1184h-227v1137h-293v-1137h-227v1137h-219z" />
</font>
</defs>
</svg>
