<?xml version="1.0" standalone="no"?>
<!DOCTYPE svg PUBLIC "-//W3C//DTD SVG 1.1//EN" "http://www.w3.org/Graphics/SVG/1.1/DTD/svg11.dtd" >
<svg xmlns="http://www.w3.org/2000/svg" xmlns:xlink="http://www.w3.org/1999/xlink" version="1.1">
<metadata></metadata>
<defs>
<font id="prettywisethin" horiz-adv-x="266" >
<font-face units-per-em="2048" ascent="1638" descent="-410" />
<missing-glyph horiz-adv-x="614" />
<glyph horiz-adv-x="0" />
<glyph horiz-adv-x="682" />
<glyph unicode=" "  horiz-adv-x="614" />
<glyph unicode="&#x09;" horiz-adv-x="614" />
<glyph unicode="&#xa0;" horiz-adv-x="614" />
<glyph unicode="!" d="M82 16q0 22 14.5 37t36.5 15t36.5 -15t14.5 -37t-14.5 -36.5t-36.5 -14.5t-36.5 14.5t-14.5 36.5zM92 1411q0 22 12 33.5t29 11.5t29 -11.5t12 -33.5q0 -88 -17.5 -403.5t-17.5 -735.5h-20q0 420 -13.5 735.5t-13.5 403.5z" />
<glyph unicode="&#x22;" horiz-adv-x="626" d="M82 1026q74 69 114.5 125.5t48.5 100t4.5 74t-14 69t-10.5 63.5h82q0 -48 -3 -84t-14.5 -87t-33 -92.5t-61 -89.5t-95.5 -89zM319 1026q62 58 100.5 108.5t52.5 85.5t16 70.5t-4.5 59t-13.5 54.5t-7 54h82q0 -48 -3 -84t-14.5 -87t-33 -92.5t-61 -89.5t-95.5 -89z" />
<glyph unicode="#" horiz-adv-x="1370" d="M82 549v31h401l70 180h-395v28h407l168 433h31l-168 -433h276l168 433h31l-168 -433h385v-28h-397l-70 -180h391v-31h-403l-172 -445h-31l172 445h-276l-172 -445h-31l172 445h-389zM514 580h277l69 180h-276z" />
<glyph unicode="$" horiz-adv-x="1255" d="M82 1159q0 100 68 172t175.5 105.5t239.5 33.5q33 0 47 -2v107h21v-107q74 -5 151 -22.5t119.5 -30t95 -9.5t103.5 32v-123h-10q-51 0 -101 18.5t-88 41t-110 44.5t-160 27v-608q53 -21 86 -34.5t82.5 -35.5t81.5 -39t73 -41.5t68 -46.5t56 -50.5t46 -57.5t29.5 -64 t15.5 -72q11 -130 -59 -230.5t-189.5 -151t-265.5 -50.5h-24v-100h-21v102q-75 3 -165 18.5t-146 28t-113.5 11t-95.5 -26.5v119h10q64 0 130.5 -18.5t116 -41t121 -43.5t142.5 -26v760q-220 93 -284 127q-187 96 -231 204q-15 38 -15 80zM143 1221q0 -38 14.5 -74t35.5 -64 t59.5 -57t72.5 -49.5t89.5 -46.5t94.5 -42.5t103 -41.5v602h-45q-103 0 -197.5 -24.5t-160.5 -78t-66 -124.5zM633 -14h24q186 0 322.5 93.5t136.5 225.5q0 52 -17.5 98.5t-53.5 86t-76.5 72t-101 65t-111.5 56.5t-123 54v-751z" />
<glyph unicode="%" horiz-adv-x="1546" d="M119 1122q0 61 8.5 112.5t30 101t55 84.5t88 56t125.5 21t125.5 -21t88 -56t55 -84.5t30 -101t8.5 -112.5q0 -75 -14.5 -138t-47 -119t-95 -88t-150.5 -32t-150.5 32t-95 88t-47 119t-14.5 138zM160 1122q0 -140 29 -220.5t85 -112t152 -31.5t152 31.5t85 112t29 220.5 t-29 220t-85 111.5t-152 31.5t-152 -31.5t-85 -111.5t-29 -220zM369 -137l848 1710h20l-848 -1710h-20zM887 332q0 61 8.5 112.5t30 101t55 84.5t88 56t125.5 21t125.5 -21t88 -56t55 -84.5t30 -101t8.5 -112.5q0 -59 -8 -111t-30 -102.5t-55.5 -86t-88 -57.5t-125.5 -22 t-125.5 22t-88 57.5t-55.5 86t-30 102.5t-8 111zM928 332q0 -140 29 -221t85.5 -113.5t151.5 -32.5t151.5 32.5t85.5 113.5t29 221t-29 220t-85 111t-152 31t-152 -31t-85 -111t-29 -220z" />
<glyph unicode="&#x26;" horiz-adv-x="1394" d="M82 332q0 100 43.5 193t142 172t238.5 116l-37 45q-59 74 -84 159.5t-12 163t53.5 142t116.5 103t172 38.5q127 0 201.5 -66t74.5 -165q0 -66 -41 -118t-137 -130l-14 21q56 34 87 89.5t30 113.5t-22 110t-69 85.5t-110 33.5q-59 0 -112 -20.5t-93 -57.5t-62 -91 t-22 -116.5t31.5 -139.5t93.5 -155l483 -610q27 6 54.5 15t60 26.5t57 39.5t41.5 55.5t17 72.5q0 43 -19.5 86t-48 78.5t-56.5 71t-47.5 78t-19.5 85.5v31h82q0 -45 16.5 -91t39.5 -84t46 -74.5t39.5 -76.5t16.5 -76q0 -20 -4 -41.5t-19.5 -54t-42 -60t-77.5 -56t-119 -46.5 l180 -227h-82l-252 319q-31 -26 -66 -75.5t-66.5 -94t-73 -88t-104.5 -69.5t-143 -25q-111 0 -195 51.5t-125.5 133.5t-41.5 180zM143.5 398q-9.5 -72 10.5 -136.5t57 -116t98 -82t135 -30.5q55 0 99 11t74 28t63 47.5t57 59.5t65 75.5t79 83.5l-363 457l-80 -33 q-91 -38 -157 -98t-97 -127t-40.5 -139z" />
<glyph unicode="'" horiz-adv-x="389" d="M82 1026q74 69 114.5 125.5t48.5 100t4.5 74t-14 69t-10.5 63.5h82q0 -48 -3 -84t-14.5 -87t-33 -92.5t-61 -89.5t-95.5 -89z" />
<glyph unicode="(" horiz-adv-x="692" d="M82 666q0 176 29 332t88 285.5t160.5 205.5t234.5 76v-21q-83 0 -154.5 -47.5t-130 -147.5t-92 -274.5t-33.5 -408.5q0 -190 23 -342.5t62 -255t94 -171t116.5 -98.5t130.5 -30v-21q-112 0 -202.5 52t-150 139t-100 206t-58 249t-17.5 272z" />
<glyph unicode=")" horiz-adv-x="692" d="M82 -231q69 0 130.5 30t116.5 98.5t94 171t62 255t23 342.5q0 234 -33.5 408.5t-92 274.5t-130 147.5t-154.5 47.5v21q133 0 234.5 -76t160.5 -205.5t88 -285.5t29 -332q0 -142 -17.5 -272t-58 -249t-100 -206t-150 -139t-202.5 -52v21z" />
<glyph unicode="*" horiz-adv-x="663" d="M82 1184v12h221l12 12l-174 172l11 11l172 -172v223h14v-211l160 160l10 -11l-170 -170v-6l8 -8h236v-12h-224l148 -148l-10 -10l-158 158v-244h-14v244h-13l-157 -158l-11 10l148 148h-209z" />
<glyph unicode="+" horiz-adv-x="915" d="M82 623v20h364v367h21v-367h367v-20h-367v-365h-21v365h-364z" />
<glyph unicode="," horiz-adv-x="389" d="M82 -190q74 69 114.5 125.5t48.5 100t4.5 74t-14 69t-10.5 63.5h82q0 -48 -3 -84t-14.5 -87t-33 -93t-61 -90t-95.5 -89z" />
<glyph unicode="-" horiz-adv-x="614" d="M82 610v21h450v-21h-450z" />
<glyph unicode="." horiz-adv-x="270" d="M82 18q0 23 15 38.5t38 15.5t38 -15.5t15 -38.5t-15 -38t-38 -15t-38 15t-15 38z" />
<glyph unicode="/" horiz-adv-x="733" d="M82 -299l536 1884h33l-536 -1884h-33z" />
<glyph unicode="0" horiz-adv-x="1392" d="M82 721q0 85 8.5 161t28.5 153t51 140.5t80 119t111.5 93.5t147.5 60t187 22t187.5 -22t148 -60t111 -93.5t80 -119t51.5 -140.5t28.5 -153t8.5 -161q0 -120 -16.5 -223.5t-60 -204t-111 -171t-177 -114t-250.5 -43.5t-250.5 43.5t-176.5 114t-110.5 171t-60 204 t-16.5 223.5zM164 721q0 -170 20.5 -293.5t60 -208t105 -135t149 -72.5t197.5 -22t197.5 22t149 72.5t105.5 135t60.5 208t20.5 293.5q0 211 -30.5 351t-98.5 223t-164.5 117t-239.5 34t-239.5 -34t-164 -117t-98 -223t-30.5 -351z" />
<glyph unicode="1" horiz-adv-x="520" d="M37 1208v21l342 209h14v-1438h-82v1376z" />
<glyph unicode="2" horiz-adv-x="1372" d="M82 0v61q0 115 40.5 213.5t109 170t157.5 132.5t187.5 107t197 86.5t187.5 78.5t157.5 76.5t109 86.5t40.5 102q0 139 -131 231.5t-310 92.5q-74 0 -149 -20.5t-136.5 -50t-121 -58.5t-125 -49.5t-127.5 -20.5v123q70 -10 115.5 -4.5t107.5 21t115 32.5t136.5 30 t172.5 13q109 0 195 -24t137 -61t85 -84.5t46 -89.5t12 -81q0 -82 -40.5 -150.5t-108.5 -118t-156.5 -93t-186.5 -82t-195.5 -79t-186 -91t-156.5 -110t-108.5 -144t-40.5 -185.5v-36h428q141 0 291.5 20.5t254 34.5t166.5 4v-82q-85 18 -183 21t-174 -3t-179.5 -13 t-175.5 -7h-457z" />
<glyph unicode="3" horiz-adv-x="1286" d="M82 0v82q90 0 182.5 -22.5t190.5 -45t202 -22.5q114 0 208 33t155 89t94 127.5t33 149.5q0 76 -31.5 149t-93 138t-163 114.5t-230.5 73.5l463 490h-875v82h967v-15l-486 -516q129 -27 228.5 -77.5t159 -115t89 -136t29.5 -148.5q0 -87 -37.5 -170t-103.5 -147 t-164.5 -103t-212.5 -39q-69 0 -147.5 7.5t-139 16t-119.5 15.5t-109.5 5t-88.5 -15z" />
<glyph unicode="4" horiz-adv-x="1308" d="M82 428v10l987 1000h4v-989h154v-21h-154v-428h-82v428h-909zM129 449h862v870z" />
<glyph unicode="5" horiz-adv-x="1331" d="M82 0v82h10q83 0 172 -22t185.5 -44t199.5 -22q98 0 190 36.5t164.5 102.5t116 168t43.5 223q0 100 -54.5 197t-159.5 170t-258.5 92t-352.5 -37l-186 -55l172 547h915l10 -254h-20q0 82 -42.5 127t-158.5 45h-704l-146 -434q224 67 303 84t185 18q261 0 420 -138 t159 -362q0 -136 -48 -243t-131 -173t-189 -100.5t-228 -34.5q-86 0 -178.5 11t-143.5 21t-121.5 11.5t-113.5 -16.5h-10z" />
<glyph unicode="6" horiz-adv-x="1366" d="M82 700q0 131 34 244t94 196.5t140 148.5t174 103.5t194.5 58t202.5 15.5t197 -28v-82q-92 33 -186 48t-188.5 9.5t-179 -32t-158.5 -82t-127.5 -134.5t-84 -196t-30.5 -260q0 -174 45 -314t121.5 -228t174.5 -134.5t208 -46.5q108 0 194.5 32t154 100.5t104 185.5 t36.5 276q0 126 -35.5 222.5t-97.5 155t-141 88t-172 29.5q-84 0 -133.5 -30.5t-73 -84t-39.5 -111.5t-48.5 -129t-84.5 -122l-60 137q31 11 59 38.5t51 62.5t47.5 74.5t55 76.5t68 67.5t91.5 49t120 18.5q61 0 125 -19.5t127 -63t112.5 -105t80 -153.5t30.5 -201 q0 -127 -35 -233t-92.5 -177t-132.5 -120.5t-154 -72t-159 -22.5q-277 0 -453 207t-176 538z" />
<glyph unicode="7" horiz-adv-x="1148" d="M82 1124v314h985v-113q-42 -22 -72.5 -40t-86 -57t-98 -78.5t-98.5 -104t-98 -133.5t-85 -167t-71 -205.5t-45.5 -246.5t-17.5 -293h-102q0 136 17 261.5t43.5 225t69 193.5t83.5 163t96.5 137t100 112t101.5 91.5t92.5 72t83 57t62.5 43.5h-841q-57 0 -78 -56t-21 -176 h-20z" />
<glyph unicode="8" horiz-adv-x="1292" d="M82 379q0 88 34 159.5t93 119t131.5 77t155.5 39.5q-128 0 -227 96t-99 240q0 76 28.5 139.5t85.5 114t153 78.5t222 28q219 0 344 -103t125 -257q0 -71 -30 -136t-75.5 -107.5t-99 -67.5t-100.5 -25q172 -22 279.5 -122t107.5 -273q0 -187 -141.5 -300.5t-409.5 -113.5 q-271 0 -424 114.5t-153 299.5zM164 379q0 -21 2.5 -44.5t14 -63.5t31 -76t57 -75.5t88 -68t128.5 -47t174 -18.5q87 0 159 18.5t119.5 47t84 67.5t56 76t31.5 76t15.5 64t3.5 44q0 40 -3 71t-14 72t-29.5 72t-54 63t-84 52.5t-121 33.5t-163.5 13q-97 0 -174.5 -13 t-128.5 -33.5t-88 -52.5t-56.5 -62.5t-31 -72t-14 -72.5t-2.5 -71zM252 1110q0 -58 10.5 -104.5t38.5 -89t73 -71t117 -45t168 -16.5q112 0 190 24.5t120 70.5t60 102t18 129q0 24 -2 46.5t-10.5 58.5t-23.5 65.5t-44.5 62.5t-69 55.5t-101 37t-137.5 14.5q-84 0 -151 -14.5 t-109 -34.5t-72 -53t-44 -59t-21.5 -65t-8.5 -57t-1 -48v-5v-4z" />
<glyph unicode="9" horiz-adv-x="1366" d="M82 844q0 127 35 232.5t92.5 176.5t132.5 120.5t154 72t159 22.5q277 0 453 -207t176 -538q0 -162 -47 -294.5t-128.5 -220t-189 -146.5t-230.5 -81.5t-250.5 -18t-252.5 37.5v82q91 -32 183 -52t193.5 -23.5t192 14t173.5 67t143 128.5t95.5 206.5t35.5 292.5 q0 174 -45 314t-121.5 228t-174.5 134.5t-208 46.5q-108 0 -194.5 -32t-154 -100.5t-104 -185.5t-36.5 -276q0 -126 35.5 -223t97.5 -155.5t141 -88t172 -29.5q61 0 105.5 18t71 49t45.5 69.5t33.5 81.5t29 82t39 75t57.5 57l45 -73q-35 -18 -66.5 -57.5t-54.5 -83.5 t-56 -92t-69 -86t-96.5 -62.5t-136.5 -24.5q-61 0 -125 19.5t-127 63.5t-112.5 105.5t-80 153.5t-30.5 201z" />
<glyph unicode=":" horiz-adv-x="270" d="M82 18q0 23 15 38.5t38 15.5t38 -15.5t15 -38.5t-15 -38t-38 -15t-38 15t-15 38zM82 651q0 23 15 38.5t38 15.5t38 -15.5t15 -38.5t-15 -38t-38 -15t-38 15t-15 38z" />
<glyph unicode=";" horiz-adv-x="389" d="M82 -190q74 69 114.5 125.5t48.5 100t4.5 74t-14 69t-10.5 63.5h82q0 -48 -3 -84t-14.5 -87t-33 -93t-61 -90t-95.5 -89zM145 651q0 23 15.5 38.5t38.5 15.5t38 -15.5t15 -38.5t-15 -38t-38 -15t-38.5 15t-15.5 38z" />
<glyph unicode="&#x3c;" horiz-adv-x="839" d="M82 655v9l676 442v-21l-647 -426l647 -434v-20z" />
<glyph unicode="=" horiz-adv-x="915" d="M82 516v21h752v-21h-752zM82 723v20h752v-20h-752z" />
<glyph unicode="&#x3e;" horiz-adv-x="839" d="M82 205v20l647 434l-647 426v21l676 -442v-9z" />
<glyph unicode="?" horiz-adv-x="1101" d="M82 1184q0 70 39 126.5t104 90.5t145.5 51.5t168.5 17.5q124 0 231.5 -31.5t178.5 -98t71 -156.5q0 -75 -34.5 -136.5t-88 -104.5t-118.5 -82.5t-127 -79.5t-111.5 -86.5t-74.5 -113.5t-13 -149h-21q-12 78 10 144t65.5 114t99.5 92.5t114 88t106.5 90t79.5 110t31 137.5 q0 76 -56 132t-140.5 82t-182.5 26q-103 0 -190.5 -28t-146 -89.5t-58.5 -146.5q0 -62 19.5 -112t44.5 -94t32 -77l-18 -4q-5 25 -23.5 51t-41 50t-44.5 50t-36.5 61.5t-14.5 74.5zM391 18q0 23 15 38.5t38 15.5t38.5 -15.5t15.5 -38.5t-15.5 -38t-38.5 -15t-38 15t-15 38z " />
<glyph unicode="@" horiz-adv-x="1847" d="M82 662q0 178 68 338t187 278t291.5 187t370.5 69q328 0 522.5 -174.5t194.5 -458.5q0 -89 -26 -174.5t-69.5 -154t-100 -127t-117.5 -98t-121.5 -61.5t-112.5 -22q-69 0 -108 40t-39 122q0 37 14 78h-12q-114 -146 -268 -146q-95 0 -141 58t-46 155q0 64 20 135.5 t58 139t87 122.5t112 88.5t129 33.5q15 0 30.5 -1t27 -2.5t26.5 -4.5l22.5 -4.5t23 -6t20 -6t20.5 -6.5t18 -6q3 -1 17 -5t18 -5.5t16 -4.5t17.5 -3.5t16 -2.5t17.5 -1t17 1.5t19 3t18 6.5q-137 -294 -207 -534q-32 -94 -11.5 -152.5t105.5 -58.5q47 0 102 24.5t110.5 76.5 t100.5 122t73 171t28 214q0 173 -78.5 310.5t-222.5 215.5t-328 78q-132 0 -252.5 -35.5t-223 -108.5t-177.5 -175.5t-117.5 -243.5t-42.5 -307q0 -137 43 -254.5t115 -200.5t166.5 -142t198 -87.5t208.5 -28.5q86 0 174 18t164.5 44t154 52t172.5 44t191 18v-88 q-124 0 -268.5 -27.5t-295 -55t-288.5 -27.5q-153 0 -286 39t-232 109t-170 164.5t-107 208t-36 237.5zM655 535q0 -72 33.5 -110t87.5 -38q77 0 159.5 62t119.5 155l162 397q-19 4 -61.5 16.5t-73 18.5t-60.5 6q-60 0 -124.5 -38t-118.5 -102.5t-89 -162t-35 -204.5z" />
<glyph unicode="A" horiz-adv-x="1198" d="M-20 0l557 1438h59l612 -1438h-127q0 75 -14.5 149.5t-30.5 123t-58.5 164t-68.5 190.5h-626l-238 -627h-65zM291 647h608l-27 64l-290 700z" />
<glyph unicode="B" horiz-adv-x="1118" d="M92 0v1438h449q109 0 193 -30.5t133 -82t73.5 -113.5t24.5 -131q0 -116 -63.5 -213t-162.5 -123v-10q162 -17 245 -109t83 -235q0 -69 -29 -136t-85 -125t-151 -94t-214 -36h-496zM174 20h379q104 0 188.5 32.5t136.5 86.5t79.5 119t27.5 133q0 141 -98.5 237.5 t-253.5 96.5h-459v-705zM174 745h440q124 0 197.5 93t73.5 221q0 67 -23 129.5t-67.5 114.5t-118.5 83t-168 31h-334v-672z" />
<glyph unicode="C" horiz-adv-x="1316" d="M82 733q0 144 39 267t103.5 208t149.5 145.5t176 88.5t183 28q74 0 157.5 -15t136.5 -29q51 -14 108 -14h4q59 0 104 26v-131q-62 0 -128 21.5t-114.5 48t-111 48t-117.5 21.5q-154 0 -276.5 -60.5t-198 -165t-110.5 -243.5q-26 -104 -26 -218q0 -39 3 -79 q13 -176 67 -309t140 -212t192 -118t232 -39q131 0 245.5 63.5t190.5 180.5l20 -19q-78 -126 -217.5 -194t-302.5 -68q-87 0 -176 28.5t-174.5 91t-151.5 150.5t-106.5 217t-40.5 281z" />
<glyph unicode="D" horiz-adv-x="1286" d="M92 0v1438h496q291 0 453.5 -174.5t162.5 -518.5q0 -156 -35 -281.5t-96 -211t-147 -143t-185 -83.5t-213 -26h-436zM174 20h291q128 0 227 21.5t181.5 73t136 134t83 207t29.5 289.5q0 169 -32 290.5t-105.5 209t-196.5 130t-301 42.5h-313v-1397z" />
<glyph unicode="E" horiz-adv-x="1169" d="M92 0v1438h82q208 0 435.5 -10.5t322 -10.5t137.5 21v-115h-10q-79 0 -186.5 21.5t-254 44.5t-313.5 26l-131 2v-598h395q108 0 163 15.5t77 48t33 100.5h20v-354h-20q-5 41 -11.5 67t-21 46.5t-30.5 30.5t-48.5 16.5t-67.5 8t-94 1.5h-395v-779q173 1 435 37.5t384 36.5 q33 0 107 -4v-90q-89 24 -253 24t-376.5 -12t-296.5 -12h-82z" />
<glyph unicode="F" horiz-adv-x="1044" d="M92 0v1438h82q85 0 205.5 -11.5t205.5 -20.5q51 -5 110 -5q39 0 82 2q107 6 198 35v-127h-10q-82 0 -204 26.5t-275.5 53t-311.5 26.5v-598h170q248 0 340.5 23t106.5 100h20v-272h-20q-14 83 -104.5 106t-342.5 23h-170v-799h-82z" />
<glyph unicode="G" horiz-adv-x="1357" d="M82 711q0 142 37 266t100.5 213t147.5 153t178.5 95.5t193.5 31.5q68 0 153 -17.5t143 -33.5q53 -15 110 -15h11q62 2 106 34v-121q-24 -3 -47 -3q-34 0 -68 6q-56 11 -103 32t-92.5 43t-102 38.5t-114.5 16.5q-112 0 -215.5 -54.5t-182.5 -151t-126 -242.5t-47 -318 q0 -126 34 -237t92 -191t133.5 -138.5t160.5 -87t172 -28.5q52 0 104.5 5.5t89 12t82 19.5t65.5 19.5t60 21t45 16.5v383q0 98 -15.5 152.5t-51.5 87.5v33h133v-668q-38 -11 -143.5 -48t-188 -54t-186.5 -17q-139 0 -261 53t-212 148t-142.5 236t-52.5 309z" />
<glyph unicode="H" horiz-adv-x="1191" d="M92 0v1438h82v-627h844v627h82v-1438h-82v782h-844v-782h-82z" />
<glyph unicode="I" d="M92 0v1438h82v-1438h-82z" />
<glyph unicode="J" horiz-adv-x="1034" d="M10 0v119h10q56 0 111 -14.5t99.5 -34.5t88.5 -40.5t94.5 -35t100.5 -14.5q55 0 112.5 24.5t109 70.5t84 124.5t32.5 175.5v1063h82v-998q0 -130 -29 -223t-85.5 -147t-131.5 -78.5t-174 -24.5q-54 0 -122 9.5t-123 20t-107 19.5q-38 6 -70 6q-11 0 -22 -1 q-39 -3 -60 -21z" />
<glyph unicode="K" horiz-adv-x="1169" d="M92 0v1438h82v-961l596 635q50 54 79.5 102.5t59.5 117.5t49 106h154l-450 -475h69l455 -963h-82l-451 954l-479 -503v-451h-82z" />
<glyph unicode="L" horiz-adv-x="911" d="M92 0v1438h82v-1420h201q105 0 217.5 21.5t199 43t126.5 21.5v-104h-826z" />
<glyph unicode="M" horiz-adv-x="1462" d="M47 2q35 139 60 290.5t30 248.5l47 897h80l455 -1407l463 1407h82l139 -1438h-82l-137 1378l-455 -1378h-82l-440 1382l-49 -841v-111v-70v-48q0 -38 2 -99t8 -111.5t16 -101.5z" />
<glyph unicode="N" horiz-adv-x="1277" d="M109 0q3 25 12.5 94t12 93.5t8.5 90t8 121t4 147.5t2 206v659l-19 27h90l967 -1407v600q0 231 -9 403.5t-15.5 226.5t-24.5 179l123 -2q-20 -126 -27 -178.5t-17 -225.5t-10 -403v-631h-81l-957 1380v-628q0 -135 2.5 -233.5t9 -176.5t11 -116.5t16 -115t16.5 -110.5 h-122z" />
<glyph unicode="O" horiz-adv-x="1380" d="M82 711q0 107 21.5 212t69.5 204.5t117.5 175t172.5 121.5t227 46t227 -46t172.5 -121.5t117.5 -175t69.5 -204.5t21.5 -212q0 -149 -44 -284.5t-122 -237.5t-193 -162t-249 -60t-249 60t-193 162t-122 237.5t-44 284.5zM164 711q0 -92 19 -189.5t61.5 -193.5t102 -171 t149 -122t194.5 -47q110 0 201.5 47t150 122t99.5 171.5t58.5 193t17.5 189.5q0 63 -9 131t-29 140.5t-49 139.5t-72 127t-95.5 104.5t-123 70.5t-149.5 26q-98 0 -179.5 -34.5t-137.5 -94t-98 -133.5t-65.5 -159t-34.5 -164t-11 -154z" />
<glyph unicode="P" horiz-adv-x="980" d="M92 0v1438h357q101 0 184.5 -25t140.5 -67.5t96 -100t56.5 -120.5t17.5 -132q0 -88 -29.5 -171.5t-82 -150t-133 -107t-175.5 -40.5q-100 0 -189.5 40.5t-152.5 119.5h-8v-684h-82zM174 729q62 -82 141 -123t162 -41q90 0 164.5 36t121.5 96t73 135.5t26 156.5 q0 65 -16.5 126.5t-52 116.5t-87 96t-125.5 65t-163 24h-244v-688z" />
<glyph unicode="Q" horiz-adv-x="1380" d="M82 711q0 107 21.5 212t69.5 204.5t117.5 175t172.5 121.5t227 46t227 -46t172.5 -121.5t117.5 -175t69.5 -204.5t21.5 -212q0 -112 -24.5 -217t-71.5 -194.5t-112 -159t-151 -114t-183 -55.5q42 -8 81.5 -28t70.5 -41.5t63.5 -42t73 -34t85.5 -13.5q48 0 113 18v-98 q-65 -15 -113 -15q-59 0 -103.5 18.5t-69.5 46.5t-51.5 60t-50.5 60t-66.5 46.5t-98.5 18.5q-134 0 -249 60t-193 162t-122 237.5t-44 284.5zM164 711q0 -92 19 -189.5t61.5 -193.5t102 -171t149 -122t194.5 -47q110 0 201.5 47t150 122t99.5 171.5t58.5 193t17.5 189.5 q0 63 -9 131t-29 140.5t-49 139.5t-72 127t-95.5 104.5t-123 70.5t-149.5 26q-98 0 -179.5 -34.5t-137.5 -94t-98 -133.5t-65.5 -159t-34.5 -164t-11 -154z" />
<glyph unicode="R" horiz-adv-x="1138" d="M92 0v1438h559q88 0 161 -35t118.5 -93.5t70.5 -131t25 -150.5q0 -123 -59.5 -225t-173.5 -150q25 -74 73 -161.5t92 -155.5t89.5 -160t68.5 -176h-74q-21 81 -64 169t-85.5 153t-88.5 149.5t-69 155.5h-561v-627h-82zM174 647h430q85 0 154.5 33t113 88.5t66.5 124.5 t23 143q0 73 -23 140t-66.5 121.5t-115 87t-160.5 32.5h-422v-770z" />
<glyph unicode="S" horiz-adv-x="1228" d="M68 1159q0 100 68 172t175.5 105.5t239.5 33.5q77 0 150 -12t119.5 -25t91.5 -23q28 -6 54 -5q18 0 34 2q42 6 87 31v-123h-10q-54 0 -108 21t-96 45.5t-126.5 45.5t-193.5 21q-103 0 -197.5 -24.5t-160.5 -78t-66 -124.5q0 -61 34 -114t91.5 -93.5t132.5 -77 t158.5 -69.5t167.5 -67t161 -74.5t138 -86.5t100 -108t45 -134q1 -18 1 -35q0 -110 -60 -196q-70 -100 -189.5 -150.5t-265.5 -50.5q-85 0 -182 15.5t-159 29.5q-59 14 -118 15l-4 -1q-62 0 -102 -26v118h10q67 0 138 -20t124 -44.5t132 -45t161 -20.5q186 0 322.5 93.5 t136.5 225.5q0 90 -57 166t-148 130t-201.5 103t-221 95.5t-201.5 96t-148 117t-57 146.5z" />
<glyph unicode="T" horiz-adv-x="1140" d="M-59 1346l41 92h1146l41 -92h-26q-22 0 -55.5 11t-65.5 24.5t-87.5 24.5t-115.5 11h-223v-1417h-82v1417h-223q-74 0 -129.5 -11t-80.5 -24.5t-55 -24.5t-59 -11h-26z" />
<glyph unicode="U" horiz-adv-x="1208" d="M92 604v834h84v-942q0 -118 27.5 -209.5t70 -146t101 -90t113.5 -48t114 -12.5q58 0 112.5 12.5t112 48t99.5 90t69 146t27 209.5v942h82v-834q0 -155 -38.5 -277.5t-106.5 -200t-159 -117.5t-198 -40q-108 0 -200 40.5t-161.5 117.5t-109 199.5t-39.5 277.5z" />
<glyph unicode="V" horiz-adv-x="1009" d="M-61 1438h81l431 -1418h45l303 881q33 96 53.5 171t28 134.5t9.5 87.5q1 16 2 40q0 20 -1 42q-2 52 -2 62h117l-205 -600l-289 -838h-135z" />
<glyph unicode="W" horiz-adv-x="1673" d="M-51 1438h82l430 -1418h45l330 965l-138 453h82l430 -1418h45l304 881q33 96 53.5 171t28 134.5t9.5 87.5q1 16 2 40q0 20 -1 42q-2 52 -2 62h116l-204 -600l-289 -838h-135l-289 946l-326 -946h-135z" />
<glyph unicode="X" horiz-adv-x="1089" d="M-113 0l623 702l-573 736h81l529 -678l219 239q87 95 141.5 161t85 116.5t43.5 81t29 80.5h137l-639 -701l576 -737h-82l-529 678l-204 -232q-231 -262 -299 -446h-138z" />
<glyph unicode="Y" horiz-adv-x="849" d="M-125 1438h82l459 -776l155 245q148 234 198.5 329t76.5 202h82l-512 -803v-635h-82v635z" />
<glyph unicode="Z" horiz-adv-x="1280" d="M37 1331v107q95 -34 229 -42q54 -3 105 -4q74 0 140 7q111 11 251 25t219 14h209l-1024 -1418h205q82 0 371.5 33t510.5 33v-86q-95 26 -219 32q-49 2 -94 3q-70 1 -130 -5q-100 -8 -230 -19t-209 -11h-314l1033 1417h-109q-85 0 -247 -21.5t-352 -43t-345 -21.5z" />
<glyph unicode="[" horiz-adv-x="483" d="M82 -289v1866h319v-10h-237v-1846h237v-10h-319z" />
<glyph unicode="\" horiz-adv-x="733" d="M82 1585h33l536 -1884h-33z" />
<glyph unicode="]" horiz-adv-x="483" d="M82 -279h237v1846h-237v10h319v-1866h-319v10z" />
<glyph unicode="^" horiz-adv-x="1064" d="M82 707l450 675h9l442 -675h-20l-426 649l-435 -649h-20z" />
<glyph unicode="_" horiz-adv-x="942" d="M82 -25h778v-20h-778v20z" />
<glyph unicode="a" horiz-adv-x="1091" d="M92 311q0 43 11 83t26 71.5t45 66.5t53.5 58t67.5 56t70 50.5t77 51.5q62 41 98.5 66t90 68t86.5 79.5t65 87t49 104.5q-62 43 -141 43q-59 0 -119 -20t-101.5 -44.5t-100.5 -44.5t-117 -20v82q6 0 18.5 -1t18.5 -1q77 0 209.5 35t228.5 35q130 0 201 -70t71 -199v-948 h-81v260q-61 -124 -186 -209.5t-265 -85.5q-101 0 -185 39t-137 119t-53 188zM174 311q0 -152 84.5 -233.5t212.5 -81.5q130 0 254.5 82t192.5 229v668q0 101 -68 162q-20 -53 -52.5 -103t-63.5 -86t-80 -78.5t-80.5 -66.5t-86.5 -64q-64 -46 -97.5 -71.5t-82 -70.5 t-72.5 -82.5t-42.5 -91t-18.5 -112.5z" />
<glyph unicode="b" horiz-adv-x="1148" d="M123 0v1438h82v-586h6q88 182 197 273.5t247 91.5q190 0 311 -162t121 -426q0 -190 -58.5 -340.5t-167.5 -237t-251 -86.5q-80 0 -164 24t-147.5 48t-93.5 24q-53 0 -72 -61h-10zM205 115q227 -121 395 -121q198 0 302 162.5t104 472.5q0 165 -39 287t-122 193t-202 71 q-132 0 -245.5 -106.5t-192.5 -309.5v-649z" />
<glyph unicode="c" horiz-adv-x="1085" d="M61 616q0 133 32 239t82 171.5t116.5 109t131 61t130.5 17.5q74 0 131.5 -15t93.5 -37t68 -43.5t72 -36.5t88 -15v-61h-17q-44 0 -81.5 19.5t-68.5 47t-66.5 55t-90 47t-123.5 19.5q-46 0 -97.5 -15t-111.5 -56.5t-106 -103.5q-47 -61 -76 -167q-25 -93 -25 -206v-32 q4 -140 47 -258t111 -194t153 -118t175 -42q47 0 93.5 20.5t84.5 50t74.5 58.5t76.5 49.5t78 20.5v-82q-49 -6 -107.5 -32t-104.5 -52t-112 -47t-130 -21q-90 0 -180 42.5t-167 121t-125.5 205.5t-48.5 280z" />
<glyph unicode="d" horiz-adv-x="1107" d="M61 569q0 156 44 281t121.5 204.5t180 122t220.5 42.5q150 0 307 -66v285h82v-1438h-80v319h-6q-58 -173 -167 -261.5t-239 -88.5q-70 0 -137 25.5t-126 77t-103.5 122t-70.5 168t-26 207.5zM143 569q0 -136 32 -242.5t86.5 -170t122 -95.5t142.5 -32q150 0 271 117 t139 311l-2 667q-147 72 -293 72q-220 0 -359 -172t-139 -455z" />
<glyph unicode="e" horiz-adv-x="1204" d="M61 618q0 137 46 250.5t127.5 189.5t192 117.5t239.5 41.5q112 0 199.5 -27.5t140 -74t79.5 -104.5t27 -124q0 -142 -100 -241.5t-291 -108.5q-29 -1 -75.5 -2.5t-68 -2.5t-56.5 -3.5t-52.5 -6t-42.5 -10.5t-38 -17.5t-29.5 -25t-27.5 -34.5t-20 -46l-45 60q16 45 48 71 t83 34t95 9h24q39 0 93 -2t91 -2h23q79 3 137.5 28t90 59.5t50.5 81.5t24 83.5t5 75.5q0 43 -7.5 81.5t-31 82t-61.5 74t-105.5 51t-156.5 20.5q-119 0 -219 -48t-166 -128.5t-103 -184.5t-37 -217q0 -126 31 -232.5t81.5 -177.5t115.5 -121t132 -72.5t132 -22.5 q56 0 109.5 16.5t92 41.5t78.5 54.5t71.5 54.5t68.5 41.5t71 16.5v-82q-35 0 -74.5 -17.5t-80 -42.5t-87 -50t-113 -42.5t-142.5 -17.5q-114 0 -215.5 42.5t-180.5 122.5t-125.5 206t-46.5 282z" />
<glyph unicode="f" horiz-adv-x="589" d="M6 1163v21h246q-73 67 -118.5 143.5t-55.5 144.5q-5 29 -5 56q0 36 7 67q14 56 57 88.5t105 32.5q34 0 74.5 -22t76 -47t75.5 -43q25 -12 54 -12q15 0 31 4q46 9 94 53h10v-119h-8q-21 -3 -41 -3q-37 0 -72 10q-52 15 -90 41.5t-71.5 54t-70 47.5t-71.5 20 q-83 0 -111 -75q-11 -30 -11 -65q0 -68 41 -153q57 -117 178 -223h291v-21h-287v-1163h-82v1163h-246z" />
<glyph unicode="g" horiz-adv-x="1112" d="M20 -254h11q47 0 99.5 -23t103.5 -56t107 -66.5t129.5 -56.5t150.5 -23q162 0 266 82.5t104 193.5q0 56 -25 95t-69 58t-97 28q-44 8 -94 8h-22q-63 -2 -117.5 -6.5t-110.5 -11.5q-15 -2 -22 -3q-48 -4 -87 -4q-33 0 -59 3q-59 6 -95 27t-52 43.5t-16 45.5q0 72 86 112 q72 34 164 34q18 0 37 -1q-151 61 -252 193.5t-101 302.5q0 115 35 209t95.5 155.5t142 95t174.5 33.5q116 0 233 -51q8 -1 16 -1q54 0 102 24q55 27 90.5 72.5t57.5 90t33 87.5l84 -54q-24 -39 -45.5 -68t-54.5 -62.5t-67 -54t-81 -33.5q-45 -13 -95 -13h-7 q133 -67 221 -188.5t88 -266.5q0 -227 -131 -368.5t-332 -141.5q-82 0 -167 27q-18 1 -35 1q-93 0 -146 -28q-63 -33 -63 -82q0 -63 94 -99q49 -19 116 -19q60 0 136 16q118 25 213 25q93 0 164 -23q143 -49 143 -180q0 -80 -42 -143.5t-110.5 -101t-148.5 -56.5t-164 -19 q-89 0 -173 19t-139 42.5t-127 42.5t-138 19h-11v119zM127 793q0 -106 31 -199.5t84 -160.5t121.5 -115.5t143.5 -72.5t150 -24q153 0 257 99.5t104 285.5q0 105 -31.5 197.5t-84.5 159t-122 115t-144.5 72.5t-150.5 24q-153 0 -255.5 -97.5t-102.5 -283.5z" />
<glyph unicode="h" horiz-adv-x="1220" d="M123 0v1438h82v-545q59 83 141 151t169.5 111t176.5 55q30 4 58 4q56 0 104 -16q73 -23 126.5 -95.5t70.5 -189.5l131 -913h-82l-129 913q-14 99 -61 161q-48 62 -114 80q-39 11 -84 11q-30 1 -62 -5q-80 -12 -159.5 -54t-155 -108.5t-130.5 -147.5v-850h-82z" />
<glyph unicode="i" horiz-adv-x="333" d="M123 1540q0 25 17 42t42 17t42.5 -17t17.5 -42t-17.5 -42t-42.5 -17t-42 17t-17 42zM141 0v1184h82v-1184h-82z" />
<glyph unicode="j" horiz-adv-x="358" d="M-508 -340q61 20 130 22q15 1 30 1q50 0 90 -7q52 -8 125 -18t129 -10q74 0 114 40t40 111v1385h81v-1317q0 -128 -71 -187q-60 -51 -159 -51q-18 0 -38 2q-85 7 -156 7q-211 0 -305 -60h-10v82zM117 1540q0 31 21.5 53.5t51.5 22.5q31 0 53.5 -22.5t22.5 -53.5 t-22.5 -52.5t-53.5 -21.5t-52 21.5t-21 52.5z" />
<glyph unicode="k" horiz-adv-x="970" d="M123 0v1438h82v-854l258 219q31 26 73 62t63.5 54t52 44t44.5 39.5t33.5 33t27.5 31.5t18.5 28t14 29t6.5 28t3 32h137l-420 -359h94l312 -825h-103l-309 819l-305 -260v-559h-82z" />
<glyph unicode="l" horiz-adv-x="296" d="M123 0v1438h82v-1438h-82z" />
<glyph unicode="m" horiz-adv-x="2013" d="M123 0v1184h82v-371q113 197 264 299t295 102q150 0 229.5 -93t79.5 -273q111 181 256 273.5t283 92.5q135 0 222 -85.5t87 -235.5v-893h-82v930q0 124 -65 188t-170 64q-140 0 -290.5 -104t-240.5 -283v-795h-82v844q0 169 -70 254.5t-182 85.5q-138 0 -289 -115.5 t-245 -306.5v-762h-82z" />
<glyph unicode="n" horiz-adv-x="1243" d="M123 0v1184h82v-289q93 135 244.5 224t291.5 89q118 0 201.5 -72.5t108.5 -222.5l153 -913h-82l-151 913q-22 130 -94 194t-175 64q-123 0 -260 -85t-237 -228v-858h-82z" />
<glyph unicode="o" horiz-adv-x="1140" d="M61 608q0 136 39.5 251t108 193t161.5 121.5t199 43.5t199 -43.5t162 -121.5t109 -193t40 -251q0 -152 -40 -275.5t-109 -203t-161.5 -122t-199.5 -42.5t-199 42.5t-161 122.5t-108.5 203t-39.5 275zM131 678q0 -128 34 -250.5t94.5 -219.5t152.5 -156.5t200 -59.5 q118 0 211.5 74t142 191.5t48.5 252.5q0 125 -36 246t-99.5 217.5t-159.5 155.5t-207 59q-93 0 -167.5 -42.5t-120 -114.5t-69.5 -162.5t-24 -190.5z" />
<glyph unicode="p" horiz-adv-x="1159" d="M123 -346v1530h82v-373q93 205 220 302t263 97q84 0 159.5 -40.5t132 -112t88.5 -178.5q30 -98 30 -211v-21q-3 -132 -35.5 -244t-85.5 -189.5t-122.5 -132.5t-146 -80.5t-155.5 -25.5q-101 0 -193 43.5t-155 124.5v-489h-82zM205 178q69 -86 155.5 -129t178.5 -43 t177 42.5t152 120.5t107.5 200t40.5 270q0 241 -104 383.5t-255 142.5q-124 0 -244.5 -102.5t-207.5 -302.5v-582z" />
<glyph unicode="q" horiz-adv-x="1159" d="M61 596q0 131 28 238t74.5 177t109 117.5t129.5 68t139 20.5q52 0 109 -19.5t98.5 -43t89.5 -43t84 -19.5q87 0 108 92h10l-2 -1530h-82v522q-92 -97 -206 -154t-226 -57q-132 0 -237.5 79.5t-165.5 224t-60 327.5zM143 596q0 -147 33 -263t90.5 -188t131 -109.5 t157.5 -37.5q102 0 206 53.5t195 155.5v852q-59 1 -116 23t-95.5 47t-93.5 46t-110 21q-56 0 -108.5 -16t-106.5 -58.5t-93.5 -107.5t-64.5 -173t-25 -245z" />
<glyph unicode="r" horiz-adv-x="858" d="M123 0v1184h82v-361q29 69 55 121t63.5 106t78 88.5t94.5 56.5t116 22t145 -16.5t120 -16.5v-82q-52 0 -139 41t-150 47q-228 -2 -383 -428v-762h-82z" />
<glyph unicode="s" horiz-adv-x="1042" d="M63 0v92q74 0 146.5 -16.5t123.5 -36.5t126 -36.5t153 -16.5q40 0 80.5 7.5t85.5 26.5t79 48.5t56.5 78t22.5 109.5q0 66 -47 123.5t-122 101t-166 84.5t-182 82.5t-166 85.5t-122 102.5t-47 125.5q0 63 30 111.5t72.5 75t98 43t98.5 21.5t82 5q80 0 222 -27t200 -27 q31 0 61 6v-82h-16q-55 0 -116.5 17t-109 37.5t-117 37.5t-138.5 17q-40 0 -89.5 -10.5t-102 -32.5t-87.5 -63.5t-35 -94.5q0 -60 47 -112.5t121.5 -93t165 -80t181 -82t165 -90.5t121.5 -114t47 -144q0 -69 -25.5 -124.5t-64.5 -90t-90 -57.5t-99 -32.5t-94 -9.5 q-128 0 -259.5 23.5t-178.5 23.5q-59 0 -111 -12z" />
<glyph unicode="t" horiz-adv-x="727" d="M31 1163v21q81 0 109 21q36 27 50 130q9 62 23 277h20l3 -428h286v-21h-286v-915q0 -114 39.5 -189t111.5 -75q50 0 94.5 24t76 58t60 67.5t58 57.5t57.5 24v-92q-25 0 -62.5 -24.5t-73.5 -54.5t-93 -54.5t-117 -24.5q-47 0 -84.5 15.5t-62 43t-42 61t-27 74t-13.5 78 t-4 76.5v762q0 55 -23 71.5t-100 16.5z" />
<glyph unicode="u" horiz-adv-x="1079" d="M92 293v891h82v-938q0 -91 41 -151t103.5 -84.5t142.5 -24.5q53 0 105.5 10t80.5 19t78 28q39 16 61.5 24t55.5 13.5t63 1.5v1100h82v-1182h-10q-53 61 -113 61q-41 0 -121 -32q-48 -19 -81 -30.5t-92.5 -22.5t-120.5 -11q-173 0 -265 94.5t-92 233.5z" />
<glyph unicode="v" horiz-adv-x="989" d="M-23 1184h82l437 -1123h14l235 611l134 512h88l-457 -1184h-78z" />
<glyph unicode="w" horiz-adv-x="1841" d="M-23 1184h80l416 -1067l279 723q87 227 87 317q0 17 -3 29h69l445 -1145l274 707q92 242 92 436h103l-459 -1184h-78l-416 1075l-415 -1075h-17z" />
<glyph unicode="x" horiz-adv-x="1118" d="M-55 0l583 578l-487 606h82l452 -561l144 145q174 177 225.5 252t69.5 164h157l-583 -578l487 -606h-82l-452 561l-148 -145q-190 -187 -242.5 -260t-52.5 -156h-153z" />
<glyph unicode="y" horiz-adv-x="989" d="M-229 -254q58 0 127 -24t123 -53t125.5 -53t134.5 -24q77 0 139 23t100 61.5t58 87.5q18 44 18 92v12q-3 55 -27 107l-551 1209h82l502 -1108l203 583q38 109 72 272.5t34 252.5h103l-398 -1147q23 -80 23 -147q0 -53 -14 -98q-32 -104 -123.5 -162t-220.5 -58 q-68 0 -149.5 18t-135.5 36t-120 28q-26 4 -47 4q-35 0 -58 -10v98z" />
<glyph unicode="z" horiz-adv-x="960" d="M33 0l827 1161h-420q-82 0 -141 -13t-86 -28t-65.5 -28t-84.5 -13v105q42 -12 92 -12t137 6t159 6h505l-827 -1164h416q82 0 149 13t102 29t74.5 29t73.5 13v-104q-47 9 -104 9t-142 -4.5t-145 -4.5h-520z" />
<glyph unicode="{" horiz-adv-x="782" d="M82 664q40 20 54 67t14 131q0 111 19.5 207.5t52 167t77.5 127.5t94.5 94t104 61.5t104.5 35t98 10.5v-21q-23 0 -55.5 -7.5t-76 -27t-86 -48.5t-84.5 -76t-74 -104.5t-52 -139.5t-20 -176q0 -116 -24 -195t-64 -106q40 -27 64 -106.5t24 -195.5q0 -94 20 -176t52 -139.5 t74 -104.5t84.5 -76t86 -48.5t76 -27t55.5 -7.5v-21q-48 0 -98 10.5t-104.5 35t-104 61.5t-94.5 94t-77.5 127.5t-52 167t-19.5 207.5q0 84 -14 131.5t-54 67.5z" />
<glyph unicode="|" horiz-adv-x="184" d="M82 -135v1710h20v-1710h-20z" />
<glyph unicode="}" horiz-adv-x="782" d="M82 -217q23 0 55.5 7.5t76 27t86 48.5t84.5 76t74 104.5t52 139.5t20 176q0 116 24 195.5t64 106.5q-40 27 -64 106t-24 195q0 94 -20 176t-52 139.5t-74 104.5t-84.5 76t-86 48.5t-76 27t-55.5 7.5v21q69 0 140 -21t146.5 -73t133 -129t94.5 -201.5t37 -278.5 q0 -85 13.5 -131.5t53.5 -66.5q-40 -20 -53.5 -67t-13.5 -132q0 -154 -37 -278.5t-94.5 -201.5t-133 -129t-146.5 -73t-140 -21v21z" />
<glyph unicode="~" horiz-adv-x="1101" d="M82 545q0 60 13 104.5t32.5 69.5t49 40t56.5 20t60 5q44 0 107.5 -27.5t128.5 -66.5t129.5 -78t128 -66.5t106.5 -27.5q106 0 106 174h21q0 -135 -46.5 -195t-154.5 -51q-71 6 -165 50t-168.5 92.5t-154.5 88.5t-128 40q-101 0 -101 -172h-20z" />
<glyph unicode="&#xa1;" d="M82 1257q0 22 14.5 37t36.5 15t36.5 -15t14.5 -37t-14.5 -36.5t-36.5 -14.5t-36.5 14.5t-14.5 36.5zM92 -137q0 88 13.5 403t13.5 735h20q0 -420 17.5 -735t17.5 -403q0 -22 -12 -33.5t-29 -11.5t-29 11.5t-12 33.5z" />
<glyph unicode="&#xa2;" horiz-adv-x="1169" d="M82 616q0 111 22 204t60 156.5t86 111t104.5 74.5t110.5 39.5t108 12.5q71 0 123 -12l66 271h20l-65 -277q43 -13 85.5 -36.5t69 -43t67 -34.5t87.5 -15v-61h-16q-35 0 -65.5 12t-56 32t-50 41.5t-58 44t-69.5 35.5l-269 -1110q100 -59 207 -59q130 0 236 78t172 229 l30 -6q-73 -166 -204 -251t-281 -85q-90 0 -172 39l-96 -397h-21l99 405q-143 70 -236.5 225.5t-93.5 376.5zM164 614q6 -187 77 -327.5t183 -214.5l266 1108q-54 14 -110 14q-46 0 -97.5 -15t-111.5 -56.5t-106.5 -103.5t-75.5 -167.5t-25 -237.5z" />
<glyph unicode="&#xa3;" horiz-adv-x="1218" d="M82 623v20h225v145q0 131 44.5 248t126 206.5t206.5 142.5t277 53v-82q-41 10 -95.5 10t-117 -9t-122 -34.5t-108.5 -63.5t-78.5 -100t-29.5 -139v-377h321v-20h-321v-344q0 -35 -5.5 -70t-18 -73t-37 -69.5t-58.5 -48.5h446q105 0 181 16t126.5 32t92.5 16v-82h-965 q75 77 105 145.5t30 163.5v314h-225z" />
<glyph unicode="&#xa4;" horiz-adv-x="1013" d="M82 252l113 127q-107 116 -107 276q0 159 105 277l-111 125l35 30l108 -122q123 102 277 102q161 0 280 -109l115 129l35 -30l-117 -131q98 -116 98 -271q0 -150 -98 -272l117 -131l-35 -31l-115 129q-121 -108 -280 -108q-158 0 -275 104l-110 -125zM152 655 q0 -145 102.5 -247.5t247.5 -102.5t247.5 102.5t102.5 247.5t-102.5 248t-247.5 103t-247.5 -103t-102.5 -248z" />
<glyph unicode="&#xa5;" horiz-adv-x="1216" d="M82 1438h82l459 -776l155 245q148 234 198.5 329t76.5 202h82l-498 -781h344v-10h-350l-8 -12v-182h358v-11h-358v-442h-82v442h-312v11h312v182l-6 12h-306v10h299z" />
<glyph unicode="&#xa6;" horiz-adv-x="184" d="M82 -127v700h20v-700h-20zM82 872v703h20v-703h-20z" />
<glyph unicode="&#xa7;" horiz-adv-x="1085" d="M82 -76q74 0 146.5 -16.5t123.5 -36.5t126 -36.5t153 -16.5q40 0 80.5 7.5t85 26.5t79 48.5t56.5 78t22 109.5q0 66 -47 119t-122 88.5t-166 67t-182 61.5t-166 64t-122 83t-47 109t20.5 108t52 78t75 51.5t82 31t80.5 14.5q-72 20 -121 38.5t-95.5 45t-70 62t-23.5 79.5 q0 52 15.5 95.5t40.5 72.5t60 51.5t69 35t73 20t67.5 10t55.5 2.5q118 0 274 -34t210 -34v-82h-17q-32 0 -65.5 13.5t-68.5 32.5t-79 37.5t-113.5 32t-154.5 13.5q-40 0 -89.5 -10.5t-101.5 -32.5t-87 -63.5t-35 -94.5q0 -60 47 -104.5t121.5 -72t165 -51.5t181 -51t165 -61 t121.5 -90.5t47 -132.5q0 -122 -66 -195.5t-166 -105.5q110 -51 171 -114.5t61 -153.5q0 -72 -25.5 -129.5t-64.5 -93t-90 -59t-99 -33t-94 -9.5q-95 0 -182 11.5t-129.5 22t-110.5 14t-127 -12.5v92zM156 745q0 -45 27 -83t68 -65t104.5 -54.5t121.5 -46.5t135 -46t129 -49 q91 26 152 87.5t61 168.5q0 119 -166 193q-80 36 -291 89q-17 4 -28 7q-40 0 -89.5 -10.5t-101.5 -32.5t-87 -63.5t-35 -94.5z" />
<glyph unicode="&#xa9;" horiz-adv-x="1630" d="M82 719q0 203 93 371.5t262 268t378 99.5t378 -99.5t262 -268t93 -371.5t-93 -371.5t-262 -268t-378 -99.5t-378 99.5t-262 268t-93 371.5zM102 719q0 -197 90 -361t254.5 -261t368.5 -97t368.5 97t254.5 261t90 361t-90 361t-254.5 261t-368.5 97t-368.5 -97 t-254.5 -261t-90 -361zM504 735q0 85 20.5 153.5t52.5 110.5t75 70.5t84.5 39.5t84.5 11q58 0 102 -14.5t66 -32.5t54 -32.5t69 -14.5v-41h-10q-28 0 -52 12.5t-44 30.5t-43 36.5t-58.5 31t-79.5 12.5q-29 0 -62.5 -10t-72 -36.5t-68.5 -67t-48.5 -108.5t-16.5 -153 q6 -178 98.5 -285.5t214.5 -107.5q83 0 152 50.5t111 146.5l20 -5q-49 -106 -132.5 -160.5t-180.5 -54.5q-58 0 -116.5 27.5t-108 78t-80.5 132.5t-31 180z" />
<glyph unicode="&#xaa;" horiz-adv-x="593" d="M49 961q0 33 12.5 64t26 51t47.5 48.5t50.5 40t60.5 41.5q48 33 70 49t58.5 47t57.5 63t33 69q-34 24 -80 24q-50 0 -123.5 -36t-122.5 -36v46l21 -2q43 0 117.5 20t128.5 20q73 0 113 -39.5t40 -111.5v-533h-45v146q-36 -70 -106 -118t-148 -48q-88 0 -149.5 52.5 t-61.5 142.5zM96 961q0 -85 47 -131t119 -46q73 0 143.5 45.5t108.5 128.5v375q0 56 -39 92q-18 -49 -54.5 -93t-66.5 -68.5t-82 -61.5q-37 -26 -55 -40t-45.5 -39.5t-41 -46.5t-24 -51.5t-10.5 -63.5z" />
<glyph unicode="&#xab;" horiz-adv-x="1216" d="M82 655v9l676 442v-21l-647 -426l647 -434v-20zM459 655v9l676 442v-21l-648 -426l648 -434v-20z" />
<glyph unicode="&#xad;" horiz-adv-x="614" d="M82 610v21h450v-21h-450z" />
<glyph unicode="&#xae;" horiz-adv-x="1095" d="M82 991q0 196 132.5 331.5t332.5 135.5q133 0 240.5 -63t167 -169.5t59.5 -234.5q0 -195 -133 -330t-334 -135q-200 0 -332.5 135.5t-132.5 329.5zM98 991q0 -185 129.5 -316.5t319.5 -131.5q191 -1 321.5 131t128.5 317q0 187 -129.5 319t-320.5 132 q-190 0 -319.5 -132.5t-129.5 -318.5zM358 725v532h207q65 0 102.5 -45t37.5 -106q0 -45 -22.5 -83t-64.5 -56q13 -39 60 -116t61 -126h-28q-12 46 -56.5 120t-56.5 111h-209v-231h-31zM389 965h160q62 0 96.5 42t34.5 101t-35 100t-100 41h-156v-284z" />
<glyph unicode="&#xb0;" horiz-adv-x="671" d="M82 1229q0 117 75.5 182.5t178.5 65.5t178.5 -65.5t75.5 -182.5q0 -118 -75.5 -184t-178.5 -66t-178.5 66t-75.5 184zM98 1229q0 -112 70.5 -174t165.5 -62q98 0 168.5 62.5t70.5 173.5q0 110 -70 171.5t-167 61.5t-167.5 -61.5t-70.5 -171.5z" />
<glyph unicode="&#xb1;" horiz-adv-x="915" d="M82 117v20h752v-20h-752zM82 623v20h364v367h21v-367h367v-20h-367v-365h-21v365h-364z" />
<glyph unicode="&#xb2;" horiz-adv-x="768" d="M82 717v31q0 73 33 133t85 99.5t115.5 72t127 57t115.5 48t85 53t33 63.5q0 70 -65.5 116t-155.5 46q-45 0 -92.5 -15.5t-81 -34t-76.5 -34t-80 -15.5v62q44 -8 89.5 3t106.5 26.5t128 15.5q54 0 97 -12t68.5 -30.5t42.5 -42.5t23 -44.5t6 -40.5q0 -52 -32.5 -93 t-84.5 -69t-115 -53t-126 -52.5t-115 -60t-84.5 -83.5t-32.5 -115v-19h215q86 0 203 18.5t154 12.5v-41q-80 11 -120.5 10.5t-118 -6.5t-118.5 -6h-229z" />
<glyph unicode="&#xb3;" horiz-adv-x="724" d="M82 719v41q54 0 139.5 -22.5t149.5 -22.5q112 0 177.5 59t65.5 141q0 80 -66 147.5t-192 90.5l232 244h-438v41h483v-6l-242 -258q126 -26 189 -92.5t63 -147.5q0 -92 -72.5 -160.5t-185.5 -68.5q-50 0 -120.5 9t-102 12.5t-80.5 -7.5z" />
<glyph unicode="&#xb6;" horiz-adv-x="1050" d="M82 1104q0 137 111 236.5t309 99.5h467v-21h-205v-1603h-21v1603h-192v-1603h-21v940q-108 0 -195.5 30t-141.5 80t-82.5 111t-28.5 127z" />
<glyph unicode="&#xb7;" horiz-adv-x="270" d="M82 532q0 23 15 38.5t38 15.5t38 -15.5t15 -38.5t-15 -38t-38 -15t-38 15t-15 38z" />
<glyph unicode="&#xb9;" horiz-adv-x="342" d="M59 1321v10l172 105h7v-719h-41v688z" />
<glyph unicode="&#xba;" horiz-adv-x="645" d="M35 1128q0 154 82.5 249.5t204.5 95.5q121 0 203.5 -95.5t82.5 -249.5q0 -169 -81.5 -265.5t-204.5 -96.5q-125 0 -206 96.5t-81 265.5zM74 1169q0 -98 32 -185.5t95 -144.5t143 -57q101 0 164 86t63 205q0 96 -34 182.5t-99.5 143.5t-148.5 57q-103 0 -159 -84t-56 -203 z" />
<glyph unicode="&#xbb;" horiz-adv-x="1216" d="M82 205v20l647 434l-647 426v21l676 -442v-9zM459 205v20l647 434l-647 426v21l676 -442v-9z" />
<glyph unicode="&#xbc;" horiz-adv-x="1318" d="M59 1321v10l172 105h7v-719h-41v688zM123 0l848 1438h20l-848 -1438h-20zM676 14v41q54 0 139.5 -22.5t149.5 -22.5q112 0 177.5 59t65.5 142q0 80 -66 147.5t-192 90.5l232 243h-439v41h484v-6l-242 -258q126 -26 189 -92.5t63 -147.5q0 -92 -72.5 -160.5t-185.5 -68.5 q-50 0 -120.5 9t-102 12.5t-80.5 -7.5z" />
<glyph unicode="&#xbd;" horiz-adv-x="1351" d="M59 1321v10l172 105h7v-719h-41v688zM123 0l848 1438h20l-848 -1438h-20zM666 2v31q0 73 33 133t85 99.5t115.5 72t127 57t115.5 48t85 53t33 63.5q0 70 -66 116t-156 46q-57 0 -115.5 -24.5t-113 -49t-100.5 -24.5v61q44 -8 89 3t106 26.5t128 15.5t116.5 -17.5 t74.5 -45.5t36 -55t11 -52q0 -52 -32.5 -93t-84.5 -69t-115 -53t-126 -52.5t-115 -60t-84.5 -83.5t-32.5 -115v-19h215q86 0 202.5 18.5t153.5 12.5v-41q-80 11 -120.5 10.5t-117.5 -6.5t-118 -6h-229z" />
<glyph unicode="&#xbe;" horiz-adv-x="1386" d="M82 719v41q54 0 139.5 -22.5t149.5 -22.5q112 0 177.5 59t65.5 141q0 80 -66 147.5t-192 90.5l232 244h-438v41h483v-6l-242 -258q126 -26 189 -92.5t63 -147.5q0 -92 -72.5 -160.5t-185.5 -68.5q-50 0 -120.5 9t-102 12.5t-80.5 -7.5zM375 0l848 1438h20l-848 -1438h-20 zM733 215v4l494 500h2v-494h78v-10h-78v-215h-41v215h-455zM758 225h430v434z" />
<glyph unicode="&#xbf;" horiz-adv-x="1101" d="M82 53q0 75 34.5 136.5t88 104.5t118.5 82.5t127 79.5t111.5 86.5t74.5 113.5t13 149h21q12 -78 -10 -144t-65.5 -114t-99.5 -92.5t-114 -88t-106.5 -90t-79.5 -110t-31 -137.5q0 -76 56 -132t140.5 -82t182.5 -26q103 0 190.5 28t146 89.5t58.5 146.5q0 62 -19.5 112 t-44.5 94t-32 77l18 4q5 -25 23.5 -51t41 -50t44.5 -50t36.5 -61.5t14.5 -74.5q0 -70 -39 -126.5t-104 -90.5t-145.5 -51.5t-168.5 -17.5q-124 0 -231.5 31.5t-178.5 98t-71 156.5zM604 1219q0 23 15 38t38 15t38.5 -15t15.5 -38t-15.5 -38.5t-38.5 -15.5t-38 15.5t-15 38.5 z" />
<glyph unicode="&#xc0;" horiz-adv-x="1198" d="M-20 0l557 1438h59l612 -1438h-127q0 75 -14.5 149.5t-30.5 123t-58.5 164t-68.5 190.5h-626l-238 -627h-65zM291 647h608l-27 64l-290 700zM410 1991h82q6 -45 37 -88.5t74.5 -80t87.5 -69.5t83.5 -69t54.5 -66h-10q-34 37 -91.5 76t-109 70t-100.5 65t-78.5 75 t-29.5 87z" />
<glyph unicode="&#xc1;" horiz-adv-x="1198" d="M-20 0l557 1438h59l612 -1438h-127q0 75 -14.5 149.5t-30.5 123t-58.5 164t-68.5 190.5h-626l-238 -627h-65zM279 1618q15 30 54.5 66t83.5 69t87.5 69.5t74.5 80t37 88.5h82q0 -46 -29.5 -87t-78.5 -75t-100.5 -65t-109 -70t-91.5 -76h-10zM291 647h608l-27 64l-290 700 z" />
<glyph unicode="&#xc2;" horiz-adv-x="1198" d="M-20 0l557 1438h59l612 -1438h-127q0 75 -14.5 149.5t-30.5 123t-58.5 164t-68.5 190.5h-626l-238 -627h-65zM274 1618q0 44 28 86.5t70 76.5t85 66.5t78 70t45 73.5h20q10 -36 47 -73.5t83 -70t91 -66.5t75 -76.5t30 -86.5h-103q0 51 -28.5 102t-65 86.5t-79 81 t-60.5 80.5q-18 -35 -57 -81t-71.5 -81t-58.5 -85.5t-26 -102.5h-103zM291 647h608l-27 64l-290 700z" />
<glyph unicode="&#xc3;" horiz-adv-x="1198" d="M-20 0l557 1438h59l612 -1438h-127q0 75 -14.5 149.5t-30.5 123t-58.5 164t-68.5 190.5h-626l-238 -627h-65zM289 1739q0 51 16 86.5t41 51.5t45.5 22t40.5 6q54 0 135.5 -32.5t157 -64.5t113.5 -32q35 0 49 22.5t14 85.5h8q0 -99 -28.5 -134.5t-85.5 -35.5 q-48 0 -129.5 35t-159.5 70.5t-117 35.5q-92 0 -92 -116h-8zM291 647h608l-27 64l-290 700z" />
<glyph unicode="&#xc4;" horiz-adv-x="1198" d="M-20 0l557 1438h59l612 -1438h-127q0 75 -14.5 149.5t-30.5 123t-58.5 164t-68.5 190.5h-626l-238 -627h-65zM291 647h608l-27 64l-290 700zM426 1733q0 20 13 32.5t32 12.5t31 -12.5t12 -32.5q0 -19 -12 -31t-31 -12t-32 12t-13 31zM686 1733q0 20 13 32.5t32 12.5 t31 -12.5t12 -32.5q0 -19 -12 -31t-31 -12t-32 12t-13 31z" />
<glyph unicode="&#xc5;" horiz-adv-x="1198" d="M-20 0l557 1438h59l612 -1438h-127q0 75 -14.5 149.5t-30.5 123t-58.5 164t-68.5 190.5h-626l-238 -627h-65zM291 647h608l-27 64l-290 700zM432 1790q0 64 44 108t108 44t107.5 -43.5t43.5 -108.5t-43.5 -108.5t-107.5 -43.5t-108 44t-44 108zM475 1790 q0 -46 31.5 -77.5t77.5 -31.5t77 31.5t31 77.5t-31 77t-77 31t-77.5 -31t-31.5 -77z" />
<glyph unicode="&#xc6;" horiz-adv-x="1849" d="M-20 0l700 1438h174q208 0 435.5 -10.5t322 -10.5t137.5 21v-115h-10q-64 0 -147.5 14.5t-157.5 31.5t-195.5 31.5t-253.5 14.5l-131 2v-598h395q108 0 163 15.5t77 48t33 100.5h20v-354h-20q-5 41 -11.5 67t-21 46.5t-30.5 30.5t-48.5 16.5t-67.5 8t-94 1.5h-395v-779 q187 1 452.5 43.5t462.5 42.5h11v-106q-110 39 -271.5 40t-369.5 -19t-285 -21h-82v627h-383l-303 -627h-106zM399 647h373v774z" />
<glyph unicode="&#xc7;" horiz-adv-x="1316" d="M82 733q0 144 39 267t103.5 208t149.5 145.5t176 88.5t183 28q74 0 157.5 -15t136.5 -29t112 -13.5t104 25.5v-131q-62 0 -128 21.5t-114.5 48t-111 48t-117.5 21.5q-154 0 -276.5 -60.5t-198 -165t-110.5 -243.5t-23 -297q13 -176 67 -309t140 -212t192 -118t232 -39 q131 0 245.5 63.5t190.5 180.5l20 -19q-78 -126 -217.5 -194t-302.5 -68q-37 0 -78 6l-20 -65h106q62 0 106 -28.5t44 -96.5q0 -53 -21 -91t-53 -57.5t-77 -33.5t-86 -20t-87 -15t-73 -19v11q25 8 67 16.5t72 14.5t65.5 20t58 33t37.5 53t15 80q0 127 -90 127h-105l23 73 q-103 19 -198 74.5t-176 146.5t-130 231t-49 308z" />
<glyph unicode="&#xc8;" horiz-adv-x="1169" d="M92 0v1438h82q208 0 435.5 -10.5t322 -10.5t137.5 21v-115h-10q-79 0 -186.5 21.5t-254 44.5t-313.5 26l-131 2v-598h395q108 0 163 15.5t77 48t33 100.5h20v-354h-20q-5 41 -11.5 67t-21 46.5t-30.5 30.5t-48.5 16.5t-67.5 8t-94 1.5h-395v-779q173 1 435 37.5t384 36.5 q33 0 107 -4v-90q-89 24 -253 24t-376.5 -12t-296.5 -12h-82zM395 1991h82q6 -45 37 -88.5t74.5 -80t88 -69.5t84 -69t54.5 -66h-10q-34 37 -91.5 76t-109.5 70t-101 65t-78.5 75t-29.5 87z" />
<glyph unicode="&#xc9;" horiz-adv-x="1169" d="M92 0v1438h82q208 0 435.5 -10.5t322 -10.5t137.5 21v-115h-10q-79 0 -186.5 21.5t-254 44.5t-313.5 26l-131 2v-598h395q108 0 163 15.5t77 48t33 100.5h20v-354h-20q-5 41 -11.5 67t-21 46.5t-30.5 30.5t-48.5 16.5t-67.5 8t-94 1.5h-395v-779q173 1 435 37.5t384 36.5 q33 0 107 -4v-90q-89 24 -253 24t-376.5 -12t-296.5 -12h-82zM264 1618q15 30 54.5 66t84 69t88 69.5t74.5 80t37 88.5h82q0 -46 -29.5 -87t-78.5 -75t-101 -65t-109.5 -70t-91.5 -76h-10z" />
<glyph unicode="&#xca;" horiz-adv-x="1169" d="M92 0v1438h82q208 0 435.5 -10.5t322 -10.5t137.5 21v-115h-10q-79 0 -186.5 21.5t-254 44.5t-313.5 26l-131 2v-598h395q108 0 163 15.5t77 48t33 100.5h20v-354h-20q-5 41 -11.5 67t-21 46.5t-30.5 30.5t-48.5 16.5t-67.5 8t-94 1.5h-395v-779q173 1 435 37.5t384 36.5 q33 0 107 -4v-90q-89 24 -253 24t-376.5 -12t-296.5 -12h-82zM260 1618q0 44 28 86.5t69.5 76.5t84.5 66.5t78 70t45 73.5h21q10 -36 47 -73.5t83 -70t90.5 -66.5t74.5 -76.5t30 -86.5h-102q0 51 -29 102t-65.5 86.5t-79 81t-60.5 80.5q-18 -35 -57 -81t-71.5 -81 t-58.5 -85.5t-26 -102.5h-102z" />
<glyph unicode="&#xcb;" horiz-adv-x="1169" d="M92 0v1438h82q208 0 435.5 -10.5t322 -10.5t137.5 21v-115h-10q-79 0 -186.5 21.5t-254 44.5t-313.5 26l-131 2v-598h395q108 0 163 15.5t77 48t33 100.5h20v-354h-20q-5 41 -11.5 67t-21 46.5t-30.5 30.5t-48.5 16.5t-67.5 8t-94 1.5h-395v-779q173 1 435 37.5t384 36.5 q33 0 107 -4v-90q-89 24 -253 24t-376.5 -12t-296.5 -12h-82zM412 1733q0 20 13 32.5t32 12.5t31 -12.5t12 -32.5q0 -19 -12 -31t-31 -12t-32 12t-13 31zM672 1733q0 20 13 32.5t32 12.5t31 -12.5t12 -32.5q0 -19 -12 -31t-31 -12t-32 12t-13 31z" />
<glyph unicode="&#xcc;" d="M-57 1991h82q6 -45 37 -88.5t74.5 -80t87.5 -69.5t83.5 -69t54.5 -66h-10q-34 37 -91.5 76t-109 70t-100.5 65t-78.5 75t-29.5 87zM92 0v1438h82v-1438h-82z" />
<glyph unicode="&#xcd;" d="M-188 1618q15 30 54.5 66t84 69t88 69.5t74.5 80t37 88.5h81q0 -46 -29.5 -87t-78.5 -75t-100.5 -65t-109 -70t-91.5 -76h-10zM92 0v1438h82v-1438h-82z" />
<glyph unicode="&#xce;" d="M-193 1618q0 44 28 86.5t70 76.5t85 66.5t78 70t45 73.5h20q10 -36 47 -73.5t83 -70t91 -66.5t75 -76.5t30 -86.5h-103q0 51 -28.5 102t-65 86.5t-79 81t-60.5 80.5q-18 -35 -57 -81t-71.5 -81t-58.5 -85.5t-26 -102.5h-103zM92 0v1438h82v-1438h-82z" />
<glyph unicode="&#xcf;" d="M-41 1733q0 20 13 32.5t32 12.5t31 -12.5t12 -32.5q0 -19 -12 -31t-31 -12t-32 12t-13 31zM92 0v1438h82v-1438h-82zM219 1733q0 20 13 32.5t32 12.5t31 -12.5t12 -32.5q0 -19 -12 -31t-31 -12t-32 12t-13 31z" />
<glyph unicode="&#xd0;" horiz-adv-x="1286" d="M-90 709v20h182v709h496q291 0 453.5 -174.5t162.5 -518.5q0 -156 -35 -281.5t-96 -211t-147 -143t-185 -83.5t-213 -26h-436v709h-182zM174 20h291q128 0 227 21.5t181.5 73t136 134t83 207t29.5 289.5q0 169 -32 290.5t-105.5 209t-196.5 130t-301 42.5h-313v-688h191 v-20h-191v-689z" />
<glyph unicode="&#xd1;" horiz-adv-x="1277" d="M109 0q3 25 12.5 94t12 93.5t8.5 90t8 121t4 147.5t2 206v659l-19 27h90l967 -1407v600q0 231 -9 403.5t-15.5 226.5t-24.5 179l123 -2q-20 -126 -27 -178.5t-17 -225.5t-10 -403v-631h-81l-957 1380v-628q0 -135 2.5 -233.5t9 -176.5t11 -116.5t16 -115t16.5 -110.5 h-122zM358 1739q0 51 16 86.5t41.5 51.5t46 22t40.5 6q54 0 135.5 -32.5t156.5 -64.5t113 -32q35 0 49.5 22.5t14.5 85.5h8q0 -99 -29 -134.5t-86 -35.5q-48 0 -129.5 35t-159 70.5t-116.5 35.5q-92 0 -92 -116h-9z" />
<glyph unicode="&#xd2;" horiz-adv-x="1380" d="M82 711q0 107 21.5 212t69.5 204.5t117.5 175t172.5 121.5t227 46t227 -46t172.5 -121.5t117.5 -175t69.5 -204.5t21.5 -212q0 -149 -44 -284.5t-122 -237.5t-193 -162t-249 -60t-249 60t-193 162t-122 237.5t-44 284.5zM164 711q0 -92 19 -189.5t61.5 -193.5t102 -171 t149 -122t194.5 -47q110 0 201.5 47t150 122t99.5 171.5t58.5 193t17.5 189.5q0 63 -9 131t-29 140.5t-49 139.5t-72 127t-95.5 104.5t-123 70.5t-149.5 26q-98 0 -179.5 -34.5t-137.5 -94t-98 -133.5t-65.5 -159t-34.5 -164t-11 -154zM500 1991h82q6 -45 37 -88.5t74.5 -80 t88 -69.5t84 -69t54.5 -66h-11q-34 37 -91.5 76t-109 70t-100.5 65t-78.5 75t-29.5 87z" />
<glyph unicode="&#xd3;" horiz-adv-x="1380" d="M82 711q0 107 21.5 212t69.5 204.5t117.5 175t172.5 121.5t227 46t227 -46t172.5 -121.5t117.5 -175t69.5 -204.5t21.5 -212q0 -149 -44 -284.5t-122 -237.5t-193 -162t-249 -60t-249 60t-193 162t-122 237.5t-44 284.5zM164 711q0 -92 19 -189.5t61.5 -193.5t102 -171 t149 -122t194.5 -47q110 0 201.5 47t150 122t99.5 171.5t58.5 193t17.5 189.5q0 63 -9 131t-29 140.5t-49 139.5t-72 127t-95.5 104.5t-123 70.5t-149.5 26q-98 0 -179.5 -34.5t-137.5 -94t-98 -133.5t-65.5 -159t-34.5 -164t-11 -154zM369 1618q15 30 54.5 66t84 69 t88 69.5t74.5 80t37 88.5h81q0 -46 -29.5 -87t-78.5 -75t-100.5 -65t-109 -70t-91.5 -76h-10z" />
<glyph unicode="&#xd4;" horiz-adv-x="1380" d="M82 711q0 107 21.5 212t69.5 204.5t117.5 175t172.5 121.5t227 46t227 -46t172.5 -121.5t117.5 -175t69.5 -204.5t21.5 -212q0 -149 -44 -284.5t-122 -237.5t-193 -162t-249 -60t-249 60t-193 162t-122 237.5t-44 284.5zM164 711q0 -92 19 -189.5t61.5 -193.5t102 -171 t149 -122t194.5 -47q110 0 201.5 47t150 122t99.5 171.5t58.5 193t17.5 189.5q0 63 -9 131t-29 140.5t-49 139.5t-72 127t-95.5 104.5t-123 70.5t-149.5 26q-98 0 -179.5 -34.5t-137.5 -94t-98 -133.5t-65.5 -159t-34.5 -164t-11 -154zM365 1618q0 44 28 86.5t69.5 76.5 t84.5 66.5t78 70t45 73.5h20q10 -36 47 -73.5t83 -70t91 -66.5t75 -76.5t30 -86.5h-103q0 51 -28.5 102t-65 86.5t-79 81t-60.5 80.5q-18 -35 -57 -81t-71.5 -81t-58.5 -85.5t-26 -102.5h-102z" />
<glyph unicode="&#xd5;" horiz-adv-x="1380" d="M82 711q0 107 21.5 212t69.5 204.5t117.5 175t172.5 121.5t227 46t227 -46t172.5 -121.5t117.5 -175t69.5 -204.5t21.5 -212q0 -149 -44 -284.5t-122 -237.5t-193 -162t-249 -60t-249 60t-193 162t-122 237.5t-44 284.5zM164 711q0 -92 19 -189.5t61.5 -193.5t102 -171 t149 -122t194.5 -47q110 0 201.5 47t150 122t99.5 171.5t58.5 193t17.5 189.5q0 63 -9 131t-29 140.5t-49 139.5t-72 127t-95.5 104.5t-123 70.5t-149.5 26q-98 0 -179.5 -34.5t-137.5 -94t-98 -133.5t-65.5 -159t-34.5 -164t-11 -154zM379 1739q0 51 16 86.5t41 51.5 t45.5 22t40.5 6q54 0 135.5 -32.5t157 -64.5t113.5 -32q35 0 49 22.5t14 85.5h8q0 -99 -28.5 -134.5t-85.5 -35.5q-48 0 -129.5 35t-159.5 70.5t-117 35.5q-92 0 -92 -116h-8z" />
<glyph unicode="&#xd6;" horiz-adv-x="1380" d="M82 711q0 107 21.5 212t69.5 204.5t117.5 175t172.5 121.5t227 46t227 -46t172.5 -121.5t117.5 -175t69.5 -204.5t21.5 -212q0 -149 -44 -284.5t-122 -237.5t-193 -162t-249 -60t-249 60t-193 162t-122 237.5t-44 284.5zM164 711q0 -92 19 -189.5t61.5 -193.5t102 -171 t149 -122t194.5 -47q110 0 201.5 47t150 122t99.5 171.5t58.5 193t17.5 189.5q0 63 -9 131t-29 140.5t-49 139.5t-72 127t-95.5 104.5t-123 70.5t-149.5 26q-98 0 -179.5 -34.5t-137.5 -94t-98 -133.5t-65.5 -159t-34.5 -164t-11 -154zM516 1733q0 20 13 32.5t32 12.5 t31 -12.5t12 -32.5q0 -19 -12 -31t-31 -12t-32 12t-13 31zM776 1733q0 20 13 32.5t32 12.5t31 -12.5t12 -32.5q0 -19 -12 -31t-31 -12t-32 12t-13 31z" />
<glyph unicode="&#xd7;" horiz-adv-x="710" d="M82 403l258 259l-258 260l14 14l258 -260l260 260l15 -14l-260 -260l258 -259l-15 -14l-258 258l-258 -258z" />
<glyph unicode="&#xd8;" horiz-adv-x="1380" d="M82 711q0 107 21.5 212t69.5 204.5t117.5 175t172.5 121.5t227 46q112 0 199 -34l61 215h21l-64 -221q98 -42 175 -121t123 -177.5t69.5 -205t23.5 -215.5q0 -149 -44 -284.5t-122 -237.5t-193 -162t-249 -60q-94 0 -188 33l-62 -213h-20l63 221q-184 76 -292.5 269 t-108.5 434zM164 711q0 -91 20 -188.5t59 -191t103.5 -172t145.5 -122.5l389 1370q-88 43 -191 43q-98 0 -179.5 -34.5t-137.5 -94t-98 -133.5t-65.5 -159t-34.5 -164t-11 -154zM508 29q84 -41 182 -41q110 0 201.5 47t150 122t99.5 171.5t58.5 193t17.5 189.5 q0 89 -18.5 185t-55 192.5t-100 179.5t-144.5 129z" />
<glyph unicode="&#xd9;" horiz-adv-x="1208" d="M92 604v834h84v-942q0 -118 27.5 -209.5t70 -146t101 -90t113.5 -48t114 -12.5q58 0 112.5 12.5t112 48t99.5 90t69 146t27 209.5v942h82v-834q0 -155 -38.5 -277.5t-106.5 -200t-159 -117.5t-198 -40q-108 0 -200 40.5t-161.5 117.5t-109 199.5t-39.5 277.5zM414 1991 h82q6 -45 37 -88.5t74.5 -80t88 -69.5t84 -69t54.5 -66h-11q-34 37 -91.5 76t-109 70t-100.5 65t-78.5 75t-29.5 87z" />
<glyph unicode="&#xda;" horiz-adv-x="1208" d="M92 604v834h84v-942q0 -118 27.5 -209.5t70 -146t101 -90t113.5 -48t114 -12.5q58 0 112.5 12.5t112 48t99.5 90t69 146t27 209.5v942h82v-834q0 -155 -38.5 -277.5t-106.5 -200t-159 -117.5t-198 -40q-108 0 -200 40.5t-161.5 117.5t-109 199.5t-39.5 277.5zM283 1618 q15 30 54.5 66t84 69t88 69.5t74.5 80t37 88.5h81q0 -46 -29.5 -87t-78.5 -75t-100.5 -65t-109 -70t-91.5 -76h-10z" />
<glyph unicode="&#xdb;" horiz-adv-x="1208" d="M92 604v834h84v-942q0 -118 27.5 -209.5t70 -146t101 -90t113.5 -48t114 -12.5q58 0 112.5 12.5t112 48t99.5 90t69 146t27 209.5v942h82v-834q0 -155 -38.5 -277.5t-106.5 -200t-159 -117.5t-198 -40q-108 0 -200 40.5t-161.5 117.5t-109 199.5t-39.5 277.5zM279 1618 q0 44 28 86.5t69.5 76.5t84.5 66.5t78 70t45 73.5h20q10 -36 47 -73.5t83 -70t91 -66.5t75 -76.5t30 -86.5h-103q0 51 -28.5 102t-65 86.5t-79 81t-60.5 80.5q-18 -35 -57 -81t-71.5 -81t-58.5 -85.5t-26 -102.5h-102z" />
<glyph unicode="&#xdc;" horiz-adv-x="1208" d="M92 604v834h84v-942q0 -118 27.5 -209.5t70 -146t101 -90t113.5 -48t114 -12.5q58 0 112.5 12.5t112 48t99.5 90t69 146t27 209.5v942h82v-834q0 -155 -38.5 -277.5t-106.5 -200t-159 -117.5t-198 -40q-108 0 -200 40.5t-161.5 117.5t-109 199.5t-39.5 277.5zM430 1733 q0 20 13 32.5t32 12.5t31 -12.5t12 -32.5q0 -19 -12 -31t-31 -12t-32 12t-13 31zM690 1733q0 20 13 32.5t32 12.5t31 -12.5t12 -32.5q0 -19 -12 -31t-31 -12t-32 12t-13 31z" />
<glyph unicode="&#xdd;" horiz-adv-x="849" d="M-125 1438h82l459 -776l155 245q148 234 198.5 329t76.5 202h82l-512 -803v-635h-82v635zM104 1618q15 30 54.5 66t84 69t88 69.5t74.5 80t37 88.5h82q0 -46 -29.5 -87t-78.5 -75t-100.5 -65t-109 -70t-91.5 -76h-11z" />
<glyph unicode="&#xde;" horiz-adv-x="1005" d="M92 0v1438h82v-287h295q235 0 365.5 -112.5t130.5 -299.5q0 -82 -34.5 -158t-97 -134t-157.5 -93t-207 -35h-295v-319h-82zM174 340h270q100 -2 178.5 22.5t126.5 64t79 94t43 108t12 110.5q0 69 -11.5 124.5t-42 106.5t-79 85.5t-126 54.5t-180.5 20h-270v-790z" />
<glyph unicode="&#xdf;" horiz-adv-x="1251" d="M41 0v838q0 126 37 232.5t97 178.5t137 123t156 74.5t155 23.5q168 0 226 -96t-18 -254l-73 -147q120 -81 209 -167t141 -168t77 -157t25 -147q0 -161 -110.5 -266t-272.5 -105q-147 0 -291.5 83.5t-242.5 246.5l22 16q53 -98 135 -166t168.5 -98.5t174.5 -30.5 q140 0 234.5 89.5t94.5 228.5q0 136 -104 290t-324 304l111 219q33 65 33 121q0 81 -62 128.5t-166 47.5q-65 0 -131 -21t-130.5 -67t-114.5 -112t-80.5 -164t-30.5 -214v-864h-82z" />
<glyph unicode="&#xe0;" horiz-adv-x="1091" d="M92 311q0 43 11 83t26 71.5t45 66.5t53.5 58t67.5 56t70 50.5t77 51.5q62 41 98.5 66t90 68t86.5 79.5t65 87t49 104.5q-62 43 -141 43q-59 0 -119 -20t-101.5 -44.5t-100.5 -44.5t-117 -20v82q6 0 18.5 -1t18.5 -1q77 0 209.5 35t228.5 35q130 0 201 -70t71 -199v-948 h-81v260q-61 -124 -186 -209.5t-265 -85.5q-101 0 -185 39t-137 119t-53 188zM174 311q0 -152 84.5 -233.5t212.5 -81.5q130 0 254.5 82t192.5 229v668q0 101 -68 162q-20 -53 -52.5 -103t-63.5 -86t-80 -78.5t-80.5 -66.5t-86.5 -64q-64 -46 -97.5 -71.5t-82 -70.5 t-72.5 -82.5t-42.5 -91t-18.5 -112.5zM356 1737h82q6 -45 37 -88.5t74.5 -80t88 -69.5t84 -69t54.5 -66h-10q-34 37 -91.5 76t-109.5 70t-101 65t-78.5 75t-29.5 87z" />
<glyph unicode="&#xe1;" horiz-adv-x="1091" d="M92 311q0 43 11 83t26 71.5t45 66.5t53.5 58t67.5 56t70 50.5t77 51.5q62 41 98.5 66t90 68t86.5 79.5t65 87t49 104.5q-62 43 -141 43q-59 0 -119 -20t-101.5 -44.5t-100.5 -44.5t-117 -20v82q6 0 18.5 -1t18.5 -1q77 0 209.5 35t228.5 35q130 0 201 -70t71 -199v-948 h-81v260q-61 -124 -186 -209.5t-265 -85.5q-101 0 -185 39t-137 119t-53 188zM174 311q0 -152 84.5 -233.5t212.5 -81.5q130 0 254.5 82t192.5 229v668q0 101 -68 162q-20 -53 -52.5 -103t-63.5 -86t-80 -78.5t-80.5 -66.5t-86.5 -64q-64 -46 -97.5 -71.5t-82 -70.5 t-72.5 -82.5t-42.5 -91t-18.5 -112.5zM225 1364q15 30 54.5 66t84 69t88 69.5t74.5 80t37 88.5h82q0 -46 -29.5 -87t-78.5 -75t-100.5 -65t-109 -70t-91.5 -76h-11z" />
<glyph unicode="&#xe2;" horiz-adv-x="1091" d="M92 311q0 43 11 83t26 71.5t45 66.5t53.5 58t67.5 56t70 50.5t77 51.5q62 41 98.5 66t90 68t86.5 79.5t65 87t49 104.5q-62 43 -141 43q-59 0 -119 -20t-101.5 -44.5t-100.5 -44.5t-117 -20v82q6 0 18.5 -1t18.5 -1q77 0 209.5 35t228.5 35q130 0 201 -70t71 -199v-948 h-81v260q-61 -124 -186 -209.5t-265 -85.5q-101 0 -185 39t-137 119t-53 188zM174 311q0 -152 84.5 -233.5t212.5 -81.5q130 0 254.5 82t192.5 229v668q0 101 -68 162q-20 -53 -52.5 -103t-63.5 -86t-80 -78.5t-80.5 -66.5t-86.5 -64q-64 -46 -97.5 -71.5t-82 -70.5 t-72.5 -82.5t-42.5 -91t-18.5 -112.5zM221 1364q0 44 28 86.5t69.5 76.5t84.5 66.5t78 70t45 73.5h21q10 -36 47 -73.5t83 -70t90.5 -66.5t74.5 -76.5t30 -86.5h-102q0 51 -28.5 102t-65 86.5t-79 81t-60.5 80.5q-18 -35 -57 -81t-71.5 -81t-58.5 -85.5t-26 -102.5h-103z " />
<glyph unicode="&#xe3;" horiz-adv-x="1091" d="M92 311q0 43 11 83t26 71.5t45 66.5t53.5 58t67.5 56t70 50.5t77 51.5q62 41 98.5 66t90 68t86.5 79.5t65 87t49 104.5q-62 43 -141 43q-59 0 -119 -20t-101.5 -44.5t-100.5 -44.5t-117 -20v82q6 0 18.5 -1t18.5 -1q77 0 209.5 35t228.5 35q130 0 201 -70t71 -199v-948 h-81v260q-61 -124 -186 -209.5t-265 -85.5q-101 0 -185 39t-137 119t-53 188zM174 311q0 -152 84.5 -233.5t212.5 -81.5q130 0 254.5 82t192.5 229v668q0 101 -68 162q-20 -53 -52.5 -103t-63.5 -86t-80 -78.5t-80.5 -66.5t-86.5 -64q-64 -46 -97.5 -71.5t-82 -70.5 t-72.5 -82.5t-42.5 -91t-18.5 -112.5zM236 1485q0 51 16 86.5t41 51.5t45.5 22t40.5 6q54 0 135.5 -32.5t156.5 -64.5t113 -32q35 0 49.5 22.5t14.5 85.5h8q0 -99 -29 -134.5t-86 -35.5q-48 0 -129.5 35.5t-159 71t-116.5 35.5q-42 0 -67 -28t-25 -89h-8z" />
<glyph unicode="&#xe4;" horiz-adv-x="1091" d="M92 311q0 43 11 83t26 71.5t45 66.5t53.5 58t67.5 56t70 50.5t77 51.5q62 41 98.5 66t90 68t86.5 79.5t65 87t49 104.5q-62 43 -141 43q-59 0 -119 -20t-101.5 -44.5t-100.5 -44.5t-117 -20v82q6 0 18.5 -1t18.5 -1q77 0 209.5 35t228.5 35q130 0 201 -70t71 -199v-948 h-81v260q-61 -124 -186 -209.5t-265 -85.5q-101 0 -185 39t-137 119t-53 188zM174 311q0 -152 84.5 -233.5t212.5 -81.5q130 0 254.5 82t192.5 229v668q0 101 -68 162q-20 -53 -52.5 -103t-63.5 -86t-80 -78.5t-80.5 -66.5t-86.5 -64q-64 -46 -97.5 -71.5t-82 -70.5 t-72.5 -82.5t-42.5 -91t-18.5 -112.5zM373 1479q0 20 13 32.5t32 12.5t31 -12.5t12 -32.5q0 -19 -12 -31t-31 -12t-32 12t-13 31zM633 1479q0 20 13 32.5t32 12.5t31 -12.5t12 -32.5q0 -19 -12 -31t-31 -12t-32 12t-13 31z" />
<glyph unicode="&#xe5;" horiz-adv-x="1091" d="M92 311q0 43 11 83t26 71.5t45 66.5t53.5 58t67.5 56t70 50.5t77 51.5q62 41 98.5 66t90 68t86.5 79.5t65 87t49 104.5q-62 43 -141 43q-59 0 -119 -20t-101.5 -44.5t-100.5 -44.5t-117 -20v82q6 0 18.5 -1t18.5 -1q77 0 209.5 35t228.5 35q130 0 201 -70t71 -199v-948 h-81v260q-61 -124 -186 -209.5t-265 -85.5q-101 0 -185 39t-137 119t-53 188zM174 311q0 -152 84.5 -233.5t212.5 -81.5q130 0 254.5 82t192.5 229v668q0 101 -68 162q-20 -53 -52.5 -103t-63.5 -86t-80 -78.5t-80.5 -66.5t-86.5 -64q-64 -46 -97.5 -71.5t-82 -70.5 t-72.5 -82.5t-42.5 -91t-18.5 -112.5zM379 1536q0 65 43.5 108.5t107.5 43.5t108 -44t44 -108t-44 -108t-108 -44t-107.5 43.5t-43.5 108.5zM422 1536q0 -46 31 -77.5t77 -31.5t77.5 31.5t31.5 77.5t-31.5 77.5t-77.5 31.5t-77 -31.5t-31 -77.5z" />
<glyph unicode="&#xe6;" horiz-adv-x="2103" d="M92 311q0 79 34 147.5t91 121t126.5 101t144.5 98.5t141.5 102t121.5 122.5t80 149.5q-62 43 -141 43q-57 0 -98.5 -11.5t-62.5 -29t-41.5 -37.5t-36.5 -37.5t-46 -29t-71 -11.5v82q26 0 68 15t83.5 32.5t107.5 32.5t134 15q151 0 210.5 -66t59.5 -203v-10 q76 133 214.5 206t310.5 73q112 0 199.5 -27.5t140 -74t79.5 -104.5t27 -124q0 -54 -14.5 -106t-46 -99.5t-76.5 -82t-110.5 -52t-143.5 -10.5q-120 11 -201 5.5t-131 -41t-78 -112.5l-45 60q12 35 35 60t55.5 38t66.5 19.5t80.5 6t84.5 -2.5t91 -7q9 -1 14.5 -1.5t14 -1 t15.5 -1.5q79 -7 137.5 15t90 57.5t50.5 86.5t24 90t5 79q0 43 -7.5 81.5t-31 82t-61.5 74t-105.5 51t-156.5 20.5q-119 0 -219 -48t-166 -128.5t-103 -184.5t-37 -217q0 -142 46 -259.5t124 -194t179 -118.5t213 -42q56 0 110.5 16.5t105 52t89.5 86.5t63.5 126.5 t26.5 165.5l69 2q0 -143 -74.5 -253.5t-192 -166.5t-253.5 -56q-75 0 -159 29.5t-163.5 84t-145 144.5t-95.5 199q-45 -209 -178 -339t-297 -130q-101 0 -185 39t-137 119t-53 188zM174 311q0 -150 111 -221q100 -65 240 -36q153 32 259 158q134 160 134 406v357 q0 100 -68 162q-30 -80 -83.5 -150t-115 -121t-129 -100t-129 -96t-111 -97.5t-79 -117t-29.5 -144.5z" />
<glyph unicode="&#xe7;" horiz-adv-x="1085" d="M61 616q0 133 32 239t82 171.5t116.5 109t131 61t130.5 17.5q74 0 131.5 -15t93.5 -37t68 -43.5t72 -36.5t88 -15v-61h-17q-44 0 -81.5 19.5t-68.5 47t-66.5 55t-90 47t-123.5 19.5q-46 0 -97.5 -15t-111.5 -56.5t-106.5 -103.5t-75.5 -167.5t-25 -237.5q4 -140 47 -258 t111 -194t153 -118t175 -42q47 0 93.5 20.5t84.5 50t74.5 58.5t76.5 49.5t78 20.5v-82q-49 -6 -107.5 -32t-104.5 -52t-112 -47t-130 -21q-18 0 -50 4l-20 -65h106q62 0 106 -28.5t44 -96.5q0 -53 -21 -91t-53 -57.5t-77 -33.5t-86 -20t-87 -15t-73 -19v11q25 8 67 16.5 t72 14.5t65.5 20t58 33t37.5 53t15 80q0 127 -90 127h-104l22 73q-84 15 -163 64t-144.5 127t-105.5 195.5t-40 256.5z" />
<glyph unicode="&#xe8;" horiz-adv-x="1204" d="M61 618q0 137 46 250.5t127.5 189.5t192 117.5t239.5 41.5q112 0 199.5 -27.5t140 -74t79.5 -104.5t27 -124q0 -142 -100 -241.5t-291 -108.5q-29 -1 -75.5 -2.5t-68 -2.5t-56.5 -3.5t-52.5 -6t-42.5 -10.5t-38 -17.5t-29.5 -25t-27.5 -34.5t-20 -46l-45 60q16 45 48 71 t83 34t95.5 9t116.5 -2t114 -2q79 3 137.5 28t90 59.5t50.5 81.5t24 83.5t5 75.5q0 43 -7.5 81.5t-31 82t-61.5 74t-105.5 51t-156.5 20.5q-119 0 -219 -48t-166 -128.5t-103 -184.5t-37 -217q0 -126 31 -232.5t81.5 -177.5t115.5 -121t132 -72.5t132 -22.5q56 0 109.5 16.5 t92 41.5t78.5 54.5t71.5 54.5t68.5 41.5t71 16.5v-82q-35 0 -74.5 -17.5t-80 -42.5t-87 -50t-113 -42.5t-142.5 -17.5q-114 0 -215.5 42.5t-180.5 122.5t-125.5 206t-46.5 282zM412 1737h82q6 -45 37 -88.5t74.5 -80t87.5 -69.5t83.5 -69t54.5 -66h-10q-34 37 -91.5 76 t-109 70t-100.5 65t-78.5 75t-29.5 87z" />
<glyph unicode="&#xe9;" horiz-adv-x="1204" d="M61 618q0 137 46 250.5t127.5 189.5t192 117.5t239.5 41.5q112 0 199.5 -27.5t140 -74t79.5 -104.5t27 -124q0 -142 -100 -241.5t-291 -108.5q-29 -1 -75.5 -2.5t-68 -2.5t-56.5 -3.5t-52.5 -6t-42.5 -10.5t-38 -17.5t-29.5 -25t-27.5 -34.5t-20 -46l-45 60q16 45 48 71 t83 34t95.5 9t116.5 -2t114 -2q79 3 137.5 28t90 59.5t50.5 81.5t24 83.5t5 75.5q0 43 -7.5 81.5t-31 82t-61.5 74t-105.5 51t-156.5 20.5q-119 0 -219 -48t-166 -128.5t-103 -184.5t-37 -217q0 -126 31 -232.5t81.5 -177.5t115.5 -121t132 -72.5t132 -22.5q56 0 109.5 16.5 t92 41.5t78.5 54.5t71.5 54.5t68.5 41.5t71 16.5v-82q-35 0 -74.5 -17.5t-80 -42.5t-87 -50t-113 -42.5t-142.5 -17.5q-114 0 -215.5 42.5t-180.5 122.5t-125.5 206t-46.5 282zM281 1364q15 30 54.5 66t83.5 69t87.5 69.5t74.5 80t37 88.5h82q0 -46 -29.5 -87t-78.5 -75 t-100.5 -65t-109 -70t-91.5 -76h-10z" />
<glyph unicode="&#xea;" horiz-adv-x="1204" d="M61 618q0 137 46 250.5t127.5 189.5t192 117.5t239.5 41.5q112 0 199.5 -27.5t140 -74t79.5 -104.5t27 -124q0 -142 -100 -241.5t-291 -108.5q-29 -1 -75.5 -2.5t-68 -2.5t-56.5 -3.5t-52.5 -6t-42.5 -10.5t-38 -17.5t-29.5 -25t-27.5 -34.5t-20 -46l-45 60q16 45 48 71 t83 34t95.5 9t116.5 -2t114 -2q79 3 137.5 28t90 59.5t50.5 81.5t24 83.5t5 75.5q0 43 -7.5 81.5t-31 82t-61.5 74t-105.5 51t-156.5 20.5q-119 0 -219 -48t-166 -128.5t-103 -184.5t-37 -217q0 -126 31 -232.5t81.5 -177.5t115.5 -121t132 -72.5t132 -22.5q56 0 109.5 16.5 t92 41.5t78.5 54.5t71.5 54.5t68.5 41.5t71 16.5v-82q-35 0 -74.5 -17.5t-80 -42.5t-87 -50t-113 -42.5t-142.5 -17.5q-114 0 -215.5 42.5t-180.5 122.5t-125.5 206t-46.5 282zM276 1364q0 44 28 86.5t70 76.5t85 66.5t78 70t45 73.5h20q10 -36 47 -73.5t83 -70t91 -66.5 t75 -76.5t30 -86.5h-103q0 51 -28.5 102t-65 86.5t-79 81t-60.5 80.5q-18 -35 -57 -81t-71.5 -81t-58.5 -85.5t-26 -102.5h-103z" />
<glyph unicode="&#xeb;" horiz-adv-x="1204" d="M61 618q0 137 46 250.5t127.5 189.5t192 117.5t239.5 41.5q112 0 199.5 -27.5t140 -74t79.5 -104.5t27 -124q0 -142 -100 -241.5t-291 -108.5q-29 -1 -75.5 -2.5t-68 -2.5t-56.5 -3.5t-52.5 -6t-42.5 -10.5t-38 -17.5t-29.5 -25t-27.5 -34.5t-20 -46l-45 60q16 45 48 71 t83 34t95.5 9t116.5 -2t114 -2q79 3 137.5 28t90 59.5t50.5 81.5t24 83.5t5 75.5q0 43 -7.5 81.5t-31 82t-61.5 74t-105.5 51t-156.5 20.5q-119 0 -219 -48t-166 -128.5t-103 -184.5t-37 -217q0 -126 31 -232.5t81.5 -177.5t115.5 -121t132 -72.5t132 -22.5q56 0 109.5 16.5 t92 41.5t78.5 54.5t71.5 54.5t68.5 41.5t71 16.5v-82q-35 0 -74.5 -17.5t-80 -42.5t-87 -50t-113 -42.5t-142.5 -17.5q-114 0 -215.5 42.5t-180.5 122.5t-125.5 206t-46.5 282zM428 1479q0 20 13 32.5t32 12.5t31 -12.5t12 -32.5q0 -19 -12 -31t-31 -12t-32 12t-13 31z M688 1479q0 20 13 32.5t32 12.5t31 -12.5t12 -32.5q0 -19 -12 -31t-31 -12t-32 12t-13 31z" />
<glyph unicode="&#xec;" horiz-adv-x="296" d="M-31 1737h82q6 -45 37 -88.5t74.5 -80t88 -69.5t84 -69t54.5 -66h-10q-34 37 -91.5 76t-109.5 70t-101 65t-78.5 75t-29.5 87zM123 0v1184h82v-1184h-82z" />
<glyph unicode="&#xed;" horiz-adv-x="296" d="M-162 1364q15 30 54.5 66t84 69t88 69.5t74.5 80t37 88.5h82q0 -46 -29.5 -87t-78.5 -75t-101 -65t-109.5 -70t-91.5 -76h-10zM123 0v1184h82v-1184h-82z" />
<glyph unicode="&#xee;" horiz-adv-x="296" d="M-166 1364q0 44 28 86.5t69.5 76.5t84.5 66.5t78 70t45 73.5h21q10 -36 47 -73.5t83 -70t90.5 -66.5t74.5 -76.5t30 -86.5h-102q0 51 -28.5 102t-65 86.5t-79 81t-60.5 80.5q-18 -35 -57 -81t-71.5 -81t-58.5 -85.5t-26 -102.5h-103zM123 0v1184h82v-1184h-82z" />
<glyph unicode="&#xef;" horiz-adv-x="296" d="M-14 1479q0 20 13 32.5t32 12.5t31 -12.5t12 -32.5q0 -19 -12 -31t-31 -12t-32 12t-13 31zM123 0v1184h82v-1184h-82zM246 1479q0 20 13 32.5t32 12.5t31 -12.5t12 -32.5q0 -19 -12 -31t-31 -12t-32 12t-13 31z" />
<glyph unicode="&#xf0;" horiz-adv-x="1181" d="M61 569q0 124 28 230.5t76.5 182.5t113 130.5t137.5 80.5t149 26q150 0 307 -68v-29q-139 68 -260 68q-240 0 -359 -164t-110 -457q9 -276 129 -428.5t308 -152.5q97 0 176 39.5t130.5 105t86.5 153.5t50 181t15 192q0 285 -93.5 525t-293.5 401l-239 -147l-11 22 l228 144q-102 79 -228 133v26q132 -62 248 -147l203 127l10 -27l-190 -119q122 -95 211 -211.5t139.5 -239.5t74 -243t23.5 -244q0 -147 -32.5 -272t-96.5 -222t-169.5 -152.5t-241.5 -55.5q-106 0 -200.5 42.5t-165 120t-112 194t-41.5 255.5z" />
<glyph unicode="&#xf1;" horiz-adv-x="1243" d="M123 0v1184h82v-289q93 135 244.5 224t291.5 89q118 0 201.5 -72.5t108.5 -222.5l153 -913h-82l-151 913q-22 130 -94 194t-175 64q-123 0 -260 -85t-237 -228v-858h-82zM311 1485q0 51 16 86.5t41.5 51.5t46 22t40.5 6q54 0 135.5 -32.5t156.5 -64.5t113 -32 q35 0 49.5 22.5t14.5 85.5h8q0 -99 -29 -134.5t-86 -35.5q-48 0 -129.5 35.5t-159 71t-116.5 35.5q-42 0 -67.5 -28t-25.5 -89h-8z" />
<glyph unicode="&#xf2;" horiz-adv-x="1140" d="M61 608q0 136 39.5 251t108 193t161.5 121.5t199 43.5t199 -43.5t162 -121.5t109 -193t40 -251q0 -152 -40 -275.5t-109 -203t-161.5 -122t-199.5 -42.5t-199 42.5t-161 122.5t-108.5 203t-39.5 275zM131 678q0 -128 34 -250.5t94.5 -219.5t152.5 -156.5t200 -59.5 q118 0 211.5 74t142 191.5t48.5 252.5q0 125 -36 246t-99.5 217.5t-159.5 155.5t-207 59q-93 0 -167.5 -42.5t-120 -114.5t-69.5 -162.5t-24 -190.5zM381 1737h82q6 -45 37 -88.5t74.5 -80t88 -69.5t84 -69t54.5 -66h-10q-34 37 -91.5 76t-109.5 70t-101 65t-78.5 75 t-29.5 87z" />
<glyph unicode="&#xf3;" horiz-adv-x="1140" d="M61 608q0 136 39.5 251t108 193t161.5 121.5t199 43.5t199 -43.5t162 -121.5t109 -193t40 -251q0 -152 -40 -275.5t-109 -203t-161.5 -122t-199.5 -42.5t-199 42.5t-161 122.5t-108.5 203t-39.5 275zM131 678q0 -128 34 -250.5t94.5 -219.5t152.5 -156.5t200 -59.5 q118 0 211.5 74t142 191.5t48.5 252.5q0 125 -36 246t-99.5 217.5t-159.5 155.5t-207 59q-93 0 -167.5 -42.5t-120 -114.5t-69.5 -162.5t-24 -190.5zM250 1364q15 30 54.5 66t84 69t88 69.5t74.5 80t37 88.5h82q0 -46 -29.5 -87t-78.5 -75t-101 -65t-109.5 -70t-91.5 -76 h-10z" />
<glyph unicode="&#xf4;" horiz-adv-x="1140" d="M61 608q0 136 39.5 251t108 193t161.5 121.5t199 43.5t199 -43.5t162 -121.5t109 -193t40 -251q0 -152 -40 -275.5t-109 -203t-161.5 -122t-199.5 -42.5t-199 42.5t-161 122.5t-108.5 203t-39.5 275zM131 678q0 -128 34 -250.5t94.5 -219.5t152.5 -156.5t200 -59.5 q118 0 211.5 74t142 191.5t48.5 252.5q0 125 -36 246t-99.5 217.5t-159.5 155.5t-207 59q-93 0 -167.5 -42.5t-120 -114.5t-69.5 -162.5t-24 -190.5zM246 1364q0 44 28 86.5t69.5 76.5t84.5 66.5t78 70t45 73.5h20q10 -36 47 -73.5t83 -70t91 -66.5t75 -76.5t30 -86.5h-102 q0 51 -29 102t-65.5 86.5t-79 81t-60.5 80.5q-18 -35 -57 -81t-71.5 -81t-58.5 -85.5t-26 -102.5h-102z" />
<glyph unicode="&#xf5;" horiz-adv-x="1140" d="M61 608q0 136 39.5 251t108 193t161.5 121.5t199 43.5t199 -43.5t162 -121.5t109 -193t40 -251q0 -152 -40 -275.5t-109 -203t-161.5 -122t-199.5 -42.5t-199 42.5t-161 122.5t-108.5 203t-39.5 275zM131 678q0 -128 34 -250.5t94.5 -219.5t152.5 -156.5t200 -59.5 q118 0 211.5 74t142 191.5t48.5 252.5q0 125 -36 246t-99.5 217.5t-159.5 155.5t-207 59q-93 0 -167.5 -42.5t-120 -114.5t-69.5 -162.5t-24 -190.5zM260 1485q0 51 16 86.5t41 51.5t45.5 22t40.5 6q54 0 135.5 -32.5t157 -64.5t113.5 -32q35 0 49 22.5t14 85.5h9 q0 -99 -29 -134.5t-86 -35.5q-48 0 -129.5 35.5t-159.5 71t-117 35.5q-42 0 -67 -28t-25 -89h-8z" />
<glyph unicode="&#xf6;" horiz-adv-x="1140" d="M61 608q0 136 39.5 251t108 193t161.5 121.5t199 43.5t199 -43.5t162 -121.5t109 -193t40 -251q0 -152 -40 -275.5t-109 -203t-161.5 -122t-199.5 -42.5t-199 42.5t-161 122.5t-108.5 203t-39.5 275zM131 678q0 -128 34 -250.5t94.5 -219.5t152.5 -156.5t200 -59.5 q118 0 211.5 74t142 191.5t48.5 252.5q0 125 -36 246t-99.5 217.5t-159.5 155.5t-207 59q-93 0 -167.5 -42.5t-120 -114.5t-69.5 -162.5t-24 -190.5zM397 1479q0 20 13 32.5t32 12.5t31 -12.5t12 -32.5q0 -19 -12 -31t-31 -12t-32 12t-13 31zM657 1479q0 20 13 32.5t32 12.5 t31 -12.5t12 -32.5q0 -19 -12 -31t-31 -12t-32 12t-13 31z" />
<glyph unicode="&#xf7;" horiz-adv-x="915" d="M82 623v20h752v-20h-752zM354 324q0 23 15.5 38t38.5 15t38 -15t15 -38t-15 -38.5t-38 -15.5t-38.5 15.5t-15.5 38.5zM354 965q0 23 15.5 38t38.5 15t38 -15t15 -38t-15 -38.5t-38 -15.5t-38.5 15.5t-15.5 38.5z" />
<glyph unicode="&#xf8;" horiz-adv-x="1140" d="M61 608q0 136 39.5 251t108 193t161.5 121.5t199 43.5q84 0 166 -29l96 336h21l-98 -344q147 -62 236 -213t89 -359q0 -152 -40 -275.5t-109 -203t-161.5 -122t-199.5 -42.5q-80 0 -153 25l-94 -330h-21l96 336q-153 59 -244.5 217t-91.5 395zM131 678q0 -196 76 -370 t205 -257l307 1077q-94 60 -207 60q-93 0 -167.5 -42.5t-120 -114.5t-69.5 -162.5t-24 -190.5zM430 41q87 -49 182 -49q118 0 211.5 74t142 191.5t48.5 252.5q0 185 -74.5 352.5t-202.5 255.5z" />
<glyph unicode="&#xf9;" horiz-adv-x="1079" d="M92 293v891h82v-938q0 -91 41 -151t103.5 -84.5t142.5 -24.5q53 0 105.5 10t80.5 19t78 28q39 16 61.5 24t55.5 13.5t63 1.5v1100h82v-1182h-10q-53 61 -113 61q-41 0 -121 -32q-48 -19 -81 -30.5t-92.5 -22.5t-120.5 -11q-173 0 -265 94.5t-92 233.5zM350 1737h82 q6 -45 37 -88.5t74.5 -80t88 -69.5t84 -69t54.5 -66h-10q-34 37 -91.5 76t-109.5 70t-101 65t-78.5 75t-29.5 87z" />
<glyph unicode="&#xfa;" horiz-adv-x="1079" d="M92 293v891h82v-938q0 -91 41 -151t103.5 -84.5t142.5 -24.5q53 0 105.5 10t80.5 19t78 28q39 16 61.5 24t55.5 13.5t63 1.5v1100h82v-1182h-10q-53 61 -113 61q-41 0 -121 -32q-48 -19 -81 -30.5t-92.5 -22.5t-120.5 -11q-173 0 -265 94.5t-92 233.5zM219 1364 q15 30 54.5 66t84 69t88 69.5t74.5 80t37 88.5h82q0 -46 -29.5 -87t-78.5 -75t-101 -65t-109.5 -70t-91.5 -76h-10z" />
<glyph unicode="&#xfb;" horiz-adv-x="1079" d="M92 293v891h82v-938q0 -91 41 -151t103.5 -84.5t142.5 -24.5q53 0 105.5 10t80.5 19t78 28q39 16 61.5 24t55.5 13.5t63 1.5v1100h82v-1182h-10q-53 61 -113 61q-41 0 -121 -32q-48 -19 -81 -30.5t-92.5 -22.5t-120.5 -11q-173 0 -265 94.5t-92 233.5zM215 1364 q0 44 28 86.5t69.5 76.5t84.5 66.5t78 70t45 73.5h21q10 -36 47 -73.5t83 -70t90.5 -66.5t74.5 -76.5t30 -86.5h-102q0 51 -29 102t-65.5 86.5t-79 81t-60.5 80.5q-18 -35 -57 -81t-71.5 -81t-58.5 -85.5t-26 -102.5h-102z" />
<glyph unicode="&#xfc;" horiz-adv-x="1079" d="M92 293v891h82v-938q0 -91 41 -151t103.5 -84.5t142.5 -24.5q53 0 105.5 10t80.5 19t78 28q39 16 61.5 24t55.5 13.5t63 1.5v1100h82v-1182h-10q-53 61 -113 61q-41 0 -121 -32q-48 -19 -81 -30.5t-92.5 -22.5t-120.5 -11q-173 0 -265 94.5t-92 233.5zM367 1479 q0 20 13 32.5t32 12.5t31 -12.5t12 -32.5q0 -19 -12 -31t-31 -12t-32 12t-13 31zM627 1479q0 20 13 32.5t32 12.5t31 -12.5t12 -32.5q0 -19 -12 -31t-31 -12t-32 12t-13 31z" />
<glyph unicode="&#xfd;" horiz-adv-x="989" d="M-229 -254q58 0 127 -24t123 -53t125.5 -53t134.5 -24q77 0 139 23t100 61.5t58 87.5t17.5 104t-26.5 107l-551 1209h82l502 -1108l203 583q38 109 72 272.5t34 252.5h103l-398 -1147q41 -142 9 -245.5t-123.5 -161.5t-220.5 -58q-68 0 -149.5 18t-135.5 36t-120.5 28 t-104.5 -6v98zM174 1364q15 30 54.5 66t84 69t88 69.5t74.5 80t37 88.5h82q0 -46 -29.5 -87t-78.5 -75t-101 -65t-109.5 -70t-91.5 -76h-10z" />
<glyph unicode="&#xfe;" horiz-adv-x="1159" d="M123 -346v1784h82v-627q93 205 220 302t263 97q84 0 159.5 -40.5t132 -112t89 -178.5t29.5 -232q-3 -132 -35.5 -244t-85.5 -189.5t-122.5 -132.5t-146 -80.5t-155.5 -25.5q-101 0 -193 43.5t-155 124.5v-489h-82zM205 178q69 -86 155.5 -129t178.5 -43t177 42.5 t152 120.5t107.5 200t40.5 270q0 241 -104 383.5t-255 142.5q-124 0 -244.5 -102.5t-207.5 -302.5v-582z" />
<glyph unicode="&#xff;" horiz-adv-x="989" d="M-229 -254q58 0 127 -24t123 -53t125.5 -53t134.5 -24q77 0 139 23t100 61.5t58 87.5t17.5 104t-26.5 107l-551 1209h82l502 -1108l203 583q38 109 72 272.5t34 252.5h103l-398 -1147q41 -142 9 -245.5t-123.5 -161.5t-220.5 -58q-68 0 -149.5 18t-135.5 36t-120.5 28 t-104.5 -6v98zM322 1479q0 20 13 32.5t32 12.5t31 -12.5t12 -32.5q0 -19 -12 -31t-31 -12t-32 12t-13 31zM582 1479q0 20 13 32.5t32 12.5t31 -12.5t12 -32.5q0 -19 -12 -31t-31 -12t-32 12t-13 31z" />
<glyph unicode="&#x152;" horiz-adv-x="1957" d="M82 711q0 105 31.5 208.5t97.5 197t159 165t225 114t286 42.5h82q208 0 435.5 -10.5t322 -10.5t137.5 21v-115h-11q-78 0 -186.5 23t-254 46t-312.5 23l-131 2v-598h395q108 0 162.5 15.5t76.5 48t33 100.5h21v-354h-21q-5 41 -11.5 67t-20.5 46.5t-30 30.5t-48.5 16.5 t-67.5 8t-94 1.5h-395v-779q187 1 452.5 43.5t462.5 42.5h10v-106q-110 39 -271.5 40t-369 -19t-284.5 -21h-82q-160 2 -292 39t-225 101t-157 152.5t-94.5 193.5t-30.5 225zM164 711q0 -93 22 -184t75.5 -182.5t133 -161.5t205 -115t281.5 -48v1397q-118 0 -218.5 -24.5 t-172.5 -65.5t-129.5 -98.5t-93.5 -120t-60 -133t-33.5 -135.5t-9.5 -129z" />
<glyph unicode="&#x153;" horiz-adv-x="2201" d="M61 621q0 290 128.5 443t367.5 153q141 0 281.5 -112.5t205.5 -287.5q55 187 210 293.5t366 106.5q112 0 199.5 -27.5t140 -74t79.5 -104.5t27 -124q0 -54 -14.5 -106t-46 -99.5t-76.5 -82t-110.5 -52t-143.5 -10.5q-120 11 -201 5.5t-130.5 -41t-77.5 -112.5l-45 60 q12 35 34.5 60t56 38t65.5 19.5t81.5 6t83.5 -2.5t90 -7q30 -3 45 -4q79 -7 138 15t90 57.5t50.5 86.5t24.5 90t5 79q0 43 -7.5 81.5t-31 81.5t-62 74t-106 51.5t-156.5 20.5q-119 0 -219 -48t-166 -129t-102.5 -184.5t-36.5 -216.5q0 -142 46 -259.5t123.5 -194 t178.5 -118.5t213 -42q56 0 110.5 16.5t105 52t89.5 86.5t63.5 126.5t26.5 165.5l70 2q0 -143 -74.5 -253.5t-192 -166.5t-253.5 -56q-95 0 -198 42.5t-200 135.5t-145 218q-32 -137 -104.5 -230.5t-164 -135.5t-198.5 -42q-95 0 -190 49t-171 133.5t-124 209.5t-48 264z M129 711q0 -131 36 -260t98.5 -231t154.5 -165t196 -63q82 0 150 26t114.5 71.5t79 107.5t47.5 133t15 149q0 172 -63 334t-179.5 268.5t-255.5 106.5q-100 0 -177.5 -39t-123.5 -106.5t-69 -151t-23 -180.5z" />
<glyph unicode="&#x178;" horiz-adv-x="849" d="M-125 1438h82l459 -776l155 245q148 234 198.5 329t76.5 202h82l-512 -803v-635h-82v635zM252 1733q0 20 13 32.5t32 12.5t31 -12.5t12 -32.5q0 -19 -12 -31t-31 -12t-32 12t-13 31zM512 1733q0 20 13 32.5t32 12.5t31 -12.5t12 -32.5q0 -19 -12 -31t-31 -12t-32 12 t-13 31z" />
<glyph unicode="&#x2000;" horiz-adv-x="995" />
<glyph unicode="&#x2001;" horiz-adv-x="1991" />
<glyph unicode="&#x2002;" horiz-adv-x="995" />
<glyph unicode="&#x2003;" horiz-adv-x="1991" />
<glyph unicode="&#x2004;" horiz-adv-x="663" />
<glyph unicode="&#x2005;" horiz-adv-x="497" />
<glyph unicode="&#x2006;" horiz-adv-x="331" />
<glyph unicode="&#x2007;" horiz-adv-x="331" />
<glyph unicode="&#x2008;" horiz-adv-x="248" />
<glyph unicode="&#x2009;" horiz-adv-x="398" />
<glyph unicode="&#x200a;" horiz-adv-x="110" />
<glyph unicode="&#x2010;" horiz-adv-x="614" d="M82 610v21h450v-21h-450z" />
<glyph unicode="&#x2011;" horiz-adv-x="614" d="M82 610v21h450v-21h-450z" />
<glyph unicode="&#x2012;" horiz-adv-x="614" d="M82 610v21h450v-21h-450z" />
<glyph unicode="&#x2013;" horiz-adv-x="942" d="M82 610v21h778v-21h-778z" />
<glyph unicode="&#x2014;" horiz-adv-x="1093" d="M82 610v21h930v-21h-930z" />
<glyph unicode="&#x2018;" d="M82 1147l82 401h20l-82 -401h-20z" />
<glyph unicode="&#x2019;" d="M82 1147l82 401h20l-82 -401h-20z" />
<glyph unicode="&#x201a;" d="M82 -233l82 401h20l-82 -401h-20z" />
<glyph unicode="&#x201c;" horiz-adv-x="409" d="M82 1147l82 401h20l-82 -401h-20zM225 1147l82 401h21l-82 -401h-21z" />
<glyph unicode="&#x201d;" horiz-adv-x="409" d="M82 1147l82 401h20l-82 -401h-20zM225 1147l82 401h21l-82 -401h-21z" />
<glyph unicode="&#x201e;" horiz-adv-x="389" d="M82 -233l82 401h20l-82 -401h-20zM205 -233l82 401h20l-82 -401h-20z" />
<glyph unicode="&#x2022;" horiz-adv-x="376" d="M82 520q0 46 30 76.5t76 30.5t76.5 -30.5t30.5 -76.5t-30.5 -76t-76.5 -30t-76 30t-30 76z" />
<glyph unicode="&#x2026;" horiz-adv-x="829" d="M82 18q0 23 15 38.5t38 15.5t38 -15.5t15 -38.5t-15 -38t-38 -15t-38 15t-15 38zM365 18q0 23 15 38.5t38 15.5t38 -15.5t15 -38.5t-15 -38t-38 -15t-38 15t-15 38zM641 18q0 23 15 38.5t38 15.5t38.5 -15.5t15.5 -38.5t-15.5 -38t-38.5 -15t-38 15t-15 38z" />
<glyph unicode="&#x202f;" horiz-adv-x="398" />
<glyph unicode="&#x2039;" horiz-adv-x="839" d="M82 655v9l676 442v-21l-647 -426l647 -434v-20z" />
<glyph unicode="&#x203a;" horiz-adv-x="839" d="M82 205v20l647 434l-647 426v21l676 -442v-9z" />
<glyph unicode="&#x205f;" horiz-adv-x="497" />
<glyph unicode="&#x20ac;" horiz-adv-x="1476" d="M82 565v21h154q-11 86 -11 147v37h-143v21h145q7 133 49.5 246.5t107 191.5t147 133.5t170.5 81.5t176 26q74 0 157 -15t136.5 -29t112 -13.5t103.5 25.5v-131q-62 0 -128 21.5t-114.5 48t-111 48t-117.5 21.5q-187 0 -325 -87.5t-208.5 -234t-76.5 -333.5h529v-21h-529 q-2 -29 2 -90q2 -31 10 -94h517v-21h-512q24 -146 81.5 -255.5t140 -176t181 -99t213.5 -32.5q131 0 245.5 63.5t190.5 180.5l21 -19q-78 -126 -218 -194t-303 -68q-77 0 -155.5 22.5t-156 71t-142 117.5t-112.5 169.5t-68 219.5h-158z" />
<glyph unicode="&#x2122;" horiz-adv-x="1105" d="M82 1405l16 35h416l14 -35h-10q-8 0 -44.5 13.5t-72.5 13.5h-82v-514h-28v514h-82q-46 0 -76 -13.5t-41 -13.5h-10zM530 918q29 111 33 196l19 326h28l164 -512l168 512h31l51 -522h-31l-49 499l-166 -499h-28l-160 501l-19 -305q0 -138 11 -196h-52z" />
<glyph unicode="&#x25fc;" horiz-adv-x="1187" d="M0 0v1188h1188v-1188h-1188z" />
<glyph unicode="&#xfb01;" horiz-adv-x="864" d="M6 1163v21h246q-73 67 -118.5 143.5t-56 144t3 123.5t56.5 88.5t105 32.5q57 0 110.5 -17t89.5 -40.5t75.5 -47.5t72 -39.5t74 -13.5t86.5 27h10v-119h-8q-51 0 -106.5 24t-105 58.5t-98.5 69t-104 58.5t-105 24q-83 0 -111 -75q-33 -88 30 -218q57 -117 178 -223h442 v-1184h-82v1163h-356v-1163h-82v1163h-246z" />
</font>
</defs>
</svg>
