<?xml version="1.0" standalone="no"?>
<!DOCTYPE svg PUBLIC "-//W3C//DTD SVG 1.1//EN" "http://www.w3.org/Graphics/SVG/1.1/DTD/svg11.dtd" >
<svg xmlns="http://www.w3.org/2000/svg" xmlns:xlink="http://www.w3.org/1999/xlink" version="1.1">
<metadata></metadata>
<defs>
<font id="prettywiseextrabold" horiz-adv-x="1316" >
<font-face units-per-em="2048" ascent="1638" descent="-410" />
<missing-glyph horiz-adv-x="534" />
<glyph horiz-adv-x="0" />
<glyph horiz-adv-x="682" />
<glyph unicode=" "  horiz-adv-x="534" />
<glyph unicode="&#x09;" horiz-adv-x="534" />
<glyph unicode="&#xa0;" horiz-adv-x="534" />
<glyph unicode="!" horiz-adv-x="442" d="M49 137q0 72 50 121t122 49q71 0 120.5 -49t49.5 -121t-49.5 -121t-120.5 -49q-72 0 -122 49t-50 121zM53 1282q0 88 50 137t118 49t118 -49t50 -137q0 -83 -21 -184t-46.5 -185t-46.5 -214t-21 -265h-68q0 135 -21 265t-45.5 214t-45.5 185t-21 184z" />
<glyph unicode="&#x22;" horiz-adv-x="849" d="M49 993q47 46 72 94t28.5 87t-2.5 81.5t-17.5 74.5t-21.5 68t-10 60h305q0 -164 -91 -292.5t-251 -188.5zM446 993q55 54 80 110t22 105.5t-14 91t-24.5 86.5t-13.5 72h303q0 -164 -90.5 -293t-251.5 -188z" />
<glyph unicode="#" horiz-adv-x="1290" d="M49 524v72h377l53 139h-354v70h383l158 407h71l-157 -407h235l158 407h71l-157 -407h354v-70h-383l-53 -139h360v-72h-389l-160 -411h-71l160 411h-236l-160 -411h-71l159 411h-348zM498 596h235l53 139h-235z" />
<glyph unicode="$" horiz-adv-x="1273" d="M49 1153q5 77 57.5 139t135 100t179 58t195.5 20v105h70v-107q74 -5 151 -22.5t119.5 -30t95 -9.5t103.5 32v-346h-10q-42 0 -85.5 27.5t-84 69.5t-82 85.5t-96 81.5t-111.5 51v-438q196 -113 257 -154q208 -141 260 -287q19 -53 20 -108q2 -124 -77 -226t-200.5 -159.5 t-259.5 -67.5v-102h-70v100q-82 1 -179.5 16.5t-159.5 29.5t-120.5 13.5t-90.5 -26.5v346h10q55 0 109 -32.5t101 -79t95.5 -94t109.5 -82.5t125 -38v588q-36 21 -97.5 55t-102 57t-95.5 57t-91.5 62t-75 66t-60.5 74.5t-35 82t-10 93.5zM387 1255q0 -64 58.5 -121 t170.5 -124v405q-41 0 -79 -8t-73 -25.5t-56 -50t-21 -76.5zM686 23q121 14 180.5 90.5t46.5 175.5q-10 78 -68.5 143.5t-158.5 130.5v-540z" />
<glyph unicode="%" horiz-adv-x="1642" d="M57 1122q0 62 9 112.5t34 101t65 84.5t107.5 55.5t157.5 21.5q89 0 156 -21.5t107.5 -55.5t65 -84.5t33.5 -101t9 -112.5q0 -377 -371 -377q-373 0 -373 377zM227 1122q0 -103 15 -172.5t44.5 -105.5t63.5 -50t80 -14t79.5 14t62.5 50t44 105.5t15 172.5 q0 83 -10.5 142.5t-27.5 94t-44 54.5t-54.5 26.5t-64.5 6.5t-64.5 -6.5t-55 -26.5t-45 -54.5t-28 -94t-10.5 -142.5zM358 -137l848 1710h68l-848 -1710h-68zM858 332q0 62 9 112.5t33.5 101t65 84.5t107.5 55.5t156 21.5t156 -21.5t107 -55.5t65 -84.5t33.5 -101t8.5 -112.5 q0 -379 -370 -379q-371 0 -371 379zM1026 332q0 -103 15 -172.5t44.5 -105.5t63.5 -50t80 -14t80 14t63.5 50t44.5 105.5t15 172.5q0 83 -10.5 142.5t-28 94t-45 54.5t-54.5 26t-65 6t-65 -6t-54.5 -26t-45 -54.5t-28 -94t-10.5 -142.5z" />
<glyph unicode="&#x26;" horiz-adv-x="1507" d="M49 356q0 140 94 258t279 174l-27 35q-61 77 -85.5 157t-14.5 149.5t48.5 132t99.5 106.5t143 70t174 26q192 0 297.5 -69t105.5 -170q0 -48 -19.5 -81t-53.5 -52t-70.5 -32t-80.5 -32.5t-73 -42.5l-28 25q35 48 49 117t4.5 132.5t-53 108.5t-113.5 45 q-59 0 -102.5 -39.5t-60 -99t1.5 -137t73 -146.5l545 -686q84 55 84 152q0 43 -21 85t-51 76.5t-60.5 69.5t-51.5 78.5t-21 89.5v31h336q-7 -47 8 -91.5t34 -100t19 -120.5q0 -97 -61.5 -179.5t-175.5 -139.5l202 -256h-374l-213 268q-15 -20 -37.5 -59.5t-39.5 -68 t-48 -63.5t-64 -57.5t-85.5 -37.5t-115.5 -15q-119 1 -211 56.5t-139 143t-47 189.5zM322 411.5q9 -67.5 36 -123t77.5 -91t113.5 -35.5q41 0 73 8.5t65.5 32t53.5 42t64 62.5l-338 426l-4 -2q-55 -23 -91 -75t-47.5 -114.5t-2.5 -130z" />
<glyph unicode="'" horiz-adv-x="452" d="M49 993q47 46 72 94t28.5 87t-2.5 81.5t-17.5 74.5t-21.5 68t-10 60h305q0 -164 -91 -292.5t-251 -188.5z" />
<glyph unicode="(" horiz-adv-x="772" d="M49 666q0 143 18.5 267.5t65.5 243t119.5 202.5t188 135t264.5 51v-68q-38 0 -78 -23.5t-83 -84t-76.5 -150.5t-55 -239t-21.5 -334q0 -187 22 -337.5t56.5 -244t79.5 -156t88 -87.5t84 -25v-68q-110 0 -203 27t-161.5 74.5t-121.5 115.5t-88 146.5t-57 172t-31.5 187 t-9.5 195.5z" />
<glyph unicode=")" horiz-adv-x="772" d="M49 -184q42 0 85 25t88 87.5t80 156t57 244t22 337.5q0 156 -15 286t-40.5 218t-57 153.5t-68 102.5t-69.5 54t-65 17v68q125 0 226 -34.5t171.5 -98.5t121.5 -146.5t80 -186.5t42.5 -209.5t13.5 -223.5q0 -102 -9.5 -195.5t-31.5 -187t-57 -172t-88 -146.5 t-121.5 -115.5t-161.5 -74.5t-203 -27v68z" />
<glyph unicode="*" horiz-adv-x="602" d="M51 1167v47h197l-142 142l33 30l140 -139v195h45v-193l137 137l33 -30l-142 -142h199v-47h-193l136 -135l-33 -31l-137 138v-199h-45v201l-140 -140l-33 31l136 135h-191z" />
<glyph unicode="+" horiz-adv-x="851" d="M49 600v68h344v342h68v-342h340v-68h-340v-342h-68v342h-344z" />
<glyph unicode="," horiz-adv-x="452" d="M49 -223q47 46 72 94t28.5 87t-2.5 81.5t-17.5 74.5t-21.5 68t-10 60h305q0 -164 -91 -293t-251 -189z" />
<glyph unicode="-" horiz-adv-x="550" d="M49 586v69h451v-69h-451z" />
<glyph unicode="." horiz-adv-x="505" d="M115 137q0 72 49 122t121 50t122 -50t50 -122t-50 -121t-122 -49t-121 49t-49 121z" />
<glyph unicode="/" horiz-adv-x="702" d="M49 -291l533 1868h71l-532 -1868h-72z" />
<glyph unicode="0" horiz-adv-x="1583" d="M49 721q0 86 8.5 161t31.5 152.5t59 140.5t94 119t134 94t182 60t235 22q128 0 234 -22t181.5 -60t133.5 -94t94 -118.5t58.5 -140.5t31 -153t8.5 -161q0 -85 -8.5 -160t-31 -153.5t-58.5 -142t-94 -120.5t-133.5 -96t-181.5 -61.5t-234 -22.5q-129 0 -235 22.5 t-182 61.5t-134 96t-94 120.5t-59 142t-31.5 153.5t-8.5 160zM387 721q0 -165 21 -287.5t56.5 -197.5t89 -120.5t110.5 -62t129 -16.5t128.5 16.5t110 62t88 120.5t55.5 197.5t21 287.5q0 118 -11 212.5t-29.5 161.5t-47.5 116t-61.5 78.5t-75.5 47t-84.5 23.5t-93.5 6 q-75 0 -129.5 -12.5t-109.5 -52.5t-89.5 -109t-56 -188t-21.5 -283z" />
<glyph unicode="1" horiz-adv-x="616" d="M41 1147v82l342 209h172v-1438h-336v1260z" />
<glyph unicode="2" horiz-adv-x="1353" d="M49 0v111q0 127 41.5 234.5t111.5 183t161 137.5t191 106t200.5 81t191.5 68t161 61.5t111.5 68.5t41.5 82q0 46 -24 75.5t-70.5 41.5t-102.5 14t-131 -8t-144.5 -24t-154.5 -34q-78 -15 -257.5 -69t-254.5 -54v346q72 -18 171.5 -14.5t170 15t183 24t210.5 12.5 q96 0 174 -22.5t128 -58.5t83.5 -85t47.5 -99t14 -103q0 -89 -33 -167t-89 -136t-131 -110.5t-159 -92t-173 -78.5t-173 -71t-159 -69.5t-131 -74.5t-89 -84.5t-33 -100.5v-34h221q112 0 228.5 28t211 67.5t181 79t165.5 66.5t136 25v-336q-80 37 -243 37t-382 -18t-297 -19 z" />
<glyph unicode="3" horiz-adv-x="1282" d="M49 0v336q51 0 105.5 -22.5t100 -56t100 -73t104.5 -73t115 -56t131 -22.5q122 0 193 66.5t71 168.5q0 62 -29 127.5t-86 130t-153 124.5t-220 102l408 405h-748v281h1010v-115l-356 -369q220 -71 328 -198t108 -275q0 -96 -44 -188.5t-119.5 -163.5t-184.5 -114.5 t-230 -43.5q-82 0 -183 14t-168.5 27t-137.5 12.5t-115 -24.5z" />
<glyph unicode="4" horiz-adv-x="1347" d="M49 381v137l938 920h166v-908h145v-149h-145v-381h-338v381h-766zM147 530h668v656z" />
<glyph unicode="5" horiz-adv-x="1359" d="M49 16v342h10q41 0 79.5 -18t72 -46.5t70 -62.5t81 -68.5t96 -63t123.5 -46.5t156 -18q147 0 241.5 85.5t94.5 213.5q0 81 -49 155.5t-152 135t-261.5 80t-377.5 -10.5l-114 -12l108 756h1065l2 -383h-18q0 69 -54.5 97t-162.5 28h-797l-55 -306q280 100 493 103 q137 0 252.5 -35.5t193 -95.5t120.5 -140.5t43 -170.5q0 -139 -50.5 -248.5t-137 -177t-196 -102t-233.5 -34.5q-93 0 -187.5 11t-158 24t-121 23t-98.5 7.5t-68 -22.5h-10z" />
<glyph unicode="6" horiz-adv-x="1544" d="M49 700q0 138 37 255t102.5 202.5t155.5 150.5t196 102.5t223 53.5t238 9t240 -35v-236q-93 70 -182 117t-174.5 68.5t-159.5 13.5t-136.5 -54t-107 -126.5t-69.5 -210.5t-25 -301q0 -158 37.5 -290t98.5 -216.5t137 -131t155 -46.5q46 0 90.5 15t91 54.5t81.5 99t57 157 t22 220.5q0 101 -21 184t-53.5 135t-73.5 87.5t-79.5 50t-73.5 14.5q-58 0 -92.5 -21t-49.5 -58.5t-21 -84.5t-11.5 -103t-16 -109.5t-41 -109.5t-79.5 -97l-103 276q40 13 74 48t56 77t53 89t64 85t89 63t127 25q125 0 230 -32t186.5 -96t127.5 -167.5t46 -238.5 q0 -129 -41.5 -236.5t-109.5 -179.5t-157.5 -122t-183.5 -72.5t-190 -22.5q-239 0 -413 94.5t-262.5 261.5t-88.5 389z" />
<glyph unicode="7" horiz-adv-x="1181" d="M49 1022v416h1081v-224q-46 -12 -93.5 -39t-101 -77.5t-102 -117.5t-93 -165t-77 -214t-52 -271t-19.5 -330h-340q0 184 39 348.5t106 294.5t163 241t204 193t235 146h-608q-85 0 -144 -24.5t-93.5 -67t-59.5 -109.5h-45z" />
<glyph unicode="8" horiz-adv-x="1484" d="M49 383q0 59 19 110t50 87.5t76.5 67.5t92 51t102.5 35.5t103 24.5t98 15q-211 0 -324.5 82t-113.5 246q0 368 602 368q163 0 284.5 -28t192 -79.5t104 -116t33.5 -144.5t-43.5 -145t-111.5 -103.5t-144.5 -59t-150.5 -20.5q518 -65 518 -391q0 -216 -169.5 -317 t-512.5 -101q-705 0 -705 418zM385 373q0 -18 2.5 -39t11.5 -55.5t24 -66t43.5 -65t65.5 -58t94.5 -40.5t127.5 -16q88 0 155 30t101.5 71t56 93t26.5 85.5t5 60.5q0 57 -5.5 101.5t-26.5 96t-56.5 85t-100.5 56.5t-155 23q-71 0 -127.5 -12t-94.5 -31t-66 -48.5t-43 -59 t-24 -68.5t-11.5 -71t-2.5 -72zM471 1118q0 -57 16.5 -110.5t49 -100t89 -74.5t128.5 -28q70 0 124.5 28t86 74.5t47.5 100t16 110.5q0 31 -3.5 60.5t-19.5 73t-43.5 74.5t-81 54t-126.5 23q-59 0 -105.5 -11.5t-75.5 -28t-50 -43.5t-30.5 -48.5t-15 -54t-6 -48t-0.5 -42.5 v-9z" />
<glyph unicode="9" horiz-adv-x="1544" d="M49 836q0 129 41.5 236.5t109.5 179.5t157.5 121.5t183.5 72t190 22.5q239 0 413 -94.5t262.5 -261.5t88.5 -389q0 -123 -27 -227.5t-77 -183t-119.5 -142t-154.5 -105t-182.5 -72.5t-203 -44t-217 -19t-223.5 2v293q89 -54 177 -89t174 -47t162 0t141 56.5t112 117.5 t73.5 188t26.5 264q0 158 -37.5 290t-98.5 216.5t-137 131t-155 46.5q-46 0 -90.5 -15t-91 -54.5t-81.5 -99.5t-57 -157.5t-22 -220.5q0 -101 21 -184t53.5 -135t73.5 -87.5t79.5 -50t73.5 -14.5q57 0 92.5 21.5t50.5 59.5t22 85t12.5 102.5t16.5 108t40 105.5t77 91 l99 -262q-46 -16 -83.5 -63.5t-66.5 -101t-65 -105.5t-97.5 -86.5t-146.5 -34.5q-125 0 -230 32.5t-186.5 96t-127.5 167.5t-46 239z" />
<glyph unicode=":" horiz-adv-x="442" d="M115 137q0 72 49 122t121 50t122 -50t50 -122t-50 -121t-122 -49t-121 49t-49 121zM115 770q0 72 49 122t121 50t122 -50t50 -122t-50 -121t-122 -49t-121 49t-49 121z" />
<glyph unicode=";" horiz-adv-x="548" d="M106 -223q55 54 79.5 110t21.5 105.5t-14 91t-25 86.5t-14 72h305q0 -164 -91 -293t-251 -189zM127 770q0 72 50 122t122 50t122 -50t50 -122t-50 -121t-122 -49t-122 49t-50 121z" />
<glyph unicode="&#x3c;" horiz-adv-x="776" d="M49 655v9l676 442v-68l-575 -381l575 -385v-67z" />
<glyph unicode="=" horiz-adv-x="851" d="M49 492v67h752v-67h-752zM49 698v68h752v-68h-752z" />
<glyph unicode="&#x3e;" horiz-adv-x="776" d="M49 205v67l578 385l-578 381v68l676 -442v-9z" />
<glyph unicode="?" horiz-adv-x="1220" d="M49 1165q0 93 83 165.5t209 108.5t269 36q108 0 206.5 -22t179 -65t128 -113.5t47.5 -160.5q0 -82 -34 -151.5t-88 -118t-119.5 -91t-130 -79t-118 -72t-85 -80t-29.5 -94.5h-67q-24 51 -25.5 92.5t21.5 90t54.5 89.5t73.5 88.5t80 88.5t73 90t52 92q28 56 34 115 t-12 110t-71.5 84t-136.5 33q-148 0 -237 -107t-89 -260q0 -28 5 -57.5t9.5 -45.5t15 -48.5t13.5 -42.5l-57 -21q-13 39 -44.5 70t-66 53.5t-67.5 49t-54.5 70t-21.5 103.5zM442 137q0 72 49.5 122t120.5 50q72 0 122 -50t50 -122t-50 -121t-122 -49q-71 0 -120.5 49 t-49.5 121z" />
<glyph unicode="@" horiz-adv-x="1980" d="M49 657q0 150 41.5 285.5t124 249t199.5 197t276 130t344 46.5q250 0 451.5 -82t317.5 -233t116 -343q0 -121 -45.5 -236t-125 -204t-197 -143t-251.5 -54q-106 0 -173.5 45.5t-67.5 126.5q0 30 8 54h-10q-63 -96 -136.5 -142.5t-146.5 -46.5q-94 0 -154.5 69.5 t-60.5 178.5q0 64 19 138.5t57.5 149t91 135t127 98.5t156.5 38q99 0 196.5 -29t134.5 -30q60 -7 125 12q-177 -442 -194 -637q-13 -104 53 -104q32 0 71.5 36t78 101.5t67.5 175t35 238.5q5 116 -22 216t-78.5 171.5t-122 123t-152.5 76.5t-170 25q-162 0 -299.5 -94.5 t-229.5 -275.5t-114 -419q-13 -150 26 -289.5t116.5 -241.5t191.5 -163t244 -61q83 0 175.5 28.5t177 69.5l169 82t179 69.5t179.5 28.5v-280q-79 22 -204.5 14t-226 -27t-225.5 -38t-202 -19q-149 0 -288 34t-257 101t-206.5 160t-138.5 219t-50 270zM823 622 q-4 -67 17.5 -112t66.5 -45q53 0 109.5 63t95.5 181l100 299q-6 2 -22.5 6.5t-26 7t-24 4.5t-27.5 2q-75 0 -147.5 -67.5t-112.5 -202.5q-25 -69 -29 -136z" />
<glyph unicode="A" d="M-59 0l557 1438h250l612 -1438h-346q0 22 1 96q0 37 0.5 66t-0.5 50q-1 42 -3 110.5t-9 135.5t-18 136h-498l-227 -594h-319zM512 664h463q-17 101 -49 180l-183 428z" />
<glyph unicode="B" horiz-adv-x="1325" d="M53 0v1438h703q110 0 195.5 -30.5t135.5 -82.5t75.5 -115t25.5 -133q0 -73 -27.5 -141.5t-82 -120t-124.5 -70.5v-10q156 -15 242 -108.5t86 -235.5q0 -69 -29 -136t-85 -125t-151 -94t-214 -36h-750zM389 68h221q79 0 144.5 28t106.5 74t63 103t22 118q0 139 -86 224 t-231 85h-240v-632zM389 770h201q93 0 161 46t99 114t31 147q0 119 -72 206t-201 87h-219v-600z" />
<glyph unicode="C" horiz-adv-x="1366" d="M43 733q0 182 61 324.5t168 231.5t246.5 135t302.5 46q76 0 159 -14t135.5 -27.5t111 -13.5t104.5 23v-402q-43 0 -79 20t-62 52.5t-50 71t-50 77.5t-56.5 71.5t-75 52.5t-98.5 20q-213 1 -350 -185q-133 -180 -133 -459v-16q2 -150 27.5 -271t65 -199.5t92.5 -131.5 t107 -75.5t111 -22.5q59 0 118.5 36t109 88.5t96 106.5t97.5 97.5t95 52.5l4 -371q-14 1 -27 1q-57 0 -111 -10q-68 -12 -115.5 -29.5t-122 -32.5t-154.5 -15q-109 0 -213.5 30.5t-198 94.5t-163.5 153.5t-111 216t-41 273.5z" />
<glyph unicode="D" horiz-adv-x="1382" d="M53 0v1438h641q145 0 262.5 -43t203.5 -127t132.5 -217t46.5 -306q0 -154 -40.5 -281.5t-106.5 -211.5t-152.5 -142.5t-176.5 -84t-181 -25.5h-629zM389 68h12q105 0 187 16q88 18 167.5 64t133 121t84.5 195t31 281q0 156 -30 268.5t-80.5 180.5t-131.5 108t-168 54 q-81 13 -189 12h-16v-1300z" />
<glyph unicode="E" horiz-adv-x="1245" d="M53 0v1438h336q106 0 288 -12.5t303.5 -12.5t193.5 25v-344h-11q-54 0 -109 27t-109 66t-116.5 79t-155 69.5t-200.5 32.5l-84 2v-526h260q37 0 60 1t61.5 8.5t64.5 21t53 41.5t42 67h20v-354h-20q-15 41 -42 70.5t-52.5 43.5t-65 21.5t-61.5 8.5t-60 1h-260v-706 q104 4 202.5 34t171.5 69t138.5 77.5t131.5 65t124 26.5q31 0 47 -2v-338q-113 39 -248 41h-24q-127 -1 -291 -19q-180 -20 -252 -22h-336z" />
<glyph unicode="F" horiz-adv-x="1167" d="M53 0v1438h336q130 0 288.5 -14.5t257 -14.5t191.5 29v-346h-10q-39 0 -91.5 27.5t-113.5 67t-133 79.5t-175 70t-214 34v-526h107q412 0 438 137h20v-350h-20q-6 38 -31.5 64.5t-61.5 41.5t-94.5 23.5t-114 11t-136.5 2.5h-107v-774h-336z" />
<glyph unicode="G" horiz-adv-x="1519" d="M43 719q0 356 190.5 553.5t548.5 197.5q89 0 194.5 -16t175.5 -30q68 -15 147 -15q2 0 5 1q82 0 148 28v-420h-5q-46 0 -90 20q-46 20 -83.5 54t-74.5 75t-76 82.5t-80.5 76t-94 56t-110.5 21.5q-106 0 -194 -58t-145 -155t-88.5 -220.5t-31.5 -256.5q0 -297 137 -473.5 t363 -176.5q108 0 256 46v348q0 189 -113 252v43h432v-711q-35 3 -70 3q-52 0 -104 -6q-88 -11 -152.5 -27.5t-163 -31t-198.5 -14.5q-102 0 -200.5 24t-194.5 81t-168 141.5t-116 215.5t-44 292z" />
<glyph unicode="H" horiz-adv-x="1368" d="M53 0v1438h336v-611h590v611h336v-1438h-336v766h-590v-766h-336z" />
<glyph unicode="I" horiz-adv-x="442" d="M53 0v1438h336v-1438h-336z" />
<glyph unicode="J" horiz-adv-x="1081" d="M-29 0v309h11q56 0 110.5 -29t99.5 -70.5t88.5 -83t94 -70.5t100.5 -29q102 0 155.5 96.5t53.5 251.5v1063h338v-998q0 -102 -32.5 -184.5t-86 -136t-125.5 -89t-147.5 -50.5t-155.5 -15q-66 0 -141 10t-124 19.5t-118 13.5q-17 1 -33 1q-48 0 -88 -9z" />
<glyph unicode="K" horiz-adv-x="1312" d="M53 0v1438h336v-914l453 484q44 47 67.5 110.5t27 116.5t12.5 111.5t26 91.5h352l-512 -539h162l424 -899h-336l-367 776l-309 -325v-451h-336z" />
<glyph unicode="L" horiz-adv-x="1114" d="M53 0v1438h336v-1370h103q89 0 167.5 28t133 68.5t102.5 81t96.5 68.5t93.5 28v-342h-1032z" />
<glyph unicode="M" horiz-adv-x="1691" d="M8 2q48 81 98 250.5t56 282.5l47 903h262l408 -1260l413 1260h238l141 -1438h-334l-104 1044l-344 -1044h-281l-348 1085l-31 -550q-1 -26 -1 -51q0 -255 110 -484z" />
<glyph unicode="N" horiz-adv-x="1325" d="M55 0q58 203 83.5 420.5t25.5 544.5v338l-82 135h344l760 -1219v217q0 506 -166 1002h344q-111 -331 -111 -938v-500h-272l-750 1190v-338q0 -378 168 -852h-344z" />
<glyph unicode="O" horiz-adv-x="1556" d="M43 711q0 107 27 212t86 204.5t143 175t208 121.5t271 46t271 -46t208 -121.5t143 -175t86 -204.5t27 -212q0 -121 -28.5 -230.5t-88.5 -203.5t-145.5 -163t-206.5 -108t-266 -39t-266 39t-206.5 108t-145.5 163t-88.5 203.5t-28.5 230.5zM379 711q0 -92 14 -184.5 t45 -181.5t76 -157.5t113.5 -110.5t150.5 -42q87 0 157.5 42t114.5 110t74 158.5t42 181t12 184.5q0 91 -12 182t-42 184.5t-74 164.5t-114.5 116t-157.5 45q-79 0 -142.5 -31t-106 -85.5t-73 -122t-47 -148t-23.5 -154.5t-7 -151z" />
<glyph unicode="P" horiz-adv-x="1220" d="M53 0v1438h611q258 0 400 -120.5t142 -320.5q0 -104 -38.5 -193.5t-103.5 -150t-149.5 -95t-175.5 -34.5q-100 0 -189.5 40.5t-152.5 119.5h-8v-684h-336zM389 758q98 -103 219 -103q132 0 208.5 97.5t76.5 232.5q0 72 -24 139t-70.5 123t-124 89.5t-174.5 33.5h-111 v-612z" />
<glyph unicode="Q" horiz-adv-x="1556" d="M43 711q0 107 27 212t86 204.5t143 175t208 121.5t271 46t271 -46t208 -121.5t143 -175t86 -204.5t27 -212q0 -135 -36.5 -256t-106.5 -219t-181.5 -165t-252.5 -89q41 -12 108.5 -42.5t126 -48.5t121.5 -18q92 0 185 37v-340q-47 -8 -97 -8q-84 0 -149.5 22.5t-107 58 t-74.5 78.5t-60 86.5t-54.5 79t-67 58t-89.5 22.5q-145 0 -266 39t-206.5 108t-145.5 163t-88.5 203.5t-28.5 230.5zM379 711q0 -92 14 -184.5t45 -181.5t76 -157.5t113.5 -110.5t150.5 -42q87 0 157.5 42t114.5 110t74 158.5t42 181t12 184.5q0 91 -12 182t-42 184.5 t-74 164.5t-114.5 116t-157.5 45q-79 0 -142.5 -31t-106 -85.5t-73 -122t-47 -148t-23.5 -154.5t-7 -151z" />
<glyph unicode="R" horiz-adv-x="1282" d="M53 0v1438h705q115 0 207.5 -35.5t148.5 -95.5t85.5 -133.5t29.5 -153.5q0 -99 -42.5 -185.5t-131.5 -145.5t-209 -66q4 -36 51 -89.5t111.5 -113.5t128.5 -125.5t110.5 -144t50.5 -150.5h-391q-4 53 -32.5 118.5t-67.5 127.5t-78 123t-69 123t-35 110h-236v-602h-336z M389 672h207q93 0 162.5 53t102 132.5t32.5 170.5q0 90 -32 165.5t-103 126t-170 50.5h-199v-698z" />
<glyph unicode="S" horiz-adv-x="1230" d="M29 1153q4 77 56.5 139t135 100t179.5 58t196 20q77 0 150 -12t119.5 -25t92.5 -23q28 -6 54 -5q18 0 34 2q42 6 87 31v-346h-11q-46 0 -93.5 33.5t-92 81t-92.5 94.5t-112 80.5t-134 33.5q-42 0 -80 -8t-74 -25t-57.5 -49.5t-21.5 -77.5q0 -54 45.5 -106.5t118.5 -99.5 t161.5 -96t177.5 -105t162.5 -117t120.5 -141.5t49 -169.5v-6q0 -128 -87 -232q-89 -106 -224 -161.5t-281 -55.5q-85 0 -184.5 15.5t-163.5 29.5q-61 14 -119 15q-3 -1 -5 -1q-60 0 -93 -26v346h10q56 0 111 -33.5t103 -81.5t97.5 -96t113 -81.5t130.5 -33.5q148 0 222 80 q63 68 63 157q0 17 -2 34q-9 71 -63 136.5t-132.5 117t-171 102.5t-182 104t-162.5 111q-72 56 -114 132q-38 67 -38 143q0 9 1 18z" />
<glyph unicode="T" horiz-adv-x="1157" d="M-98 1141l8 297h1307l8 -297h-27q-32 0 -65.5 23.5t-64.5 57.5t-65 67.5t-79.5 57t-94.5 23.5h-98v-1370h-336v1370h-98q-44 0 -81.5 -12.5t-63.5 -33t-48 -44.5t-41.5 -48.5t-38.5 -45t-43.5 -33t-52.5 -12.5h-26z" />
<glyph unicode="U" horiz-adv-x="1384" d="M53 604v834h338v-1065q0 -164 80.5 -250t218.5 -86q137 0 215 86t78 250v1065h336v-834q0 -156 -47 -278t-132 -199.5t-199 -117.5t-251 -40q-138 0 -253.5 40t-201.5 117.5t-134 200t-48 277.5z" />
<glyph unicode="V" horiz-adv-x="1120" d="M-100 1438h336l462 -1317l160 463q46 133 58 281q7 80 6 147q0 56 -4 101q-10 100 -25.5 200t-15.5 125h344l-205 -600l-289 -838h-326z" />
<glyph unicode="W" horiz-adv-x="1816" d="M-156 1438h338l463 -1319l219 637l-237 682h336l462 -1317l160 463q47 133 59 281q7 79 6 144q0 57 -5 104q-11 100 -26 200t-15 125h344l-205 -600l-289 -838h-326l-229 655l-225 -655h-326z" />
<glyph unicode="X" horiz-adv-x="1169" d="M-152 0l594 670l-544 768h335l447 -625l98 109q53 59 90.5 117.5t56.5 101t30 92t13 76.5t3 70.5t2 58.5h348l-610 -670l546 -768h-335l-447 625l-104 -115q-30 -34 -55 -72.5t-42 -69.5t-30 -74t-20 -67t-13 -67.5t-7 -58t-4 -56.5t-3 -45h-349z" />
<glyph unicode="Y" horiz-adv-x="976" d="M-164 1438h336l426 -742l113 191q45 77 61 165q13 66 13 117q0 17 -1 32q-6 61 -16 135t-10 102h338l-465 -803v-635h-336v635z" />
<glyph unicode="Z" horiz-adv-x="1433" d="M2 0l981 1370h-74q-120 0 -231 -28t-193.5 -68.5t-156.5 -81t-151 -68.5t-148 -28v342q96 -34 222 -42q51 -3 98 -4q69 0 131 7q102 11 234.5 25t211.5 14h463l-973 -1370h106q120 0 231 28t193 67.5t156.5 79t152.5 67.5t150 28v-338q-96 33 -220 40q-50 3 -95 3 q-68 -1 -128 -7q-100 -10 -230.5 -23t-209.5 -13h-520z" />
<glyph unicode="[" horiz-adv-x="673" d="M49 -289v1866h576v-66h-238v-1734h238v-66h-576z" />
<glyph unicode="\" horiz-adv-x="702" d="M49 1577h72l532 -1868h-71z" />
<glyph unicode="]" horiz-adv-x="673" d="M49 -223h238v1734h-238v66h576v-1866h-576v66z" />
<glyph unicode="^" horiz-adv-x="1001" d="M49 707l451 675h8l442 -675h-67l-379 577l-385 -577h-70z" />
<glyph unicode="_" horiz-adv-x="878" d="M49 -6h778v-68h-778v68z" />
<glyph unicode="a" horiz-adv-x="1267" d="M53 311q0 39 8.5 75t20 66t35 61t43 53.5t54.5 50.5t58.5 45t66.5 43.5t67 40t71 40.5q65 38 92.5 54t81.5 51.5t82.5 60.5t61.5 61.5t53 73.5q-40 76 -119 76q-54 0 -107 -33.5t-98 -80.5t-90 -94.5t-99 -81t-108 -33.5v336q54 -13 101 -13q68 0 212 27t226 27 q66 0 125 -9.5t120 -36t104.5 -67.5t71 -110t27.5 -158v-836h-335v141q-69 -84 -169 -130t-204 -46q-117 0 -218.5 39t-168 119.5t-66.5 187.5zM389 367q0 -139 67 -217t167 -78q68 0 135.5 37.5t120.5 107.5v711q0 41 -11 98q-31 -52 -74.5 -102t-76.5 -80t-86 -74 q-43 -36 -64 -55t-55 -53t-51.5 -61t-36.5 -64.5t-27 -79.5t-8 -90z" />
<glyph unicode="b" horiz-adv-x="1339" d="M84 0v1438h336v-586h6q83 186 186 276.5t232 90.5q89 0 171.5 -41.5t146.5 -115.5t102.5 -187t38.5 -246q0 -194 -61.5 -341.5t-189 -235t-307.5 -87.5q-57 0 -121 17.5t-112.5 39t-110 39t-114.5 17.5q-51 0 -91 -17.5t-87 -60.5h-25zM420 139q153 -90 256 -90 q146 0 218.5 149t72.5 431q0 228 -59.5 339t-164.5 111q-84 0 -168 -99t-155 -288v-553z" />
<glyph unicode="c" horiz-adv-x="1138" d="M37 616q0 134 32.5 239t86 171t128.5 109.5t153.5 61t166.5 17.5q61 0 128 -14t112.5 -28.5t115.5 -21.5q23 -2 46 -2q46 0 90 9v-332h-39q-43 0 -76 24t-52 59.5t-43.5 77.5t-49 77.5t-68.5 59.5t-102 24q-77 0 -142 -70q-66 -69 -104 -195q-37 -119 -37 -263v-15 q1 -153 39 -282t110 -209t164 -80q50 0 93.5 24t72 60t58.5 78.5t54 78.5t58 60t72 24v-331q-23 12 -57 12q-15 -1 -31 -3q-56 -8 -99.5 -23t-113 -30.5t-131.5 -15.5q-129 0 -245 48.5t-202 132.5t-137 206t-51 262z" />
<glyph unicode="d" horiz-adv-x="1323" d="M37 569q0 156 44.5 281t122.5 204.5t180.5 122t221.5 42.5q146 0 303 -66v285h338v-1438l-336 4v315h-6q-58 -174 -166.5 -263t-238.5 -89q-87 0 -169.5 41.5t-148.5 116.5t-105.5 191t-39.5 253zM375 588q0 -201 74 -310.5t180 -109.5q96 0 175.5 89.5t106.5 248.5 l-2 577q-85 45 -178 45q-72 0 -134 -30.5t-112.5 -92t-80 -169t-29.5 -248.5z" />
<glyph unicode="e" d="M37 629q0 120 35.5 217.5t99 166t153.5 115t196.5 68t230.5 21.5q248 0 388 -97t140 -233q0 -81 -35 -146t-88.5 -104.5t-124.5 -66.5t-136.5 -38t-131.5 -12q-131 -2 -195 -25t-104 -102l-31 103q17 53 65 65.5t174 13.5h11h10h11q239 3 239 312q0 121 -54.5 190.5 t-158.5 69.5q-68 0 -131.5 -37t-114 -103t-80.5 -167.5t-30 -221.5q0 -108 28.5 -204.5t74.5 -164t103 -117t115 -73.5t109 -24q47 0 86.5 18.5t68.5 47.5t55 64.5t52.5 71t55.5 64.5t68.5 47.5t86.5 18.5v-336q-56 21 -110 21h-3q-51 0 -101 -14t-100.5 -29.5t-121 -29.5 t-142.5 -14q-100 0 -194.5 25t-180 78.5t-149.5 130.5t-101.5 187.5t-37.5 242.5z" />
<glyph unicode="f" horiz-adv-x="669" d="M-33 1116v68h197q-74 67 -114 145q-38 75 -38 143v6q2 70 32 128t96 92.5t155 34.5q51 0 105 -11.5t92.5 -23t79.5 -17.5q15 -2 29 -2q28 0 58 7q45 12 93 45h24v-345h-22h-7q-46 0 -91 26q-49 29 -90 70t-82 82.5t-92 71t-105 29.5q-83 0 -83 -75q0 -88 99 -219 q85 -113 195 -187h241v-68h-237v-1116h-338v1116h-197z" />
<glyph unicode="g" horiz-adv-x="1351" d="M37 688q0 167 80 288t211 179.5t297 58.5q123 0 237 -32h4q38 0 72 20q36 22 62 55t48 78.5t36 88t24 87.5l215 -165q-44 -73 -135.5 -131t-218.5 -58q166 -56 256 -173.5t90 -287.5q0 -247 -161.5 -376.5t-467.5 -129.5q-84 0 -154 11q-40 -9 -63 -31t-23 -47 q0 -36 35 -61.5t117 -37.5q32 -5 71 -5q63 0 146 12q81 12 147 12q25 0 48 -1q83 -7 140 -25t92 -50.5t50 -67.5t15 -75q0 -69 -41 -125t-105 -91.5t-147 -59.5t-163 -34t-157 -10q-55 0 -128 12.5t-137 26.5t-130 25q-48 8 -95 8q-18 0 -34 -1q-64 -4 -115 -28h-10v342h10 q46 0 96 -23.5t93 -58.5t97 -76.5t105 -76.5t118.5 -58.5t137.5 -23.5q113 0 184.5 63t71.5 146q0 90 -90 135q-80 41 -205 41h-28q-30 -1 -59 -1q-38 0 -75 2q-64 4 -129 16t-104 41t-39 71q0 55 56 92t137 43q-185 46 -285 166t-100 301zM362 819.5q0 -87.5 23 -176.5 q39 -177 145.5 -285t231.5 -108q62 0 109.5 28.5t74 76.5t38.5 111q9 47 9 98q0 17 -1 34q-4 69 -21 139q-39 182 -148.5 295t-234.5 113q-77 0 -130 -45.5t-74.5 -119t-21.5 -161z" />
<glyph unicode="h" horiz-adv-x="1396" d="M84 0v1438h336v-549q65 79 147.5 145t170.5 112q88 44 175 58q35 5 67 6q49 0 92 -12q72 -20 124.5 -93t69.5 -192l131 -913h-336l-121 846q-12 83 -44 132q-30 49 -74 60q-21 5 -44 5q-25 0 -52 -6q-52 -12 -106 -47t-105 -82t-95 -103v-805h-336z" />
<glyph unicode="i" horiz-adv-x="503" d="M84 1540q0 72 50 122t122 50t122 -50t50 -122t-50 -122t-122 -50t-122 50t-50 122zM88 0v1184h336v-1184h-336z" />
<glyph unicode="j" horiz-adv-x="530" d="M-547 -162q17 1 34 1q47 0 89 -8q59 -11 103.5 -29t86 -37t91 -32.5t100.5 -13.5q54 0 85.5 19.5t50 76.5t18.5 160v1209h335v-1141q0 -225 -121 -320q-97 -76 -254 -76q-39 0 -83 5q-67 8 -130 8q-206 0 -380 -80h-25v258zM102 1540q0 73 51.5 124.5t125.5 51.5 q73 0 124.5 -51t51.5 -125t-51.5 -125t-124.5 -51q-74 0 -125.5 51.5t-51.5 124.5z" />
<glyph unicode="k" horiz-adv-x="1189" d="M84 0v1438h336v-781l172 146q31 26 55.5 51t41.5 49.5t30 44t20.5 44.5t12.5 39.5t6.5 41t2 36.5t0 38.5t-0.5 36.5h358l-448 -383h221l301 -801h-340l-272 723l-160 -135v-588h-336z" />
<glyph unicode="l" horiz-adv-x="495" d="M84 0v1438h336v-1438h-336z" />
<glyph unicode="m" horiz-adv-x="2189" d="M84 0v1184h336v-355q106 186 260.5 289t300.5 103q139 0 223 -91t84 -266q105 170 254 263.5t289 93.5q135 0 220 -85t85 -243v-893h-336v913q0 82 -35.5 123t-95.5 41q-90 0 -198.5 -88t-182.5 -233v-756h-336v895q0 87 -35.5 130.5t-95.5 43.5q-91 0 -205 -95 t-196 -251v-723h-336z" />
<glyph unicode="n" horiz-adv-x="1419" d="M84 0v1184h336v-289q93 135 244.5 224t291.5 89q118 0 201.5 -72.5t108.5 -222.5l153 -913h-336l-135 807q-40 237 -184 237q-82 0 -177.5 -73.5t-166.5 -173.5v-797h-336z" />
<glyph unicode="o" horiz-adv-x="1351" d="M37 575q0 309 166.5 475.5t472.5 166.5q305 0 471 -161t166 -460q0 -310 -164 -470.5t-473 -160.5q-308 0 -473.5 156t-165.5 454zM352 756q0 -117 29.5 -243t80 -233t127.5 -176t163 -69q82 0 139.5 55t83.5 141t26 193q0 116 -30 242t-82 233.5t-130 177.5t-165 70 q-82 0 -138 -55.5t-80 -141t-24 -194.5z" />
<glyph unicode="p" horiz-adv-x="1339" d="M84 -346v1530h336v-215q89 122 202.5 183.5t231.5 61.5q90 0 170.5 -37.5t143 -106t99 -174t36.5 -232.5q-1 -155 -52 -288t-134 -221t-189.5 -138t-220.5 -50q-156 0 -287 92v-405h-336zM420 164q107 -70 207 -70q145 0 241.5 132.5t96.5 351.5q0 234 -70 353.5 t-182 119.5q-71 0 -147 -50t-146 -149v-688z" />
<glyph unicode="q" horiz-adv-x="1349" d="M37 596q0 132 28 238t75 176.5t112 118t135 68t148 20.5q58 0 132 -20t134 -43.5t133 -43.5t129 -20q125 0 199 94h10l-2 -1530h-338v522q-92 -97 -206 -154t-226 -57q-132 0 -237.5 79.5t-165.5 224t-60 327.5zM375 596q0 -249 77 -375.5t199 -126.5q68 0 142 41.5 t139 118.5v778q-22 5 -108 35.5t-136 30.5q-64 0 -116.5 -24t-98.5 -78.5t-72 -156.5t-26 -243z" />
<glyph unicode="r" horiz-adv-x="1116" d="M84 0v1184h336v-365q53 186 156 292t251 106q59 0 139 -16.5t142 -16.5v-336q-42 0 -84 20.5t-77.5 49.5t-71.5 58.5t-79 50.5t-87 22q-50 0 -94 -27.5t-74 -68.5t-55.5 -98t-40 -105.5t-25.5 -102.5v-647h-336z" />
<glyph unicode="s" horiz-adv-x="1153" d="M39 0v340q68 0 138.5 -32.5t130.5 -78.5t120 -92.5t128.5 -79t133.5 -32.5q85 0 146 52.5t61 125.5q0 54 -47 100t-122 81t-166 70t-182 76.5t-166 91t-122 122t-47 161.5q0 68 24.5 121t68.5 86t93 55t109 32t105 14t92 4q102 0 253 -28t207 -28q58 0 113 19v-336h-18 q-35 0 -66.5 17.5t-57.5 45.5t-54.5 62.5t-65 68.5t-79.5 62t-107 45.5t-140 17.5q-34 0 -68.5 -5t-74.5 -18t-65 -42t-25 -70q0 -50 47 -94t121.5 -79.5t165 -72t181 -80t165 -94.5t121.5 -124t47 -160q0 -173 -116 -266t-312 -93q-107 0 -255 35t-214 35q-105 0 -201 -35z " />
<glyph unicode="t" horiz-adv-x="950" d="M-8 1143v41q77 0 144.5 27.5t115 72.5t82.5 101.5t52.5 114.5t19.5 112h43l2 -428h286v-68h-286v-868q0 -219 122 -219q34 0 64 25t51 62.5t47.5 81.5t52.5 81.5t68 62.5t92 25v-340q-35 11 -73 11q-18 0 -37 -2q-59 -8 -99.5 -24t-106 -31.5t-128.5 -15.5 q-188 0 -288.5 91.5t-100.5 256.5v709q0 54 -29 80.5t-94 40.5z" />
<glyph unicode="u" horiz-adv-x="1284" d="M68 346v838h338v-885q0 -260 202 -260q93 0 185 37q71 30 86 30h2v1078h338v-1184h-66q-64 86 -141 86q-56 0 -162 -47q-63 -24 -96 -35.5t-98 -25t-126 -13.5q-93 0 -175.5 24t-147 70t-102 120t-37.5 167z" />
<glyph unicode="v" horiz-adv-x="1116" d="M-61 1184h335l394 -1022l196 510l-67 512h338l-457 -1184h-285z" />
<glyph unicode="w" horiz-adv-x="1888" d="M-61 1184h333l353 -903l184 479q45 126 45 232v21q-5 114 -57 173h323l357 -920l186 482q29 76 42 163q10 65 10 121q1 20 -1 38q-4 72 -24 114h217l-459 -1184h-205l-325 856l-332 -856h-191z" />
<glyph unicode="x" horiz-adv-x="1204" d="M-94 0l563 557l-504 627h369l387 -488l72 72q59 60 100 110.5t62 82t32.5 68.5t13.5 52t2 52.5t1 50.5h284l-536 -531l518 -653h-352l-416 516l-103 -100q-45 -46 -79 -85.5t-57 -68t-38 -58.5t-23 -47t-11.5 -42.5t-4 -37t0.5 -38.5t1 -39h-282z" />
<glyph unicode="y" horiz-adv-x="1064" d="M-139 -94q58 0 111 -24t95.5 -61t83 -75.5t90.5 -73t101 -47.5q23 -5 44 -5q26 0 50 8q43 13 70.5 52.5t35.5 99.5q3 18 3 39q0 48 -13 109q-19 89 -67 193l-485 1063h337l420 -926l86 240q46 126 50 264q1 21 1 41q0 113 -20 198q-23 100 -61 183h342l-363 -1022 q26 -90 26 -171q0 -44 -8 -85q-22 -115 -85.5 -195.5t-156.5 -122.5q-76 -34 -157 -34q-17 0 -35 2q-35 3 -87 15.5t-99 24t-100 20.5q-39 7 -79 7q-14 0 -27 -1q-55 -3 -103 -21v305z" />
<glyph unicode="z" horiz-adv-x="1185" d="M14 0l795 1114h-115q-78 0 -149.5 -28t-127 -68t-109 -80t-116 -68t-126.5 -28v342q82 -30 176 -36q36 -2 69 -2q53 0 97 6q72 10 176 21t180 11h430l-791 -1110h146q86 2 159.5 22.5t120.5 50.5t93 64t81.5 63t83 48.5t99.5 19.5v-342q-80 28 -170 34q-44 3 -81 4 q-41 0 -77 -4q-68 -7 -171 -19t-171 -15h-502z" />
<glyph unicode="{" horiz-adv-x="829" d="M49 664q40 20 54 67t14 131q0 703 663 703v-68q-29 0 -64 -8t-83 -27.5t-91 -59t-80.5 -95t-60 -144.5t-22.5 -198q0 -252 -72 -301q72 -49 72 -285q0 -130 33 -232.5t79.5 -160t105.5 -95t103.5 -49.5t79.5 -12v-68q-663 0 -663 703q0 84 -14 131.5t-54 67.5z" />
<glyph unicode="|" horiz-adv-x="167" d="M49 -135v1710h70v-1710h-70z" />
<glyph unicode="}" horiz-adv-x="829" d="M49 -170q35 0 80 12t103.5 49.5t105.5 95t80 160t33 232.5q0 122 16.5 190.5t54.5 94.5q-71 49 -71 301q0 94 -17.5 173.5t-45 133t-65 95.5t-75 65.5t-77.5 39t-69 20.5t-53 5v68q664 0 664 -703q0 -85 13.5 -131.5t53.5 -66.5q-40 -20 -53.5 -67t-13.5 -132 q0 -703 -664 -703v68z" />
<glyph unicode="~" horiz-adv-x="1134" d="M49 498q0 158 76 278.5t184 120.5q44 0 107.5 -27.5t128.5 -66.5t129.5 -78t128 -66.5t106.5 -27.5q107 0 107 174h67q0 -73 -12 -140.5t-38 -132t-77 -101t-120 -32.5q-71 5 -165.5 48.5t-169 92.5t-154.5 89.5t-128 40.5q-100 0 -100 -172h-70z" />
<glyph unicode="&#xa1;" horiz-adv-x="442" d="M49 1137q0 72 50 121t122 49q71 0 120.5 -49t49.5 -121t-49.5 -121t-120.5 -49q-72 0 -122 49t-50 121zM53 -8q0 83 21 184t45.5 185t45.5 214t21 265h68q0 -135 21 -265t46.5 -214t46.5 -185t21 -184q0 -88 -50 -137.5t-118 -49.5t-118 49.5t-50 137.5z" />
<glyph unicode="&#xa2;" horiz-adv-x="1220" d="M49 616q0 133 36 238.5t94.5 171.5t139 109.5t163 61t173.5 17.5q41 0 76 -6l64 265h67l-67 -277q21 -5 55 -16t57 -16.5t55 -11t68.5 -4.5t77.5 9v-332h-39q-43 0 -75.5 23.5t-54.5 61t-42 77t-50.5 78.5t-68.5 59l-227 -946q100 -106 229 -106q201 0 344 254l45 -23 q-73 -166 -204 -251t-281 -85q-88 0 -178 23l-66 -271h-67l69 289q-183 68 -288 229t-105 379zM387 614q6 -215 111 -372l217 903q-10 2 -37 2q-37 0 -75 -13.5t-79.5 -50.5t-72 -94t-49 -154t-15.5 -221z" />
<glyph unicode="&#xa3;" horiz-adv-x="1310" d="M49 575v68h148v145q0 126 81 247t208 208.5t287 141t314 53.5v-336q-15 7 -50 23q-54 25 -85 39t-91 35.5t-97.5 27t-85.5 3t-75.5 -24.5t-46.5 -68.5t-19 -116.5v-377h241v-68h-241v-296q0 -139 -64 -211h225q90 0 165.5 27.5t126 67t93.5 79t88.5 67t90.5 27.5v-336 h-1149q49 74 66.5 141.5t17.5 167.5v266h-148z" />
<glyph unicode="&#xa4;" horiz-adv-x="950" d="M49 252l113 127q-107 116 -107 276q0 159 105 277l-111 125l35 30l109 -122q123 102 276 102q162 0 281 -109l114 129l35 -30l-117 -131q99 -117 99 -271q0 -149 -99 -272l117 -131l-35 -31l-114 129q-121 -108 -281 -108q-157 0 -274 104l-111 -125zM137 655 q0 -136 98.5 -233.5t233.5 -97.5q137 0 235.5 97.5t98.5 233.5t-98.5 234t-235.5 98q-135 0 -233.5 -98t-98.5 -234z" />
<glyph unicode="&#xa5;" horiz-adv-x="1359" d="M49 1438h338l426 -742l113 191q45 77 61.5 165t11 149t-15.5 135t-10 102h338l-453 -781h205v-65h-217v-139h217v-66h-217v-387h-338v387h-197v66h197v139h-197v65h185z" />
<glyph unicode="&#xa6;" horiz-adv-x="167" d="M49 -127v700h70v-700h-70zM49 872v703h70v-703h-70z" />
<glyph unicode="&#xa7;" horiz-adv-x="1196" d="M49 39q55 29 113.5 26t104.5 -23t99.5 -54t98.5 -66t101.5 -59t107.5 -33q96 -12 164.5 44t68.5 138q0 55 -47 100.5t-122 77.5t-166 61.5t-182 61.5t-166 68t-122 90.5t-47 120.5q0 207 213 287q-213 92 -213 274q0 60 19.5 108.5t50 81t75 56.5t87.5 37.5t94 21.5 t88.5 10t77.5 2q82 0 174.5 -13t148 -25t130 -15.5t120.5 15.5v-338h-18q-33 0 -62 18t-54 46.5t-52 63t-63 69.5t-80.5 63.5t-111 46.5t-147.5 18q-34 0 -68.5 -5t-74.5 -18t-65 -42t-25 -70q0 -50 47 -87.5t121.5 -62t165 -47t181 -52.5t165 -69t121.5 -104.5t47 -152.5 q0 -107 -44 -185t-126 -121q170 -97 170 -264q1 -194 -133 -289.5t-363 -76.5q-46 2 -105 15t-110.5 25.5t-111 21t-130.5 1.5t-145 -33v236zM299 727q0 -43 31.5 -76.5t92 -57.5t122 -42t151 -42.5t148.5 -45.5q63 53 63 123q0 38 -23 68t-58 49.5t-92 38.5t-107.5 31 t-122.5 30t-121 33q-84 -36 -84 -109z" />
<glyph unicode="&#xa9;" horiz-adv-x="1566" d="M49 719q0 203 93 371.5t262 268t378 99.5q157 0 294.5 -58.5t233.5 -158t151 -235.5t55 -287t-55 -287t-151 -235.5t-233.5 -158t-294.5 -58.5q-209 0 -378 99.5t-262 268t-93 371.5zM119 719q0 -138 49.5 -262t136 -214t210.5 -143t267 -53q191 0 344.5 90t237.5 243.5 t84 338.5t-84 338.5t-237.5 243.5t-344.5 90q-143 0 -267 -53t-210.5 -143t-136 -214t-49.5 -262zM430 735q0 86 23.5 154t61 110.5t90 70.5t106 39t112.5 11q47 0 99.5 -15t84 -23t107.5 3v-215h-27q-33 0 -56 21t-38.5 51t-32.5 60.5t-48.5 51.5t-75.5 21q-25 0 -49 -8 t-51.5 -31.5t-47 -60t-31.5 -99.5t-10 -143q6 -153 81 -250.5t175 -97.5q131 0 219 162l31 -15q-48 -106 -131 -160.5t-180 -54.5q-183 0 -297.5 116.5t-114.5 301.5z" />
<glyph unicode="&#xaa;" horiz-adv-x="700" d="M27 961q0 38 15 73t33.5 58.5t56 51t62.5 42.5t72 41q63 37 88 53t63.5 49.5t55.5 67.5q-19 43 -65 43q-31 0 -61 -19t-55 -46t-50 -53.5t-55 -45.5t-60 -19v189q27 -6 55 -6q39 0 119.5 15t126.5 15q37 0 70.5 -5.5t67.5 -20.5t58.5 -38t40 -62t15.5 -89v-469h-188v80 q-39 -47 -95.5 -73.5t-113.5 -26.5q-103 0 -179.5 53t-76.5 142zM217 993q0 -80 37 -123t94 -43q82 0 144 80v400q0 27 -7 55q-40 -66 -133 -143q-35 -30 -53 -47t-40.5 -46t-32 -61t-9.5 -72z" />
<glyph unicode="&#xab;" horiz-adv-x="1153" d="M49 655v9l676 442v-68l-575 -381l575 -385v-67zM426 655v9l676 442v-68l-576 -381l576 -385v-67z" />
<glyph unicode="&#xad;" horiz-adv-x="550" d="M49 586v69h451v-69h-451z" />
<glyph unicode="&#xae;" horiz-adv-x="1032" d="M49 991q0 196 132.5 331.5t332.5 135.5q133 0 240.5 -63t167 -169.5t59.5 -234.5q0 -195 -133 -330t-334 -135q-200 0 -332.5 135.5t-132.5 329.5zM117 991q0 -163 114.5 -280t282.5 -117q170 -1 286.5 116.5t114.5 280.5q0 165 -115.5 282.5t-285.5 117.5 q-168 0 -282.5 -117.5t-114.5 -282.5zM334 766v479h231q74 0 115 -41t41 -98q0 -50 -34 -88.5t-93 -42.5q2 -14 25 -39t49.5 -49t49.5 -57.5t25 -63.5h-127q-2 35 -46 105t-48 96h-80v-201h-108zM442 989h70q47 0 73.5 36t26.5 85q0 46 -26.5 79.5t-75.5 33.5h-68v-234z" />
<glyph unicode="&#xb0;" horiz-adv-x="608" d="M49 1229q0 117 75.5 182.5t178.5 65.5t178.5 -65.5t75.5 -182.5q0 -118 -75.5 -184t-178.5 -66t-178.5 66t-75.5 184zM117 1229q0 -88 55 -136.5t129 -48.5q78 0 134.5 49t56.5 136t-56 134.5t-133 47.5q-75 0 -130.5 -47.5t-55.5 -134.5z" />
<glyph unicode="&#xb1;" horiz-adv-x="851" d="M49 92v68h752v-68h-752zM49 600v68h344v342h68v-342h340v-68h-340v-342h-68v342h-344z" />
<glyph unicode="&#xb2;" horiz-adv-x="727" d="M49 717v55q0 80 33.5 144.5t87 105.5t118 72.5t129 53t118 41t87 42.5t33.5 51q0 23 -12 38t-35 21t-51.5 7.5t-65.5 -3t-72 -11.5t-77 -17q-39 -8 -128.5 -36t-127.5 -28v174q66 -14 188 2.5t179 16.5q115 0 169 -55t54 -129q0 -62 -32 -113.5t-83.5 -86.5t-114 -64.5 t-125 -54t-114 -49t-83.5 -56t-32 -68.5v-18h111q68 0 141.5 21.5t125 47t106 46.5t88.5 20v-168q-31 14 -93.5 16.5t-121 -2t-134 -10t-112.5 -6.5h-154z" />
<glyph unicode="&#xb3;" horiz-adv-x="690" d="M49 719v168q30 0 62.5 -15.5t61.5 -38t59.5 -45t68.5 -38t76 -15.5q61 0 97 34t36 85q0 66 -62 133t-182 109l203 200h-373v142h504v-58l-178 -184q111 -35 165 -99t54 -139q0 -98 -84 -175.5t-205 -77.5q-41 0 -91.5 7t-84.5 13.5t-69 6t-58 -12.5z" />
<glyph unicode="&#xb6;" horiz-adv-x="1175" d="M49 1008q0 84 26.5 160.5t76.5 137.5t131 97.5t182 36.5h661v-84h-94v-1540h-135v1540h-80v-1540h-133v733q-161 0 -286.5 39.5t-199.5 105.5t-111.5 146t-37.5 168z" />
<glyph unicode="&#xb7;" horiz-adv-x="442" d="M115 528q0 72 49 122t121 50t122 -50t50 -122q0 -71 -50 -120.5t-122 -49.5t-121 49.5t-49 120.5z" />
<glyph unicode="&#xb9;" horiz-adv-x="358" d="M45 1290v41l172 105h86v-719h-168v631z" />
<glyph unicode="&#xba;" horiz-adv-x="753" d="M20 1112q0 173 95 267t266 94q172 0 265 -91t93 -260q0 -176 -92 -266t-266 -90q-173 0 -267 89t-94 257zM199 1212q0 -90 27 -182t80.5 -157.5t117.5 -65.5q68 0 103.5 62t35.5 157q0 88 -28 180t-82 159t-119 67q-67 0 -101 -62.5t-34 -157.5z" />
<glyph unicode="&#xbb;" horiz-adv-x="1153" d="M49 205v67l578 385l-578 381v68l676 -442v-9zM426 205v67l578 385l-578 381v68l676 -442v-9z" />
<glyph unicode="&#xbc;" horiz-adv-x="1304" d="M45 1290v41l172 105h86v-719h-168v631zM90 0l848 1438h70l-848 -1438h-70zM664 14v168q30 0 62 -15.5t61 -37.5t59 -44.5t68 -38t77 -15.5q60 0 95.5 34t35.5 85q0 66 -61 133t-182 108l204 201h-374v141h505v-57l-178 -184q109 -35 163 -99.5t54 -138.5 q0 -99 -83.5 -176.5t-204.5 -77.5q-41 0 -91.5 7t-83.5 13.5t-68 6t-58 -12.5z" />
<glyph unicode="&#xbd;" horiz-adv-x="1351" d="M45 1290v41l172 105h86v-719h-168v631zM90 0l848 1438h70l-848 -1438h-70zM676 2v55q0 80 33.5 144.5t86.5 105.5t117.5 72.5t129 53t117.5 41t86.5 42.5t33.5 51q0 23 -12 38t-35 21t-51 7.5t-65 -3.5t-72 -11.5t-78 -16.5q-38 -8 -128 -35.5t-128 -27.5v174 q75 -10 114 -6t116.5 14t137.5 10q114 0 169 -55.5t55 -128.5q0 -62 -32.5 -113.5t-84 -86.5t-114 -64.5t-125 -54t-114 -49t-84 -56t-32.5 -68.5v-18h110q68 0 142 21.5t125.5 47t105.5 46.5t88 20v-168q-31 14 -93 16.5t-120.5 -2t-134.5 -10t-113 -6.5h-151z" />
<glyph unicode="&#xbe;" horiz-adv-x="1411" d="M49 719v168q30 0 62.5 -15.5t61.5 -38t59.5 -45t68.5 -38t76 -15.5q61 0 97 34t36 85q0 66 -62 133t-182 109l203 200h-373v142h504v-58l-178 -184q111 -35 165 -99t54 -139q0 -98 -84 -175.5t-205 -77.5q-41 0 -91.5 7t-84.5 13.5t-69 6t-58 -12.5zM362 0l848 1438h68 l-848 -1438h-68zM737 190v68l469 461h82v-455h72v-74h-72v-190h-168v190h-383zM784 264h336v330z" />
<glyph unicode="&#xbf;" horiz-adv-x="1220" d="M49 123q0 82 34 151.5t88.5 118t119.5 91t130 79t118 72t85 80t29 94.5h70q22 -40 24.5 -81.5t-11.5 -79t-40 -78.5t-58.5 -77.5t-69.5 -77.5t-70 -77.5t-62 -79t-45 -80.5q-28 -56 -33.5 -115t12.5 -110t71.5 -84t136.5 -33q100 0 175.5 51.5t113.5 134t38 181.5 q0 28 -5 57t-10.5 46.5t-15.5 47.5t-14 43l58 21q13 -39 44 -70t65.5 -53.5t67.5 -49t54.5 -70t21.5 -103.5q0 -93 -83 -165.5t-209 -108.5t-269 -36q-108 0 -206.5 22t-179 65t-128 113.5t-47.5 160.5zM436 1100q0 72 50 121t122 49t121 -49t49 -121t-49 -122t-121 -50 t-122 50t-50 122z" />
<glyph unicode="&#xc0;" d="M-59 0l557 1438h250l612 -1438h-346q0 23 1 96.5t0 115.5t-3 110.5t-9 135.5t-18 136h-498l-227 -594h-319zM385 1991h268q2 -46 38 -96.5t81 -89.5t96 -91.5t74 -95.5l-53 -29q-28 39 -91.5 73t-131.5 61t-133 60t-106.5 85.5t-41.5 122.5zM512 664h463q-17 101 -49 180 l-183 428z" />
<glyph unicode="&#xc1;" d="M-59 0l557 1438h250l612 -1438h-346q0 23 1 96.5t0 115.5t-3 110.5t-9 135.5t-18 136h-498l-227 -594h-319zM279 1618q23 43 74 95.5t95.5 91.5t80.5 89.5t38 96.5h269q0 -70 -41.5 -122.5t-106.5 -85.5t-133 -60t-131.5 -61t-91.5 -73zM512 664h463q-17 101 -49 180 l-183 428z" />
<glyph unicode="&#xc2;" d="M-59 0l557 1438h250l612 -1438h-346q0 23 1 96.5t0 115.5t-3 110.5t-9 135.5t-18 136h-498l-227 -594h-319zM268 1618q0 44 33 82t82 67.5t99.5 59.5t90.5 72.5t50 91.5h67q10 -49 50.5 -91.5t91.5 -72.5t100.5 -59.5t83 -67.5t33.5 -82h-263q0 30 -14 70.5t-29.5 70.5 t-44 81.5t-41.5 76.5q-12 -23 -41 -76t-44 -82.5t-28.5 -70t-13.5 -70.5h-262zM512 664h463q-17 101 -49 180l-183 428z" />
<glyph unicode="&#xc3;" d="M-59 0l557 1438h250l612 -1438h-346q0 23 1 96.5t0 115.5t-3 110.5t-9 135.5t-18 136h-498l-227 -594h-319zM297 1729q0 109 54 169t124 60q55 0 144 -32t172 -64.5t124 -32.5q31 0 45.5 15t14.5 52h37q0 -108 -51 -161.5t-121 -53.5q-56 0 -144.5 30.5t-170.5 60.5 t-124 30q-69 0 -69 -76zM512 664h463q-17 101 -49 180l-183 428z" />
<glyph unicode="&#xc4;" d="M-59 0l557 1438h250l612 -1438h-346q0 23 1 96.5t0 115.5t-3 110.5t-9 135.5t-18 136h-498l-227 -594h-319zM406 1800q0 46 32 77.5t78 31.5q45 0 77 -32t32 -77t-32 -76.5t-77 -31.5q-46 0 -78 31t-32 77zM512 664h463q-17 101 -49 180l-183 428zM690 1800 q0 46 32.5 77.5t78.5 31.5q45 0 76.5 -31.5t31.5 -77.5q0 -45 -31.5 -76.5t-76.5 -31.5q-46 0 -78.5 31.5t-32.5 76.5z" />
<glyph unicode="&#xc5;" d="M-59 0l557 1438h250l612 -1438h-346q0 23 1 96.5t0 115.5t-3 110.5t-9 135.5t-18 136h-498l-227 -594h-319zM463 1790q0 82 55 137t137 55t137.5 -55t55.5 -137t-55.5 -137.5t-137.5 -55.5t-137 55.5t-55 137.5zM512 664h463q-17 101 -49 180l-183 428zM580 1790 q0 -32 21.5 -54t53.5 -22t54 22t22 54t-22 54t-54 22t-53.5 -22t-21.5 -54z" />
<glyph unicode="&#xc6;" horiz-adv-x="1972" d="M-59 0l587 1438h588q106 0 288.5 -12.5t303.5 -12.5t193 25v-344h-11q-46 0 -93.5 19.5t-87 49t-93 64.5t-108.5 65.5t-136 52t-172 23.5l-84 2v-526h260q37 0 60.5 1t62.5 8.5t65 21t52 41.5t41 67h20v-354h-20q-12 35 -31 61t-45 41t-48 24.5t-55.5 13t-51.5 4.5t-50 1 h-260v-706q107 4 207 34t175 69.5t144 78.5t140.5 65.5t138.5 26.5h10v-342q-90 33 -203.5 41t-202 -1.5t-212.5 -23.5t-197 -16h-336v580h-276l-236 -580h-327zM530 647h250v615z" />
<glyph unicode="&#xc7;" horiz-adv-x="1366" d="M43 733q0 182 61 324.5t168 231.5t246.5 135t302.5 46q76 0 159 -14t135.5 -27.5t111 -13.5t104.5 23v-402q-43 0 -79 20t-62 52.5t-50 71t-50 77.5t-56.5 71.5t-75 52.5t-98.5 20q-213 0 -350 -185.5t-133 -474.5q2 -150 27.5 -271t65 -199.5t92.5 -131.5t107 -75.5 t111 -22.5q59 0 118.5 36t109 88.5t96 106.5t97.5 97.5t95 52.5l4 -371q-70 3 -137.5 -9.5t-115.5 -29.5t-122.5 -32t-154.5 -15q-48 0 -94 6l-23 -75h76q90 0 132 -42t42 -106q0 -62 -24 -109.5t-65.5 -78t-105 -50.5t-134.5 -29.5t-162 -12.5v32q159 17 245 75.5t86 148.5 q0 51 -27 83.5t-75 32.5h-80l45 144q-115 26 -215 86.5t-179 152t-124 223t-45 287.5z" />
<glyph unicode="&#xc8;" horiz-adv-x="1245" d="M53 0v1438h336q106 0 288 -12.5t303.5 -12.5t193.5 25v-344h-11q-54 0 -109 27t-109 66t-116.5 79t-155 69.5t-200.5 32.5l-84 2v-526h260q37 0 60 1t61.5 8.5t64.5 21t53 41.5t42 67h20v-354h-20q-15 41 -42 70.5t-52.5 43.5t-65 21.5t-61.5 8.5t-60 1h-260v-706 q104 4 202.5 34t171.5 69t138.5 77.5t131.5 65t124 26.5q31 0 47 -2v-338q-113 39 -248 41t-315 -18.5t-252 -22.5h-336zM348 1991h268q2 -46 38 -96.5t81 -89.5t96 -91.5t74 -95.5l-53 -29q-28 39 -91.5 73t-131.5 61t-133 60t-106.5 85.5t-41.5 122.5z" />
<glyph unicode="&#xc9;" horiz-adv-x="1245" d="M53 0v1438h336q106 0 288 -12.5t303.5 -12.5t193.5 25v-344h-11q-54 0 -109 27t-109 66t-116.5 79t-155 69.5t-200.5 32.5l-84 2v-526h260q37 0 60 1t61.5 8.5t64.5 21t53 41.5t42 67h20v-354h-20q-15 41 -42 70.5t-52.5 43.5t-65 21.5t-61.5 8.5t-60 1h-260v-706 q104 4 202.5 34t171.5 69t138.5 77.5t131.5 65t124 26.5q31 0 47 -2v-338q-113 39 -248 41t-315 -18.5t-252 -22.5h-336zM242 1618q23 43 74 95.5t95.5 91.5t80.5 89.5t38 96.5h269q0 -70 -41.5 -122.5t-106.5 -85.5t-133 -60t-131.5 -61t-91.5 -73z" />
<glyph unicode="&#xca;" horiz-adv-x="1245" d="M53 0v1438h336q106 0 288 -12.5t303.5 -12.5t193.5 25v-344h-11q-54 0 -109 27t-109 66t-116.5 79t-155 69.5t-200.5 32.5l-84 2v-526h260q37 0 60 1t61.5 8.5t64.5 21t53 41.5t42 67h20v-354h-20q-15 41 -42 70.5t-52.5 43.5t-65 21.5t-61.5 8.5t-60 1h-260v-706 q104 4 202.5 34t171.5 69t138.5 77.5t131.5 65t124 26.5q31 0 47 -2v-338q-113 39 -248 41t-315 -18.5t-252 -22.5h-336zM231 1618q0 44 33 82t82 67.5t99.5 59.5t90.5 72.5t50 91.5h67q10 -49 50.5 -91.5t91.5 -72.5t100.5 -59.5t83 -67.5t33.5 -82h-262q0 30 -14 70.5 t-29.5 70.5t-44 81.5t-41.5 76.5q-12 -23 -41 -76t-44 -82.5t-28.5 -70t-13.5 -70.5h-263z" />
<glyph unicode="&#xcb;" horiz-adv-x="1245" d="M53 0v1438h336q106 0 288 -12.5t303.5 -12.5t193.5 25v-344h-11q-54 0 -109 27t-109 66t-116.5 79t-155 69.5t-200.5 32.5l-84 2v-526h260q37 0 60 1t61.5 8.5t64.5 21t53 41.5t42 67h20v-354h-20q-15 41 -42 70.5t-52.5 43.5t-65 21.5t-61.5 8.5t-60 1h-260v-706 q104 4 202.5 34t171.5 69t138.5 77.5t131.5 65t124 26.5q31 0 47 -2v-338q-113 39 -248 41t-315 -18.5t-252 -22.5h-336zM369 1800q0 46 32 77.5t78 31.5q45 0 77 -32t32 -77t-32 -76.5t-77 -31.5q-46 0 -78 31t-32 77zM653 1800q0 46 32.5 77.5t78.5 31.5q44 0 76 -31.5 t32 -77.5q0 -45 -31.5 -76.5t-76.5 -31.5q-46 0 -78.5 31.5t-32.5 76.5z" />
<glyph unicode="&#xcc;" horiz-adv-x="442" d="M-53 1991h268q2 -46 38 -96.5t81 -89.5t96 -91.5t74 -95.5l-53 -29q-28 39 -91.5 73t-131.5 61t-133 60t-106.5 85.5t-41.5 122.5zM53 0v1438h336v-1438h-336z" />
<glyph unicode="&#xcd;" horiz-adv-x="442" d="M-160 1618q23 43 74 95.5t96 91.5t81 89.5t38 96.5h268q0 -70 -41.5 -122.5t-106.5 -85.5t-132.5 -60t-131 -61t-91.5 -73zM53 0v1438h336v-1438h-336z" />
<glyph unicode="&#xce;" horiz-adv-x="442" d="M-170 1618q0 44 33 82t82 67.5t99 59.5t90 72.5t50 91.5h68q10 -49 50.5 -91.5t91 -72.5t100 -59.5t83 -67.5t33.5 -82h-262q0 30 -14 70.5t-29.5 70.5t-44 81.5t-41.5 76.5q-12 -23 -41 -76t-44 -82.5t-28.5 -70t-13.5 -70.5h-262zM53 0v1438h336v-1438h-336z" />
<glyph unicode="&#xcf;" horiz-adv-x="442" d="M-33 1800q0 46 32.5 77.5t78.5 31.5q44 0 76 -31.5t32 -77.5q0 -45 -31.5 -76.5t-76.5 -31.5q-46 0 -78.5 31.5t-32.5 76.5zM53 0v1438h336v-1438h-336zM252 1800q0 46 32 77.5t78 31.5q45 0 77 -32t32 -77t-32 -76.5t-77 -31.5q-46 0 -78 31t-32 77z" />
<glyph unicode="&#xd0;" horiz-adv-x="1382" d="M-37 684v68h90v686h641q145 0 262.5 -43t203.5 -127t132.5 -217t46.5 -306q0 -154 -40.5 -281.5t-106.5 -211.5t-152.5 -142.5t-176.5 -84t-181 -25.5h-629v684h-90zM389 68q111 -1 198.5 16.5t167.5 63.5t133.5 121t84.5 195t31 281q0 156 -30 268.5t-80.5 180.5 t-131.5 108t-168 53.5t-205 12.5v-616h92v-68h-92v-616z" />
<glyph unicode="&#xd1;" horiz-adv-x="1325" d="M55 0q58 203 83.5 420.5t25.5 544.5v338l-82 135h344l760 -1219v217q0 506 -166 1002h344q-111 -331 -111 -938v-500h-272l-750 1190v-338q0 -378 168 -852h-344zM332 1729q0 109 54 169t124 60q55 0 144 -32t172 -64.5t124 -32.5q31 0 45.5 15t14.5 52h37 q0 -108 -51.5 -161.5t-121.5 -53.5q-56 0 -144 30.5t-170 60.5t-124 30q-69 0 -69 -76z" />
<glyph unicode="&#xd2;" horiz-adv-x="1556" d="M43 711q0 107 27 212t86 204.5t143 175t208 121.5t271 46t271 -46t208 -121.5t143 -175t86 -204.5t27 -212q0 -121 -28.5 -230.5t-88.5 -203.5t-145.5 -163t-206.5 -108t-266 -39t-266 39t-206.5 108t-145.5 163t-88.5 203.5t-28.5 230.5zM379 711q0 -92 14 -184.5 t45 -181.5t76 -157.5t113.5 -110.5t150.5 -42q87 0 157.5 42t114.5 110t74 158.5t42 181t12 184.5q0 91 -12 182t-42 184.5t-74 164.5t-114.5 116t-157.5 45q-79 0 -142.5 -31t-106 -85.5t-73 -122t-47 -148t-23.5 -154.5t-7 -151zM504 1991h268q2 -46 38 -96.5t81 -89.5 t96 -91.5t74 -95.5l-53 -29q-28 39 -91.5 73t-131.5 61t-133 60t-106.5 85.5t-41.5 122.5z" />
<glyph unicode="&#xd3;" horiz-adv-x="1556" d="M43 711q0 107 27 212t86 204.5t143 175t208 121.5t271 46t271 -46t208 -121.5t143 -175t86 -204.5t27 -212q0 -121 -28.5 -230.5t-88.5 -203.5t-145.5 -163t-206.5 -108t-266 -39t-266 39t-206.5 108t-145.5 163t-88.5 203.5t-28.5 230.5zM379 711q0 -92 14 -184.5 t45 -181.5t76 -157.5t113.5 -110.5t150.5 -42q87 0 157.5 42t114.5 110t74 158.5t42 181t12 184.5q0 91 -12 182t-42 184.5t-74 164.5t-114.5 116t-157.5 45q-79 0 -142.5 -31t-106 -85.5t-73 -122t-47 -148t-23.5 -154.5t-7 -151zM397 1618q23 43 74 95.5t96 91.5t81 89.5 t38 96.5h268q0 -70 -41.5 -122.5t-106.5 -85.5t-132.5 -60t-131 -61t-91.5 -73z" />
<glyph unicode="&#xd4;" horiz-adv-x="1556" d="M43 711q0 107 27 212t86 204.5t143 175t208 121.5t271 46t271 -46t208 -121.5t143 -175t86 -204.5t27 -212q0 -121 -28.5 -230.5t-88.5 -203.5t-145.5 -163t-206.5 -108t-266 -39t-266 39t-206.5 108t-145.5 163t-88.5 203.5t-28.5 230.5zM379 711q0 -92 14 -184.5 t45 -181.5t76 -157.5t113.5 -110.5t150.5 -42q87 0 157.5 42t114.5 110t74 158.5t42 181t12 184.5q0 91 -12 182t-42 184.5t-74 164.5t-114.5 116t-157.5 45q-79 0 -142.5 -31t-106 -85.5t-73 -122t-47 -148t-23.5 -154.5t-7 -151zM387 1618q0 44 33 82t82 67.5t99 59.5 t90 72.5t50 91.5h68q10 -49 50.5 -91.5t91 -72.5t100 -59.5t83 -67.5t33.5 -82h-262q0 30 -14 70.5t-29.5 70.5t-44 81.5t-41.5 76.5q-12 -23 -41 -76t-44 -82.5t-28.5 -70t-13.5 -70.5h-262z" />
<glyph unicode="&#xd5;" horiz-adv-x="1556" d="M43 711q0 107 27 212t86 204.5t143 175t208 121.5t271 46t271 -46t208 -121.5t143 -175t86 -204.5t27 -212q0 -121 -28.5 -230.5t-88.5 -203.5t-145.5 -163t-206.5 -108t-266 -39t-266 39t-206.5 108t-145.5 163t-88.5 203.5t-28.5 230.5zM379 711q0 -92 14 -184.5 t45 -181.5t76 -157.5t113.5 -110.5t150.5 -42q87 0 157.5 42t114.5 110t74 158.5t42 181t12 184.5q0 91 -12 182t-42 184.5t-74 164.5t-114.5 116t-157.5 45q-79 0 -142.5 -31t-106 -85.5t-73 -122t-47 -148t-23.5 -154.5t-7 -151zM416 1729q0 109 54 169t124 60 q55 0 144 -32t172 -64.5t124 -32.5q31 0 45.5 15t14.5 52h36q0 -108 -51 -161.5t-121 -53.5q-56 0 -144 30.5t-170 60.5t-124 30q-69 0 -69 -76z" />
<glyph unicode="&#xd6;" horiz-adv-x="1556" d="M43 711q0 107 27 212t86 204.5t143 175t208 121.5t271 46t271 -46t208 -121.5t143 -175t86 -204.5t27 -212q0 -121 -28.5 -230.5t-88.5 -203.5t-145.5 -163t-206.5 -108t-266 -39t-266 39t-206.5 108t-145.5 163t-88.5 203.5t-28.5 230.5zM379 711q0 -92 14 -184.5 t45 -181.5t76 -157.5t113.5 -110.5t150.5 -42q87 0 157.5 42t114.5 110t74 158.5t42 181t12 184.5q0 91 -12 182t-42 184.5t-74 164.5t-114.5 116t-157.5 45q-79 0 -142.5 -31t-106 -85.5t-73 -122t-47 -148t-23.5 -154.5t-7 -151zM524 1800q0 46 32.5 77.5t78.5 31.5 q45 0 76.5 -31.5t31.5 -77.5q0 -45 -31.5 -76.5t-76.5 -31.5q-46 0 -78.5 31.5t-32.5 76.5zM809 1800q0 46 32.5 77.5t78.5 31.5q44 0 76 -31.5t32 -77.5q0 -45 -31.5 -76.5t-76.5 -31.5q-46 0 -78.5 31.5t-32.5 76.5z" />
<glyph unicode="&#xd7;" horiz-adv-x="679" d="M49 399l244 244l-242 240l47 49l242 -242l242 242l47 -49l-240 -240l242 -244l-49 -47l-242 242l-242 -242z" />
<glyph unicode="&#xd8;" horiz-adv-x="1556" d="M43 711q0 107 27 212t86 204.5t143 175t208 121.5t271 46q110 0 201 -24l57 205h70l-64 -224q117 -42 209.5 -120.5t148.5 -176.5t84.5 -205t28.5 -214q0 -121 -28.5 -230.5t-88.5 -203.5t-145.5 -163t-206.5 -108t-266 -39q-72 0 -147 10l-56 -190h-69l57 205 q-169 41 -288.5 149t-175.5 253.5t-56 316.5zM379 711q0 -184 54 -355t161 -256l356 1250q-75 53 -172 53q-79 0 -142.5 -31t-106 -85.5t-73 -122t-47 -148t-23.5 -154.5t-7 -151zM653 61q60 -26 125 -26q87 0 157.5 42t114.5 110t74 158.5t42 181t12 184.5q0 166 -42 328.5 t-130 258.5z" />
<glyph unicode="&#xd9;" horiz-adv-x="1384" d="M53 604v834h338v-1065q0 -164 80.5 -250t218.5 -86q137 0 215 86t78 250v1065h336v-834q0 -156 -47 -278t-132 -199.5t-199 -117.5t-251 -40q-138 0 -253.5 40t-201.5 117.5t-134 200t-48 277.5zM418 1991h268q2 -46 38 -96.5t81 -89.5t96 -91.5t74 -95.5l-53 -29 q-28 39 -91.5 73t-131.5 61t-133 60t-106.5 85.5t-41.5 122.5z" />
<glyph unicode="&#xda;" horiz-adv-x="1384" d="M53 604v834h338v-1065q0 -164 80.5 -250t218.5 -86q137 0 215 86t78 250v1065h336v-834q0 -156 -47 -278t-132 -199.5t-199 -117.5t-251 -40q-138 0 -253.5 40t-201.5 117.5t-134 200t-48 277.5zM311 1618q23 43 74 95.5t96 91.5t81 89.5t38 96.5h268q0 -70 -41.5 -122.5 t-106.5 -85.5t-132.5 -60t-131 -61t-91.5 -73z" />
<glyph unicode="&#xdb;" horiz-adv-x="1384" d="M53 604v834h338v-1065q0 -164 80.5 -250t218.5 -86q137 0 215 86t78 250v1065h336v-834q0 -156 -47 -278t-132 -199.5t-199 -117.5t-251 -40q-138 0 -253.5 40t-201.5 117.5t-134 200t-48 277.5zM301 1618q0 44 33 82t82 67.5t99 59.5t90 72.5t50 91.5h68 q10 -49 50.5 -91.5t91 -72.5t100 -59.5t83 -67.5t33.5 -82h-262q0 30 -14 70.5t-29.5 70.5t-44 81.5t-41.5 76.5q-12 -23 -41 -76t-44 -82.5t-28.5 -70t-13.5 -70.5h-262z" />
<glyph unicode="&#xdc;" horiz-adv-x="1384" d="M53 604v834h338v-1065q0 -164 80.5 -250t218.5 -86q137 0 215 86t78 250v1065h336v-834q0 -156 -47 -278t-132 -199.5t-199 -117.5t-251 -40q-138 0 -253.5 40t-201.5 117.5t-134 200t-48 277.5zM438 1800q0 46 32.5 77.5t78.5 31.5q45 0 76.5 -31.5t31.5 -77.5 q0 -45 -31.5 -76.5t-76.5 -31.5q-46 0 -78.5 31.5t-32.5 76.5zM723 1800q0 46 32.5 77.5t78.5 31.5q44 0 76 -31.5t32 -77.5q0 -45 -31.5 -76.5t-76.5 -31.5q-46 0 -78.5 31.5t-32.5 76.5z" />
<glyph unicode="&#xdd;" horiz-adv-x="976" d="M-164 1438h336l426 -742l113 191q45 77 61.5 165t11 149t-15.5 135t-10 102h338l-465 -803v-635h-336v635zM109 1618q23 43 74 95.5t95.5 91.5t80.5 89.5t38 96.5h269q0 -70 -41.5 -122.5t-106.5 -85.5t-133 -60t-131.5 -61t-91.5 -73z" />
<glyph unicode="&#xde;" horiz-adv-x="1236" d="M53 0v1438h336v-240h262q272 0 408.5 -118.5t136.5 -340.5q0 -207 -142.5 -337t-402.5 -130h-262v-272h-336zM389 340h160q80 -2 140.5 28t96.5 85.5t54 127t18 158.5q0 202 -72 296.5t-237 94.5h-160v-790z" />
<glyph unicode="&#xdf;" horiz-adv-x="1476" d="M41 0v930q0 119 37 219.5t97.5 168.5t140 116t164 70t169.5 22q109 0 193.5 -35t130.5 -104.5t35 -163.5q-10 -80 -47 -158q123 -75 216 -160.5t148.5 -172t83 -170.5t27.5 -165q0 -186 -128.5 -309t-332.5 -123q-151 0 -276 73.5t-207 209.5l55 49q60 -105 138.5 -158 t154.5 -53q85 0 140.5 63t55.5 164q0 120 -85 258.5t-267 270.5q80 110 129 198q88 157 88 258q0 71 -39.5 110.5t-103.5 39.5q-48 0 -99.5 -22.5t-102 -70.5t-90.5 -115t-64.5 -165t-24.5 -211v-864h-336z" />
<glyph unicode="&#xe0;" horiz-adv-x="1267" d="M53 311q0 39 8.5 75t20 66t35 61t43 53.5t54.5 50.5t58.5 45t66.5 43.5t67 40t71 40.5q65 38 92.5 54t81.5 51.5t82.5 60.5t61.5 61.5t53 73.5q-40 76 -119 76q-54 0 -107 -33.5t-98 -80.5t-90 -94.5t-99 -81t-108 -33.5v336q54 -13 101 -13q68 0 212 27t226 27 q66 0 125 -9.5t120 -36t104.5 -67.5t71 -110t27.5 -158v-836h-335v141q-69 -84 -169 -130t-204 -46q-117 0 -218.5 39t-168 119.5t-66.5 187.5zM360 1737h269q2 -46 38 -96.5t81 -89.5t96 -91.5t74 -95.5l-54 -29q-28 39 -91.5 73t-131.5 61t-133 60t-106.5 85.5 t-41.5 122.5zM389 367q0 -139 67 -217t167 -78q68 0 135.5 37.5t120.5 107.5v711q0 41 -11 98q-31 -52 -74.5 -102t-76.5 -80t-86 -74q-43 -36 -64 -55t-55 -53t-51.5 -61t-36.5 -64.5t-27 -79.5t-8 -90z" />
<glyph unicode="&#xe1;" horiz-adv-x="1267" d="M53 311q0 39 8.5 75t20 66t35 61t43 53.5t54.5 50.5t58.5 45t66.5 43.5t67 40t71 40.5q65 38 92.5 54t81.5 51.5t82.5 60.5t61.5 61.5t53 73.5q-40 76 -119 76q-54 0 -107 -33.5t-98 -80.5t-90 -94.5t-99 -81t-108 -33.5v336q54 -13 101 -13q68 0 212 27t226 27 q66 0 125 -9.5t120 -36t104.5 -67.5t71 -110t27.5 -158v-836h-335v141q-69 -84 -169 -130t-204 -46q-117 0 -218.5 39t-168 119.5t-66.5 187.5zM254 1364q23 43 74 95.5t96 91.5t81 89.5t38 96.5h268q0 -70 -41.5 -122.5t-106.5 -85.5t-133 -60t-131.5 -61t-91.5 -73z M389 367q0 -139 67 -217t167 -78q68 0 135.5 37.5t120.5 107.5v711q0 41 -11 98q-31 -52 -74.5 -102t-76.5 -80t-86 -74q-43 -36 -64 -55t-55 -53t-51.5 -61t-36.5 -64.5t-27 -79.5t-8 -90z" />
<glyph unicode="&#xe2;" horiz-adv-x="1267" d="M53 311q0 39 8.5 75t20 66t35 61t43 53.5t54.5 50.5t58.5 45t66.5 43.5t67 40t71 40.5q65 38 92.5 54t81.5 51.5t82.5 60.5t61.5 61.5t53 73.5q-40 76 -119 76q-54 0 -107 -33.5t-98 -80.5t-90 -94.5t-99 -81t-108 -33.5v336q54 -13 101 -13q68 0 212 27t226 27 q66 0 125 -9.5t120 -36t104.5 -67.5t71 -110t27.5 -158v-836h-335v141q-69 -84 -169 -130t-204 -46q-117 0 -218.5 39t-168 119.5t-66.5 187.5zM244 1364q0 44 33 82t82 67.5t99 59.5t90 72.5t50 91.5h68q10 -49 50.5 -91.5t91 -72.5t100 -59.5t83 -67.5t33.5 -82h-262 q0 30 -14 70.5t-29.5 70.5t-44 81.5t-41.5 76.5q-12 -23 -41 -76t-44 -82.5t-28.5 -70t-13.5 -70.5h-262zM389 367q0 -139 67 -217t167 -78q68 0 135.5 37.5t120.5 107.5v711q0 41 -11 98q-31 -52 -74.5 -102t-76.5 -80t-86 -74q-43 -36 -64 -55t-55 -53t-51.5 -61 t-36.5 -64.5t-27 -79.5t-8 -90z" />
<glyph unicode="&#xe3;" horiz-adv-x="1267" d="M53 311q0 39 8.5 75t20 66t35 61t43 53.5t54.5 50.5t58.5 45t66.5 43.5t67 40t71 40.5q65 38 92.5 54t81.5 51.5t82.5 60.5t61.5 61.5t53 73.5q-40 76 -119 76q-54 0 -107 -33.5t-98 -80.5t-90 -94.5t-99 -81t-108 -33.5v336q54 -13 101 -13q68 0 212 27t226 27 q66 0 125 -9.5t120 -36t104.5 -67.5t71 -110t27.5 -158v-836h-335v141q-69 -84 -169 -130t-204 -46q-117 0 -218.5 39t-168 119.5t-66.5 187.5zM272 1475q0 109 54.5 169t124.5 60q55 0 144 -32t172 -64.5t124 -32.5q30 0 44.5 15t14.5 52h37q0 -108 -51 -161.5t-121 -53.5 q-56 0 -144 30.5t-170 60.5t-124 30q-70 0 -70 -75zM389 367q0 -139 67 -217t167 -78q68 0 135.5 37.5t120.5 107.5v711q0 41 -11 98q-31 -52 -74.5 -102t-76.5 -80t-86 -74q-43 -36 -64 -55t-55 -53t-51.5 -61t-36.5 -64.5t-27 -79.5t-8 -90z" />
<glyph unicode="&#xe4;" horiz-adv-x="1267" d="M53 311q0 39 8.5 75t20 66t35 61t43 53.5t54.5 50.5t58.5 45t66.5 43.5t67 40t71 40.5q65 38 92.5 54t81.5 51.5t82.5 60.5t61.5 61.5t53 73.5q-40 76 -119 76q-54 0 -107 -33.5t-98 -80.5t-90 -94.5t-99 -81t-108 -33.5v336q54 -13 101 -13q68 0 212 27t226 27 q66 0 125 -9.5t120 -36t104.5 -67.5t71 -110t27.5 -158v-836h-335v141q-69 -84 -169 -130t-204 -46q-117 0 -218.5 39t-168 119.5t-66.5 187.5zM381 1546q0 46 32.5 77.5t78.5 31.5q44 0 76 -31.5t32 -77.5q0 -45 -31.5 -76.5t-76.5 -31.5q-46 0 -78.5 31.5t-32.5 76.5z M389 367q0 -139 67 -217t167 -78q68 0 135.5 37.5t120.5 107.5v711q0 41 -11 98q-31 -52 -74.5 -102t-76.5 -80t-86 -74q-43 -36 -64 -55t-55 -53t-51.5 -61t-36.5 -64.5t-27 -79.5t-8 -90zM666 1546q0 46 32 77.5t78 31.5q45 0 77 -32t32 -77t-32 -76.5t-77 -31.5 q-46 0 -78 31t-32 77z" />
<glyph unicode="&#xe5;" horiz-adv-x="1267" d="M53 311q0 39 8.5 75t20 66t35 61t43 53.5t54.5 50.5t58.5 45t66.5 43.5t67 40t71 40.5q65 38 92.5 54t81.5 51.5t82.5 60.5t61.5 61.5t53 73.5q-40 76 -119 76q-54 0 -107 -33.5t-98 -80.5t-90 -94.5t-99 -81t-108 -33.5v336q54 -13 101 -13q68 0 212 27t226 27 q66 0 125 -9.5t120 -36t104.5 -67.5t71 -110t27.5 -158v-836h-335v141q-69 -84 -169 -130t-204 -46q-117 0 -218.5 39t-168 119.5t-66.5 187.5zM389 367q0 -139 67 -217t167 -78q68 0 135.5 37.5t120.5 107.5v711q0 41 -11 98q-31 -52 -74.5 -102t-76.5 -80t-86 -74 q-43 -36 -64 -55t-55 -53t-51.5 -61t-36.5 -64.5t-27 -79.5t-8 -90zM438 1536q0 82 55.5 137.5t137.5 55.5t137 -55.5t55 -137.5t-55 -137.5t-137 -55.5t-137.5 55.5t-55.5 137.5zM555 1536q0 -32 22 -54t54 -22t54 22t22 54t-22 54t-54 22t-54 -22t-22 -54z" />
<glyph unicode="&#xe6;" horiz-adv-x="2168" d="M53 311q0 85 35.5 154t95.5 119t133.5 93.5t154.5 87t153.5 90.5t136 113.5t96.5 145.5q-28 66 -129 66q-57 0 -104 -27t-77 -67t-60.5 -87.5t-55.5 -87.5t-60.5 -67t-76.5 -27v338q26 0 191 31t280 31q242 0 358 -119q183 119 469 119q248 0 388.5 -97t140.5 -233 q0 -81 -34.5 -146.5t-89 -106.5t-124.5 -68t-137 -37t-131 -9q-126 3 -192 -22t-107 -105l-31 103q19 57 73 69.5t197 9.5q117 -4 178.5 76t61.5 236q0 121 -54.5 190.5t-158.5 69.5q-68 0 -131.5 -37t-114 -103t-80.5 -167.5t-30 -221.5q0 -131 43 -244t110 -184.5 t144 -112t149 -40.5q51 0 95 23.5t74 60t63 81.5t61.5 86.5t70 77.5t87.5 52l16 -318q-56 3 -125.5 -17.5t-129 -46t-149.5 -47.5t-180 -22q-174 0 -332.5 78t-246.5 229q-180 -309 -461 -309q-117 0 -218.5 39t-168 119.5t-66.5 187.5zM389 367q0 -73 22.5 -130.5t61 -89 t86.5 -46.5t101.5 -4.5t104 37t96 78.5t75.5 120q-57 126 -57 286v357q0 21 -5 84q-42 -80 -110 -154.5t-130 -128t-119 -112.5t-91.5 -133t-34.5 -164z" />
<glyph unicode="&#xe7;" horiz-adv-x="1138" d="M37 616q0 134 32.5 239t86 171t128.5 109.5t153.5 61t166.5 17.5q61 0 128 -14t112.5 -28.5t115 -21.5t136.5 7v-332h-39q-43 0 -76 24t-52 59.5t-43.5 77.5t-49 77.5t-68.5 59.5t-102 24q-77 0 -142.5 -70t-104 -195.5t-36.5 -277.5q1 -153 39 -282t110 -209t164 -80 q50 0 93.5 24t72 60t58.5 78.5t54 78.5t58 60t72 24v-331q-33 17 -88.5 9.5t-99 -23t-113 -31t-131.5 -15.5q-39 0 -109 8l-24 -79h75q90 0 132 -42t42 -106q0 -62 -24 -109.5t-65.5 -78t-105 -50.5t-134.5 -29.5t-162 -12.5v32q159 17 245.5 75.5t86.5 148.5 q0 51 -27.5 83.5t-75.5 32.5h-80l48 152q-202 59 -329.5 227t-127.5 397z" />
<glyph unicode="&#xe8;" d="M37 629q0 120 35.5 217.5t99 166t153.5 115t196.5 68t230.5 21.5q248 0 388 -97t140 -233q0 -81 -35 -146t-88.5 -104.5t-124.5 -66.5t-136.5 -38t-131.5 -12q-131 -2 -195 -25t-104 -102l-31 103q17 53 65 65.5t174 13.5h11h10h11q239 3 239 312q0 121 -54.5 190.5 t-158.5 69.5q-68 0 -131.5 -37t-114 -103t-80.5 -167.5t-30 -221.5q0 -108 28.5 -204.5t74.5 -164t103 -117t115 -73.5t109 -24q47 0 86.5 18.5t68.5 47.5t55 64.5t52.5 71t55.5 64.5t68.5 47.5t86.5 18.5v-336q-56 20 -109.5 20.5t-104 -13t-101 -29.5t-121 -30t-142.5 -14 q-100 0 -194.5 25t-180 78.5t-149.5 130.5t-101.5 187.5t-37.5 242.5zM385 1737h268q2 -46 38 -96.5t81 -89.5t96 -91.5t74 -95.5l-53 -29q-28 39 -91.5 73t-131.5 61t-133 60t-106.5 85.5t-41.5 122.5z" />
<glyph unicode="&#xe9;" d="M37 629q0 120 35.5 217.5t99 166t153.5 115t196.5 68t230.5 21.5q248 0 388 -97t140 -233q0 -81 -35 -146t-88.5 -104.5t-124.5 -66.5t-136.5 -38t-131.5 -12q-131 -2 -195 -25t-104 -102l-31 103q17 53 65 65.5t174 13.5h11h10h11q239 3 239 312q0 121 -54.5 190.5 t-158.5 69.5q-68 0 -131.5 -37t-114 -103t-80.5 -167.5t-30 -221.5q0 -108 28.5 -204.5t74.5 -164t103 -117t115 -73.5t109 -24q47 0 86.5 18.5t68.5 47.5t55 64.5t52.5 71t55.5 64.5t68.5 47.5t86.5 18.5v-336q-56 20 -109.5 20.5t-104 -13t-101 -29.5t-121 -30t-142.5 -14 q-100 0 -194.5 25t-180 78.5t-149.5 130.5t-101.5 187.5t-37.5 242.5zM279 1364q23 43 74 95.5t95.5 91.5t80.5 89.5t38 96.5h269q0 -70 -41.5 -122.5t-106.5 -85.5t-133 -60t-131.5 -61t-91.5 -73z" />
<glyph unicode="&#xea;" d="M37 629q0 120 35.5 217.5t99 166t153.5 115t196.5 68t230.5 21.5q248 0 388 -97t140 -233q0 -81 -35 -146t-88.5 -104.5t-124.5 -66.5t-136.5 -38t-131.5 -12q-131 -2 -195 -25t-104 -102l-31 103q17 53 65 65.5t174 13.5h11h10h11q239 3 239 312q0 121 -54.5 190.5 t-158.5 69.5q-68 0 -131.5 -37t-114 -103t-80.5 -167.5t-30 -221.5q0 -108 28.5 -204.5t74.5 -164t103 -117t115 -73.5t109 -24q47 0 86.5 18.5t68.5 47.5t55 64.5t52.5 71t55.5 64.5t68.5 47.5t86.5 18.5v-336q-56 20 -109.5 20.5t-104 -13t-101 -29.5t-121 -30t-142.5 -14 q-100 0 -194.5 25t-180 78.5t-149.5 130.5t-101.5 187.5t-37.5 242.5zM268 1364q0 44 33 82t82 67.5t99.5 59.5t90.5 72.5t50 91.5h67q10 -49 50.5 -91.5t91.5 -72.5t100.5 -59.5t83 -67.5t33.5 -82h-263q0 30 -14 70.5t-29.5 70.5t-44 81.5t-41.5 76.5q-12 -23 -41 -76 t-44 -82.5t-28.5 -70t-13.5 -70.5h-262z" />
<glyph unicode="&#xeb;" d="M37 629q0 120 35.5 217.5t99 166t153.5 115t196.5 68t230.5 21.5q248 0 388 -97t140 -233q0 -81 -35 -146t-88.5 -104.5t-124.5 -66.5t-136.5 -38t-131.5 -12q-131 -2 -195 -25t-104 -102l-31 103q17 53 65 65.5t174 13.5h11h10h11q239 3 239 312q0 121 -54.5 190.5 t-158.5 69.5q-68 0 -131.5 -37t-114 -103t-80.5 -167.5t-30 -221.5q0 -108 28.5 -204.5t74.5 -164t103 -117t115 -73.5t109 -24q47 0 86.5 18.5t68.5 47.5t55 64.5t52.5 71t55.5 64.5t68.5 47.5t86.5 18.5v-336q-56 20 -109.5 20.5t-104 -13t-101 -29.5t-121 -30t-142.5 -14 q-100 0 -194.5 25t-180 78.5t-149.5 130.5t-101.5 187.5t-37.5 242.5zM406 1546q0 46 32 77.5t78 31.5q45 0 77 -32t32 -77t-32 -76.5t-77 -31.5q-46 0 -78 31t-32 77zM690 1546q0 46 32.5 77.5t78.5 31.5q45 0 76.5 -31.5t31.5 -77.5q0 -45 -31.5 -76.5t-76.5 -31.5 q-46 0 -78.5 31.5t-32.5 76.5z" />
<glyph unicode="&#xec;" horiz-adv-x="495" d="M-25 1737h269q2 -46 38 -96.5t80.5 -89.5t95.5 -91.5t74 -95.5l-53 -29q-28 39 -91.5 73t-131.5 61t-133 60t-106.5 85.5t-41.5 122.5zM84 0v1184h336v-1184h-336z" />
<glyph unicode="&#xed;" horiz-adv-x="495" d="M-131 1364q23 43 74 95.5t96 91.5t81 89.5t38 96.5h268q0 -70 -41.5 -122.5t-106.5 -85.5t-133 -60t-131.5 -61t-91.5 -73zM84 0v1184h336v-1184h-336z" />
<glyph unicode="&#xee;" horiz-adv-x="495" d="M-139 1364q0 44 33 82t82 67.5t99 59.5t90 72.5t50 91.5h68q10 -49 50.5 -91.5t91 -72.5t100 -59.5t83 -67.5t33.5 -82h-262q0 30 -14 70.5t-29.5 70.5t-44 81.5t-41.5 76.5q-12 -23 -41 -76t-44 -82.5t-28.5 -70t-13.5 -70.5h-262zM84 0v1184h336v-1184h-336z" />
<glyph unicode="&#xef;" horiz-adv-x="495" d="M-2 1546q0 46 32.5 77.5t78.5 31.5q45 0 76.5 -31.5t31.5 -77.5q0 -45 -31.5 -76.5t-76.5 -31.5q-46 0 -78.5 31.5t-32.5 76.5zM84 0v1184h336v-1184h-336zM283 1546q0 46 32 77.5t78 31.5q45 0 77 -32t32 -77t-32 -76.5t-77 -31.5q-46 0 -78 31t-32 77z" />
<glyph unicode="&#xf0;" horiz-adv-x="1388" d="M37 569q0 313 170.5 481.5t462.5 168.5q126 0 262 -50q-71 195 -211 353l-176 -109l-39 47l172 109q-85 85 -191 157l25 37q143 -68 250 -143l194 123l39 -51l-178 -111q256 -190 395.5 -437t139.5 -485q0 -146 -41.5 -271.5t-122 -222.5t-210 -152.5t-294.5 -55.5 q-307 0 -477 162.5t-170 449.5zM375 569q9 -274 90.5 -408t218.5 -134q99 0 176 93t115.5 235t38.5 304q0 233 -56 431q-130 59 -241 59q-156 0 -253.5 -152t-88.5 -428z" />
<glyph unicode="&#xf1;" horiz-adv-x="1419" d="M84 0v1184h336v-289q93 135 244.5 224t291.5 89q118 0 201.5 -72.5t108.5 -222.5l153 -913h-336l-135 807q-40 237 -184 237q-82 0 -177.5 -73.5t-166.5 -173.5v-797h-336zM348 1475q0 109 54 169t124 60q55 0 144.5 -32t172.5 -64.5t124 -32.5q30 0 44.5 15t14.5 52h37 q0 -108 -51 -161.5t-121 -53.5q-56 0 -144 30.5t-170 60.5t-124 30q-70 0 -70 -75z" />
<glyph unicode="&#xf2;" horiz-adv-x="1351" d="M37 575q0 309 166.5 475.5t472.5 166.5q305 0 471 -161t166 -460q0 -310 -164 -470.5t-473 -160.5q-308 0 -473.5 156t-165.5 454zM352 756q0 -117 29.5 -243t80 -233t127.5 -176t163 -69q82 0 139.5 55t83.5 141t26 193q0 116 -30 242t-82 233.5t-130 177.5t-165 70 q-82 0 -138 -55.5t-80 -141t-24 -194.5zM401 1737h269q2 -46 38 -96.5t80.5 -89.5t95.5 -91.5t74 -95.5l-53 -29q-28 39 -91.5 73t-131.5 61t-133 60t-106.5 85.5t-41.5 122.5z" />
<glyph unicode="&#xf3;" horiz-adv-x="1351" d="M37 575q0 309 166.5 475.5t472.5 166.5q305 0 471 -161t166 -460q0 -310 -164 -470.5t-473 -160.5q-308 0 -473.5 156t-165.5 454zM295 1364q23 43 74 95.5t96 91.5t81 89.5t38 96.5h268q0 -70 -41.5 -122.5t-106.5 -85.5t-133 -60t-131.5 -61t-91.5 -73zM352 756 q0 -117 29.5 -243t80 -233t127.5 -176t163 -69q82 0 139.5 55t83.5 141t26 193q0 116 -30 242t-82 233.5t-130 177.5t-165 70q-82 0 -138 -55.5t-80 -141t-24 -194.5z" />
<glyph unicode="&#xf4;" horiz-adv-x="1351" d="M37 575q0 309 166.5 475.5t472.5 166.5q305 0 471 -161t166 -460q0 -310 -164 -470.5t-473 -160.5q-308 0 -473.5 156t-165.5 454zM287 1364q0 44 33 82t82 67.5t99 59.5t90 72.5t50 91.5h68q10 -49 50.5 -91.5t91 -72.5t100 -59.5t83 -67.5t33.5 -82h-262q0 30 -14 70.5 t-29.5 70.5t-44 81.5t-41.5 76.5q-12 -23 -41 -76t-44 -82.5t-28.5 -70t-13.5 -70.5h-262zM352 756q0 -117 29.5 -243t80 -233t127.5 -176t163 -69q82 0 139.5 55t83.5 141t26 193q0 116 -30 242t-82 233.5t-130 177.5t-165 70q-82 0 -138 -55.5t-80 -141t-24 -194.5z" />
<glyph unicode="&#xf5;" horiz-adv-x="1351" d="M37 575q0 309 166.5 475.5t472.5 166.5q305 0 471 -161t166 -460q0 -310 -164 -470.5t-473 -160.5q-308 0 -473.5 156t-165.5 454zM315 1475q0 109 54.5 169t124.5 60q55 0 144 -32t172 -64.5t124 -32.5q30 0 44.5 15t14.5 52h37q0 -108 -51 -161.5t-121 -53.5 q-56 0 -144 30.5t-170 60.5t-124 30q-70 0 -70 -75zM352 756q0 -117 29.5 -243t80 -233t127.5 -176t163 -69q82 0 139.5 55t83.5 141t26 193q0 116 -30 242t-82 233.5t-130 177.5t-165 70q-82 0 -138 -55.5t-80 -141t-24 -194.5z" />
<glyph unicode="&#xf6;" horiz-adv-x="1351" d="M37 575q0 309 166.5 475.5t472.5 166.5q305 0 471 -161t166 -460q0 -310 -164 -470.5t-473 -160.5q-308 0 -473.5 156t-165.5 454zM352 756q0 -117 29.5 -243t80 -233t127.5 -176t163 -69q82 0 139.5 55t83.5 141t26 193q0 116 -30 242t-82 233.5t-130 177.5t-165 70 q-82 0 -138 -55.5t-80 -141t-24 -194.5zM424 1546q0 46 32.5 77.5t78.5 31.5q45 0 76.5 -31.5t31.5 -77.5q0 -45 -31.5 -76.5t-76.5 -31.5q-46 0 -78.5 31.5t-32.5 76.5zM709 1546q0 46 32 77.5t78 31.5q45 0 77 -32t32 -77t-32 -76.5t-77 -31.5q-46 0 -78 31t-32 77z" />
<glyph unicode="&#xf7;" horiz-adv-x="851" d="M49 598v68h752v-68h-752zM307 311q0 72 50 121t122 49t122 -49t50 -121t-50 -122t-122 -50t-122 50t-50 122zM307 961q0 72 50 122t122 50t122 -50t50 -122q0 -71 -50 -120.5t-122 -49.5t-122 49.5t-50 120.5z" />
<glyph unicode="&#xf8;" horiz-adv-x="1351" d="M37 575q0 309 166.5 475.5t472.5 166.5q92 0 168 -15l92 322h70l-97 -336q196 -56 300 -206.5t104 -385.5q0 -310 -164 -470.5t-473 -160.5q-58 0 -113 6l-88 -311h-69l92 322q-224 42 -342.5 192.5t-118.5 400.5zM352 756q0 -162 52.5 -332t140.5 -274l254 888 q-95 109 -205 109q-82 0 -138 -55.5t-80 -141t-24 -194.5zM598 94q75 -59 154 -59q82 0 139.5 55t83.5 141t26 193q0 136 -41 286.5t-112 260.5z" />
<glyph unicode="&#xf9;" horiz-adv-x="1284" d="M68 346v838h338v-885q0 -260 202 -260q93 0 185 37q75 32 88 30v1078h338v-1184h-66q-64 86 -141 86q-56 0 -162 -47q-63 -24 -96 -35.5t-98 -25t-126 -13.5q-93 0 -175.5 24t-147 70t-102 120t-37.5 167zM369 1737h268q2 -46 38 -96.5t81 -89.5t96 -91.5t74 -95.5 l-54 -29q-28 39 -91.5 73t-131 61t-132.5 60t-106.5 85.5t-41.5 122.5z" />
<glyph unicode="&#xfa;" horiz-adv-x="1284" d="M68 346v838h338v-885q0 -260 202 -260q93 0 185 37q75 32 88 30v1078h338v-1184h-66q-64 86 -141 86q-56 0 -162 -47q-63 -24 -96 -35.5t-98 -25t-126 -13.5q-93 0 -175.5 24t-147 70t-102 120t-37.5 167zM262 1364q23 43 74 95.5t96 91.5t81 89.5t38 96.5h268 q0 -70 -41.5 -122.5t-106.5 -85.5t-133 -60t-131.5 -61t-91.5 -73z" />
<glyph unicode="&#xfb;" horiz-adv-x="1284" d="M68 346v838h338v-885q0 -260 202 -260q93 0 185 37q75 32 88 30v1078h338v-1184h-66q-64 86 -141 86q-56 0 -162 -47q-63 -24 -96 -35.5t-98 -25t-126 -13.5q-93 0 -175.5 24t-147 70t-102 120t-37.5 167zM252 1364q0 44 33 82t82 67.5t99 59.5t90 72.5t50 91.5h68 q10 -49 50.5 -91.5t91 -72.5t100 -59.5t83 -67.5t33.5 -82h-262q0 30 -14 70.5t-29.5 70.5t-44 81.5t-41.5 76.5q-12 -23 -41 -76t-44 -82.5t-28.5 -70t-13.5 -70.5h-262z" />
<glyph unicode="&#xfc;" horiz-adv-x="1284" d="M68 346v838h338v-885q0 -260 202 -260q93 0 185 37q75 32 88 30v1078h338v-1184h-66q-64 86 -141 86q-56 0 -162 -47q-63 -24 -96 -35.5t-98 -25t-126 -13.5q-93 0 -175.5 24t-147 70t-102 120t-37.5 167zM389 1546q0 46 32.5 77.5t78.5 31.5q44 0 76 -31.5t32 -77.5 q0 -45 -31.5 -76.5t-76.5 -31.5q-46 0 -78.5 31.5t-32.5 76.5zM674 1546q0 46 32 77.5t78 31.5q45 0 77 -32t32 -77t-32 -76.5t-77 -31.5q-46 0 -78 31t-32 77z" />
<glyph unicode="&#xfd;" horiz-adv-x="1064" d="M-139 -94q58 0 111 -24t95.5 -61t83 -75.5t90.5 -73t101 -47.5q51 -11 94 2.5t70.5 53t36 99t-10.5 148.5t-67 193l-485 1063h337l420 -926l86 240q46 126 50 264.5t-19 238.5t-61 183h342l-363 -1022q41 -140 18.5 -255.5t-86 -196t-156 -122t-192.5 -32.5 q-35 3 -87 15.5t-99 24t-99.5 20.5t-107 6t-102.5 -21v305zM152 1364q23 43 74 95.5t95.5 91.5t80.5 89.5t38 96.5h269q0 -70 -41.5 -122.5t-106.5 -85.5t-133 -60t-131.5 -61t-91.5 -73z" />
<glyph unicode="&#xfe;" horiz-adv-x="1339" d="M84 -346v1784h336v-469q89 122 202.5 183.5t231.5 61.5q90 0 170.5 -37.5t143 -106t99 -174t36.5 -232.5q-1 -155 -52 -288t-134 -221t-189.5 -138t-220.5 -50q-156 0 -287 92v-405h-336zM420 164q107 -70 207 -70q145 0 241.5 132.5t96.5 351.5q0 234 -70 353.5 t-182 119.5q-71 0 -147 -50t-146 -149v-688z" />
<glyph unicode="&#xff;" horiz-adv-x="1064" d="M-139 -94q58 0 111 -24t95.5 -61t83 -75.5t90.5 -73t101 -47.5q51 -11 94 2.5t70.5 53t36 99t-10.5 148.5t-67 193l-485 1063h337l420 -926l86 240q46 126 50 264.5t-19 238.5t-61 183h342l-363 -1022q41 -140 18.5 -255.5t-86 -196t-156 -122t-192.5 -32.5 q-35 3 -87 15.5t-99 24t-99.5 20.5t-107 6t-102.5 -21v305zM279 1546q0 46 32 77.5t78 31.5q45 0 77 -32t32 -77t-32 -76.5t-77 -31.5q-46 0 -78 31t-32 77zM563 1546q0 46 32.5 77.5t78.5 31.5q44 0 76 -31.5t32 -77.5q0 -45 -31.5 -76.5t-76.5 -31.5q-46 0 -78.5 31.5 t-32.5 76.5z" />
<glyph unicode="&#x152;" horiz-adv-x="2000" d="M43 711q0 104 26 204t85 196t145.5 167.5t218 115.5t291.5 44h336q107 0 288.5 -12.5t302.5 -12.5t193 25v-344h-10q-46 0 -93.5 19.5t-87 49t-93 64.5t-108.5 65.5t-136 52t-172 23.5l-84 2v-526h260q37 0 60.5 1t62.5 8.5t65 21t52 41.5t41 67h20v-354h-20 q-12 35 -31 61t-45 41t-48 24.5t-55.5 13t-51.5 4.5t-50 1h-260v-706q107 4 207.5 34t175.5 69.5t144 78.5t140.5 65.5t137.5 26.5h10v-342q-90 33 -203 41t-201.5 -1.5t-212.5 -23.5t-198 -16h-336q-197 1 -347 57.5t-240 155.5t-134.5 224.5t-44.5 273.5zM379 711 q0 -87 13 -168t44.5 -162.5t79 -144t123 -106.5t170.5 -56v1290q-79 -7 -143.5 -33.5t-108.5 -64t-77 -90.5t-52 -106t-30.5 -119t-15 -121t-3.5 -119z" />
<glyph unicode="&#x153;" horiz-adv-x="2328" d="M37 580q0 312 163 474.5t474 162.5q162 0 294 -57.5t212 -162.5q89 108 238 164t335 56q250 0 390.5 -97t140.5 -233q0 -81 -35 -146.5t-89.5 -106.5t-125 -68t-138 -37t-131.5 -9q-126 3 -191.5 -22t-107.5 -105l-30 103q20 57 73.5 69.5t196.5 9.5q118 -4 179 76 t61 236q0 121 -54.5 190.5t-158.5 69.5q-68 0 -132 -37t-114 -103t-80.5 -167.5t-30.5 -221.5q0 -131 43.5 -244t110.5 -184.5t144.5 -112t148.5 -40.5q60 0 109.5 32.5t86 82.5t71.5 102t82 99t101 65l17 -318q-56 3 -125.5 -17.5t-128.5 -46t-148.5 -47.5t-179.5 -22 q-142 0 -280 60t-228 174q-150 -236 -518 -236q-303 0 -474 161t-171 454zM361 736q1 -107 24 -212q41 -211 142 -350t225 -139q85 0 141.5 56t78.5 146.5t22 194.5t-21 209q-42 217 -147 361.5t-230 144.5q-83 0 -139 -59t-76.5 -152t-19.5 -200z" />
<glyph unicode="&#x178;" horiz-adv-x="976" d="M-164 1438h336l426 -742l113 191q45 77 61.5 165t11 149t-15.5 135t-10 102h338l-465 -803v-635h-336v635zM238 1800q0 46 32 77.5t78 31.5q45 0 77 -32t32 -77t-32 -76.5t-77 -31.5q-46 0 -78 31t-32 77zM522 1800q0 46 32.5 77.5t78.5 31.5q45 0 76.5 -31.5t31.5 -77.5 q0 -45 -31.5 -76.5t-76.5 -31.5q-46 0 -78.5 31.5t-32.5 76.5z" />
<glyph unicode="&#x2000;" horiz-adv-x="995" />
<glyph unicode="&#x2001;" horiz-adv-x="1991" />
<glyph unicode="&#x2002;" horiz-adv-x="995" />
<glyph unicode="&#x2003;" horiz-adv-x="1991" />
<glyph unicode="&#x2004;" horiz-adv-x="663" />
<glyph unicode="&#x2005;" horiz-adv-x="497" />
<glyph unicode="&#x2006;" horiz-adv-x="331" />
<glyph unicode="&#x2007;" horiz-adv-x="331" />
<glyph unicode="&#x2008;" horiz-adv-x="248" />
<glyph unicode="&#x2009;" horiz-adv-x="398" />
<glyph unicode="&#x200a;" horiz-adv-x="110" />
<glyph unicode="&#x2010;" horiz-adv-x="550" d="M49 586v69h451v-69h-451z" />
<glyph unicode="&#x2011;" horiz-adv-x="550" d="M49 586v69h451v-69h-451z" />
<glyph unicode="&#x2012;" horiz-adv-x="550" d="M49 586v69h451v-69h-451z" />
<glyph unicode="&#x2013;" horiz-adv-x="878" d="M49 586v69h778v-69h-778z" />
<glyph unicode="&#x2014;" horiz-adv-x="1030" d="M49 586v69h930v-69h-930z" />
<glyph unicode="&#x2018;" horiz-adv-x="249" d="M49 1147l82 401h70l-82 -401h-70z" />
<glyph unicode="&#x2019;" horiz-adv-x="249" d="M49 1147l82 401h70l-82 -401h-70z" />
<glyph unicode="&#x201a;" horiz-adv-x="249" d="M49 -233l82 401h70l-82 -401h-70z" />
<glyph unicode="&#x201c;" horiz-adv-x="393" d="M49 1147l82 401h70l-82 -401h-70zM193 1147l81 401h70l-82 -401h-69z" />
<glyph unicode="&#x201d;" horiz-adv-x="393" d="M49 1147l82 401h70l-82 -401h-70zM193 1147l81 401h70l-82 -401h-69z" />
<glyph unicode="&#x201e;" horiz-adv-x="389" d="M49 -233l82 401h70l-82 -401h-70zM188 -233l82 401h70l-82 -401h-70z" />
<glyph unicode="&#x2022;" horiz-adv-x="784" d="M178 526q0 145 98.5 243.5t243.5 98.5t243.5 -98.5t98.5 -243.5t-98.5 -243.5t-243.5 -98.5t-243.5 98.5t-98.5 243.5z" />
<glyph unicode="&#x2026;" horiz-adv-x="1320" d="M115 137q0 72 49 122t121 50t122 -50t50 -122t-50 -121t-122 -49t-121 49t-49 121zM555 137q0 72 50 122t122 50t121 -50t49 -122t-49 -121t-121 -49t-122 49t-50 121zM991 137q0 72 50 122t122 50t121 -50t49 -122t-49 -121t-121 -49t-122 49t-50 121z" />
<glyph unicode="&#x202f;" horiz-adv-x="398" />
<glyph unicode="&#x2039;" horiz-adv-x="776" d="M49 655v9l676 442v-68l-575 -381l575 -385v-67z" />
<glyph unicode="&#x203a;" horiz-adv-x="776" d="M49 205v67l578 385l-578 381v68l676 -442v-9z" />
<glyph unicode="&#x205f;" horiz-adv-x="497" />
<glyph unicode="&#x20ac;" horiz-adv-x="1523" d="M49 565v68h135q-6 50 -6 100v37h-129v68h135q16 156 83 278t171.5 198.5t235.5 116t282 39.5q76 0 159 -14t135.5 -27.5t111 -13.5t104.5 23v-402q-43 0 -79 20t-62 52.5t-50 71t-50 77.5t-56.5 71.5t-75 52.5t-98.5 20q-194 0 -327.5 -155.5t-153.5 -407.5h287v-68h-289 v-29q0 -38 8 -108h281v-68h-271q44 -222 179 -357.5t329 -135.5q113 0 218 57.5t182 169.5l37 -68q-88 -131 -233.5 -199.5t-313.5 -68.5q-95 0 -189.5 24.5t-182.5 74.5t-160.5 120t-125.5 169t-75 214h-146z" />
<glyph unicode="&#x2122;" horiz-adv-x="1077" d="M49 1331l4 109h539l147 -459l150 459h88l51 -522h-123l-37 378l-125 -378h-102l-127 393l-10 -201q-3 -103 39 -192h-119q18 30 36 91t19 101l13 233q-6 5 -27 26.5t-39.5 32.5t-40.5 11h-33v-495h-123v495h-36q-27 0 -47.5 -13t-30.5 -28t-24.5 -28t-31.5 -13h-10z" />
<glyph unicode="&#x25fc;" horiz-adv-x="1187" d="M0 0v1188h1188v-1188h-1188z" />
<glyph unicode="&#xfb01;" horiz-adv-x="1161" d="M-33 1116v68h197q-74 67 -113.5 145t-38 148.5t31.5 128.5t96 92.5t155 34.5q77 0 159 -17.5t143.5 -35.5t130 -28.5t149 4.5t170.5 62h24v-346h-22q-80 0 -151 16t-123.5 42t-100.5 57t-91.5 62.5t-87 57.5t-97 42t-111.5 16q-85 0 -83 -79q2 -87 99 -215 q85 -113 195 -187h585v-1184h-335v1116h-246v-1116h-338v1116h-197z" />
</font>
</defs>
</svg>
